<svg width="11" height="19" viewBox="0 0 11 19" fill="none" xmlns="http://www.w3.org/2000/svg">
<path d="M7.13672 0.611328C7.91039 0.611328 8.54009 1.24098 8.54883 2.01465V6.1709H9.00391C10.0702 6.17116 10.9394 7.04107 10.9395 8.10742V15.835C10.9395 16.8271 10.1837 17.6407 9.21777 17.75C9.0954 18.3225 8.58399 18.7508 7.97656 18.751C7.37336 18.751 6.87039 18.331 6.73926 17.7715H4.79395C4.65848 18.3308 4.15623 18.7507 3.55762 18.751C2.95004 18.751 2.43782 18.3226 2.31543 17.75C1.34958 17.6406 0.59375 16.8271 0.59375 15.835V8.10742C0.593771 7.04091 1.46376 6.1709 2.53027 6.1709H2.98926V2.01465C2.98926 1.24111 3.61811 0.611543 4.3916 0.611328H7.13672ZM3.01465 17.7715C3.11955 17.9638 3.32158 18.0957 3.55762 18.0957C3.78908 18.0955 3.9899 17.9637 4.09473 17.7715H3.01465ZM7.42969 17.7715C7.53456 17.9638 7.73573 18.0956 7.97168 18.0957C8.20772 18.0957 8.40923 17.9638 8.50977 17.7715H7.42969ZM10.2793 11.8057C9.93841 12.107 9.49275 12.2988 8.99902 12.2988H2.53027C2.03637 12.2988 1.58996 12.1116 1.24902 11.8057V15.835C1.24902 16.5387 1.82217 17.1162 2.53027 17.1162H8.99902C9.70713 17.1162 10.2793 16.5387 10.2793 15.835V11.8057ZM6.96191 15.9541C7.14523 15.9543 7.2889 16.1023 7.28906 16.2812C7.28906 16.4603 7.14097 16.6092 6.96191 16.6094H4.56152C4.38247 16.6092 4.23438 16.4603 4.23438 16.2812C4.23454 16.1023 4.38257 15.9543 4.56152 15.9541H6.96191ZM2.53027 6.82715C1.82655 6.82715 1.24904 7.4037 1.24902 8.10742V10.3633C1.24922 11.0668 1.82229 11.6436 2.53027 11.6436H8.99902C9.70264 11.6436 10.2791 11.0712 10.2793 10.3633V8.10742C10.2793 7.39933 9.70712 6.82715 8.99902 6.82715H2.53027ZM6.57324 10.5156C6.75245 10.5156 6.90137 10.6645 6.90137 10.8438C6.90136 11.023 6.75245 11.1719 6.57324 11.1719H4.95605C4.77699 11.1717 4.62892 11.0228 4.62891 10.8438C4.62891 10.6646 4.77699 10.5158 4.95605 10.5156H6.57324ZM4.3916 1.2666C3.9809 1.26682 3.64453 1.6039 3.64453 2.01465V6.1709H4.13867V2.63086C4.13867 2.06263 4.59778 1.59863 5.16602 1.59863H6.36328C6.92714 1.59863 7.39062 2.06263 7.39062 2.63086V6.1709H7.88477V2.01465C7.88477 1.60377 7.5476 1.2666 7.13672 1.2666H4.3916ZM5.16113 2.25488C4.95577 2.25497 4.79004 2.42548 4.79004 2.63086V6.1709H6.73047V2.63086C6.73047 2.42119 6.56462 2.25511 6.35938 2.25488H5.16113Z" fill="black"/>
</svg>
