<svg width="24" height="28" viewBox="0 0 24 28" fill="none" xmlns="http://www.w3.org/2000/svg">
  <g clip-path="url(#clip0_99_563)">
    <mask id="mask0_99_563" style="mask-type:luminance" maskUnits="userSpaceOnUse" x="0" y="2"
      width="24" height="24">
      <path d="M0 2H23.6161V25.6161H0V2Z" fill="white" />
    </mask>
    <g mask="url(#mask0_99_563)">
      <path
        d="M11.8108 1.99707C10.7258 1.99707 9.95801 2.44275 9.40812 2.88493C8.85828 3.32731 8.46331 3.72906 7.75194 4.02366C7.04056 4.31847 6.48153 4.30656 5.78009 4.38255C5.07842 4.45872 4.22661 4.68925 3.4594 5.45645C2.6922 6.22385 2.46293 7.08133 2.38695 7.783C2.31096 8.48449 2.31554 9.04333 2.02092 9.75466C1.72612 10.4662 1.32441 10.861 0.882188 11.4108C0.439805 11.9609 0 12.7228 0 13.8081C0 14.8931 0.439819 15.6609 0.882188 16.2108C1.32439 16.7606 1.72613 17.1499 2.02092 17.8613C2.31554 18.5727 2.31096 19.1374 2.38695 19.8389C2.46294 20.5405 2.692 21.3924 3.4594 22.1596C4.22661 22.927 5.07842 23.1573 5.78009 23.2335C6.48158 23.3095 7.04061 23.3034 7.75194 23.598C8.46331 23.8928 8.85828 24.2945 9.40812 24.7368C9.95797 25.1791 10.7257 25.619 11.8108 25.619C12.8959 25.619 13.658 25.1791 14.2079 24.7368C14.7579 24.2946 15.1527 23.8928 15.8641 23.598C16.5755 23.3034 17.1345 23.3095 17.8359 23.2335C18.5376 23.1573 19.3894 22.927 20.1566 22.1596C20.924 21.3924 21.1545 20.5405 21.2305 19.8389C21.3065 19.1374 21.3006 18.5727 21.5953 17.8613C21.8899 17.1499 22.2916 16.7607 22.734 16.2108C23.1762 15.661 23.616 14.8932 23.616 13.8081C23.616 12.7228 23.1762 11.9609 22.734 11.4108C22.2916 10.861 21.8899 10.4662 21.5953 9.75466C21.3005 9.04328 21.3065 8.48444 21.2305 7.783C21.1545 7.08133 20.924 6.22385 20.1566 5.45645C19.3894 4.68925 18.5376 4.45872 17.8359 4.38255C17.1344 4.30656 16.5754 4.31846 15.8641 4.02366C15.1527 3.72905 14.7579 3.32734 14.2081 2.88493C13.658 2.44273 12.8961 1.99707 11.8108 1.99707ZM16.2015 10.0764C16.4006 10.0702 16.5937 10.1446 16.7369 10.283C16.8803 10.4212 16.9618 10.6115 16.9627 10.8107C16.9636 11.0099 16.884 11.2009 16.7421 11.3406L10.7543 17.328C10.6158 17.4671 10.4274 17.5455 10.2311 17.5455C10.0347 17.5455 9.84642 17.4671 9.70781 17.328L6.87553 14.4942C6.73271 14.3564 6.6516 14.167 6.65013 13.9687C6.64866 13.7704 6.72703 13.5798 6.86766 13.4399C7.00828 13.3 7.19944 13.2228 7.39777 13.2253C7.59607 13.2279 7.78485 13.3101 7.92202 13.4535L10.2312 15.7641L15.6954 10.2999C15.8289 10.1627 16.0102 10.0825 16.2015 10.0764Z"
        fill="#22E188" />
    </g>
  </g>
  <defs>
    <clipPath id="clip0_99_563">
      <rect width="23.6161" height="27.6161" fill="white" />
    </clipPath>
  </defs>
</svg>