<svg width="19" height="16" viewBox="0 0 19 16" fill="none" xmlns="http://www.w3.org/2000/svg">
<path d="M10.877 0.735352C11.4274 0.736076 11.9088 1.10615 12.0488 1.6377L12.4141 3.02637H16.6846C17.5765 3.02795 18.2991 3.75063 18.2998 4.64258V13.9229C18.2988 14.8146 17.5763 15.5365 16.6846 15.5381H1.93066C1.03878 15.5366 0.315416 14.8147 0.314453 13.9229V4.64258C0.315177 3.75055 1.03863 3.02782 1.93066 3.02637H6.2002L6.56641 1.6377C6.70646 1.10624 7.18695 0.736077 7.7373 0.735352H10.877ZM1.93066 3.60645C1.35919 3.60717 0.895256 4.0711 0.894531 4.64258V13.9229C0.895502 14.494 1.35858 14.957 1.92969 14.958H3.19336V9.11328C2.86853 9.09653 2.61401 8.82876 2.61328 8.50391V6.86719C2.61411 6.53016 2.88662 6.25774 3.22363 6.25684H4.8916V3.60645H3.77344V5.41797C3.7733 5.57813 3.64359 5.70801 3.4834 5.70801C3.32331 5.70789 3.19349 5.57806 3.19336 5.41797V3.60645H1.93066ZM3.77344 9.11523V14.958H4.8916V9.11523H3.77344ZM5.47168 3.60742V6.25879C5.79568 6.27552 6.05085 6.54249 6.05176 6.86719V8.50391C6.05103 8.82877 5.7958 9.09654 5.47168 9.11328V14.958H13.1426V10.2139C13.1426 10.0537 13.2725 9.92407 13.4326 9.92383C13.5929 9.92383 13.7236 10.0536 13.7236 10.2139V14.958H14.8408V9.11523H13.1738C12.8366 9.11451 12.5632 8.84114 12.5625 8.50391V6.86719C12.5634 6.54259 12.8187 6.27567 13.1426 6.25879V3.60742H5.47168ZM15.4209 3.60645V6.25781C15.7457 6.27448 16.0001 6.54241 16.001 6.86719V8.50391C16.0003 8.8288 15.7458 9.09658 15.4209 9.11328V14.958H16.6846C17.2557 14.9571 17.7188 14.494 17.7197 13.9229V4.64258C17.719 4.07122 17.2559 3.60736 16.6846 3.60645H15.4209ZM3.22363 6.83691C3.20722 6.83716 3.19347 6.85075 3.19336 6.86719V8.50391C3.19336 8.52044 3.20715 8.53491 3.22363 8.53516H5.44141C5.45792 8.53495 5.47168 8.52046 5.47168 8.50391V6.86719C5.47157 6.85072 5.45785 6.83712 5.44141 6.83691H3.22363ZM13.1738 6.83691C13.1572 6.83691 13.1427 6.8506 13.1426 6.86719V8.50391C13.1426 8.52059 13.1571 8.53516 13.1738 8.53516H15.3906C15.4072 8.53502 15.4209 8.5205 15.4209 8.50391V6.86719C15.4208 6.85068 15.4071 6.83705 15.3906 6.83691H13.1738ZM13.7227 3.60645V6.25684H14.8408V3.60645H13.7227ZM7.7373 1.31543C7.45083 1.31617 7.19948 1.50909 7.12695 1.78613L6.7998 3.02734H11.8135L11.4873 1.78613C11.4148 1.50909 11.1634 1.31616 10.877 1.31543H7.7373Z" fill="black"/>
</svg>
