<svg width="11" height="16" viewBox="0 0 11 16" fill="none" xmlns="http://www.w3.org/2000/svg">
<path d="M9.6643 8.61744H9.26661C9.22786 6.88632 8.86892 0.819336 5.76562 0.819336C4.26039 0.819336 3.21572 2.2383 2.65428 5.03018C2.35821 6.49592 2.28803 7.93903 2.26463 8.61744H1.86694C1.21997 8.61744 0.697266 9.14015 0.697266 9.78712V14.4658C0.697266 15.1128 1.21997 15.6355 1.86694 15.6355H9.66505C10.312 15.6355 10.8347 15.1128 10.8347 14.4658V9.78712C10.834 9.14015 10.312 8.61744 9.6643 8.61744ZM5.76562 1.59937C7.87104 1.59937 8.43249 6.34826 8.48732 8.61744H3.04392C3.09875 6.34826 3.6602 1.59937 5.76562 1.59937ZM1.86694 9.39747H9.66505C9.88364 9.39747 10.0547 9.56927 10.0547 9.78712V11.0818C8.2841 11.7756 7.02887 12.1265 5.77367 12.1265H5.76563H5.75759C4.50238 12.1265 3.24643 11.7756 1.47656 11.0818V9.78712C1.47656 9.56926 1.64837 9.39747 1.86694 9.39747ZM9.6643 14.8562H1.86694C1.64835 14.8562 1.4773 14.6844 1.4773 14.4666V11.9167C3.02932 12.5096 4.22239 12.8371 5.37598 12.8992V13.6865C5.37598 13.9051 5.54777 14.0762 5.76562 14.0762C5.98421 14.0762 6.15526 13.9044 6.15526 13.6865V12.8992C7.3096 12.8371 8.50267 12.5096 10.0539 11.9167L10.0547 14.4658C10.0547 14.6844 9.88288 14.8562 9.6643 14.8562Z" fill="black"/>
</svg>
