<?xml version="1.0" encoding="UTF-8"?>
<svg width="100pt" height="100pt" version="1.1" viewBox="0 0 100 100" xmlns="http://www.w3.org/2000/svg">
 <path d="m83.281 87.312-70.594-70.594c-7.8906 8.8398-12.688 20.5-12.688 33.281 0 27.613 22.387 50 50 50 12.781 0 24.441-4.7969 33.281-12.688m-57.516-33.902-5.9727-17.938 11.875 11.062h7.0508l28.172 28.172v4.3047h-8.1133l-1.8203-13.996h-21.258l-1.8203 13.996h-8.1094v-25.602zm74.234-3.4102c0-27.613-22.387-50-50-50-12.781 0-24.441 4.7969-33.281 12.688l32.211 32.211 12.309-23.91 2.4883 6.2383 2.25-4.2109 2.9023 7.2734 11.324 7.0078-3.4648 7.5547-9.8516-0.41406v18.422l20.43 20.43c7.8867-8.8477 12.684-20.508 12.684-33.289z" fill-rule="evenodd"/>
</svg>
