<?xml version="1.0" encoding="UTF-8"?>
<svg width="100pt" height="100pt" version="1.1" viewBox="0 0 100 100" xmlns="http://www.w3.org/2000/svg">
 <path d="m47.918 43.352v14.98h-14.582c-1.1484 0-2.082 0.93359-2.082 2.082 0 1.1484 0.93359 2.082 2.082 2.082h14.582v25h-8.332c-1.1484 0-2.082 0.93359-2.082 2.082s0.93359 2.082 2.082 2.082h20.832c1.1484 0 2.082-0.93359 2.082-2.082s-0.93359-2.082-2.082-2.082h-8.332v-25h14.582c1.1484 0 2.082-0.93359 2.082-2.082 0-1.1484-0.93359-2.082-2.082-2.082h-14.582v-14.98c0.76953-0.30469 1.4805-0.76953 2.082-1.3672 1.1172 1.1055 2.5898 1.7656 4.168 1.7656 1.5781 0 3.0469-0.66016 4.168-1.7656 1.1172 1.1055 2.5898 1.7656 4.168 1.7656s3.0469-0.66016 4.168-1.7656c1.1172 1.1055 2.5898 1.7656 4.168 1.7656 1.5781 0 3.0469-0.66016 4.168-1.7656 1.1172 1.1055 2.5898 1.7656 4.168 1.7656 3.2148 0 5.9961-2.7539 6.2344-6.3906 0.58203-3.6172-1.2266-7.2305-4.293-8.9961l-33.195-19.148c-1.2891-0.74219-2.875-0.74219-4.1641 0-4.3594 2.5156-21.465 12.383-33.191 19.254-2.9648 1.7109-4.6602 5.0195-4.3125 8.4375 0.019531 3.8594 2.8984 6.8477 6.25 6.8477 1.5781 0 3.0469-0.66016 4.168-1.7656 1.1172 1.1055 2.5898 1.7656 4.168 1.7656 1.5781 0 3.0469-0.66016 4.168-1.7656 1.1172 1.1055 2.5898 1.7656 4.168 1.7656s3.0469-0.66016 4.168-1.7656c1.1172 1.1055 2.5898 1.7656 4.168 1.7656 1.5781 0 3.0469-0.66016 4.168-1.7656 0.60547 0.59766 1.3125 1.0625 2.082 1.3672z" fill-rule="evenodd"/>
 <path d="m12.5 76.504v13.078c0 1.1484 0.93359 2.082 2.082 2.082 1.1484 0 2.082-0.93359 2.082-2.082v-8.332h12.5v8.332c0 1.1484 0.93359 2.082 2.082 2.082 1.1484 0 2.082-0.93359 2.082-2.082v-14.582c0-3.4531-2.7969-6.25-6.25-6.25h-11.59l-3.0156-19.074c-0.17969-1.1367-1.2461-1.9141-2.3828-1.7344-1.1367 0.17969-1.9141 1.2461-1.7344 2.3828l4.1406 26.18z" fill-rule="evenodd"/>
 <path d="m84.508 68.75h-11.59c-3.4531 0-6.25 2.7969-6.25 6.25v14.582c0 1.1484 0.93359 2.082 2.082 2.082s2.082-0.93359 2.082-2.082v-8.332h12.5v8.332c0 1.1484 0.93359 2.082 2.082 2.082 1.1484 0 2.082-0.93359 2.082-2.082v-13.078l4.1406-26.18c0.17969-1.1367-0.59766-2.2031-1.7344-2.3828-1.1367-0.17969-2.2031 0.59766-2.3828 1.7344l-3.0156 19.074z" fill-rule="evenodd"/>
</svg>
