<?xml version="1.0" encoding="UTF-8"?>
<svg width="100pt" height="100pt" version="1.1" viewBox="0 0 100 100" xmlns="http://www.w3.org/2000/svg">
 <path d="m23.188 78.359h-0.015625c-0.1875 0.09375-0.40625 0.14062-0.625 0.14062h1.1875c-0.1875-0.015625-0.375-0.0625-0.54688-0.14062z"/>
 <path d="m7.1562 78.5h92.844v5.5156h-92.844z"/>
 <path d="m22.547 75.375h-0.15625v-0.015625c0.046875 0.015625 0.10938 0.015625 0.15625 0.015625z"/>
 <path d="m22.547 75.375h-0.15625v-0.015625c0.046875 0.015625 0.10938 0.015625 0.15625 0.015625z"/>
 <path d="m13.219 65.062h-0.15625c-6.6719 0-12.375-5.1094-12.969-11.875l-0.046875-0.5625c-0.32812-3.625 0.90625-7.25 3.375-9.9375 2.0781-2.2656 4.8906-3.7344 7.9375-4.125l0.20312 3.125c-2.25 0.32812-4.2812 1.4062-5.8438 3.1094-1.9062 2.0625-2.7969 4.75-2.5625 7.5625l0.046875 0.54688c0.45312 5.125 4.75 8.9844 9.7812 9.0469z"/>
 <path d="m38.25 31.016c-0.4375 0-0.875-0.1875-1.1719-0.53125l-0.84375-0.96875c-1.6562-1.9062-1.8281-4.6875-0.40625-6.7812 0.5625-0.82812 0.5625-1.9375-0.015625-2.7656l-1.0781-1.5469c-0.5-0.70312-0.32812-1.6875 0.375-2.1719 0.70312-0.5 1.6875-0.32812 2.1719 0.375l1.0781 1.5469c1.3125 1.875 1.3438 4.4219 0.046875 6.3125-0.625 0.90625-0.54688 2.125 0.17188 2.9531l0.84375 0.96875c0.5625 0.65625 0.5 1.6406-0.14062 2.2031-0.29688 0.28125-0.67188 0.40625-1.0312 0.40625z"/>
 <path d="m27.188 31.016c-0.4375 0-0.875-0.1875-1.1719-0.53125l-0.84375-0.96875c-1.6562-1.9062-1.8281-4.6875-0.40625-6.7812 0.5625-0.82812 0.5625-1.9375-0.015625-2.7656l-1.0781-1.5469c-0.5-0.70312-0.32812-1.6875 0.375-2.1719 0.70312-0.5 1.6875-0.32812 2.1719 0.375l1.0781 1.5469c1.3125 1.875 1.3438 4.4219 0.046875 6.3125-0.625 0.90625-0.54688 2.125 0.17188 2.9531l0.84375 0.96875c0.5625 0.65625 0.5 1.6406-0.14062 2.2031-0.29688 0.28125-0.67188 0.40625-1.0312 0.40625z"/>
 <path d="m38.438 75.375h-12.891c0.46875-4.3281 1.875-8.4688 4.0938-12.203z"/>
 <path d="m51.484 75.375h-9.2031l-10.812-14.969c0.875-1.1562 1.7969-2.25 2.8281-3.2812 2.8281-2.8594 6.1719-5.0781 9.7656-6.5938z"/>
 <path d="m49.453 34.297v11.375c-1.625 0.3125-3.2344 0.75-4.7812 1.3125-0.015625 0.015625-0.015625 0.015625-0.03125 0.015625-0.078125 0.015625-0.15625 0.046875-0.23438 0.09375-4.5625 1.625-8.75 4.2812-12.297 7.8281-1.3906 1.3906-2.625 2.8906-3.7344 4.4688-0.015625 0.015625-0.03125 0.03125-0.03125 0.046875-0.078125 0.078125-0.14062 0.17188-0.1875 0.28125-3.1875 4.6406-5.1719 10.016-5.75 15.656-3.0156-0.0625-5.5-2.4375-5.7031-5.4531l-0.46875-6.6406-1.6406-23.234v-0.03125c0-0.10938-0.015625-0.20312-0.03125-0.3125l-0.375-5.4062z"/>
 <path d="m73.703 49.578-7.7188 25.797h-11.25l-7.7188-25.906c1.375-0.42188 2.7656-0.73438 4.1875-0.95312 0.0625 0 0.14062-0.015625 0.20312-0.03125 1.5-0.21875 3.0156-0.34375 4.5469-0.34375h8.4688c3.2344 0 6.3438 0.5 9.2812 1.4375z"/>
 <path d="m89.109 60.625-10.656 14.766h-9.2188l7.3906-24.703c4.9844 2.1562 9.2969 5.5938 12.484 9.9375z"/>
 <path d="m94.875 75.375h-12.562l8.6406-11.969c2.0625 3.5938 3.4531 7.6406 3.9219 11.969z"/>
</svg>
