<?xml version="1.0" encoding="UTF-8"?>
<svg width="100pt" height="100pt" version="1.1" viewBox="0 0 100 100" xmlns="http://www.w3.org/2000/svg">
 <path d="m59 56.75h36v-3.375c0-9.9375-8.0625-18-18-18s-17.996 8.0586-17.996 18z" fill-rule="evenodd"/>
 <path d="m86 72.5c1.0469 0 1.9258-0.71484 2.1797-1.6836l4.5703-11.816h-31.5l4.6055 11.93c0.28906 0.91016 1.1406 1.5703 2.1445 1.5703z" fill-rule="evenodd"/>
 <path d="m16.25 27.5v6.75h-4.5c-3.7266 0-6.75 3.0234-6.75 6.75s3.0234 6.75 6.75 6.75h4.5v2.25c0 8.6953 7.0547 15.75 15.75 15.75s15.75-7.0547 15.75-15.75v-22.5zm0 18h-4.5c-2.4844 0-4.5-2.0156-4.5-4.5s2.0156-4.5 4.5-4.5h4.5z" fill-rule="evenodd"/>
 <path d="m9.5 68h45v2.25c0 1.2422-1.0078 2.25-2.25 2.25h-40.5c-1.2422 0-2.25-1.0078-2.25-2.25z" fill-rule="evenodd"/>
</svg>
