<?xml version="1.0" encoding="UTF-8"?>
<svg width="100pt" height="100pt" version="1.1" viewBox="0 0 100 100" xmlns="http://www.w3.org/2000/svg">
 <path d="m42.422 21.312v-3.1094h3.375c0.23438 0 0.45312-0.10938 0.59375-0.28125 0.90625-0.95312 2.0938-3.1719 3.6562-3.0625 1.6406-0.125 2.8594 2.0938 3.8594 3.0781 0.15625 0.17188 0.35938 0.26562 0.59375 0.26562h3.0781v3.1094c-0.35938 10.031-14.797 10.031-15.156 0zm34.703 16.312c5.6719 0 10.281-4.6094 10.281-10.266v-4.3594h-4.3281c-0.21875 0-0.4375-0.09375-0.59375-0.26562-1.6562-1.6719-2.8281-4.2031-5.2969-4.1562-2.2344-0.125-3.7344 2.7344-5.0156 4.125-0.15625 0.1875-0.375 0.29688-0.60938 0.29688h-4.7031v4.3594c0 5.6562 4.6094 10.266 10.266 10.266zm-30.234 9.5625 2.2812-0.15625-0.15625-2.2656c-0.29688-4.7344-4.3906-8.3438-9.125-8.0312l-2.2812 0.14062 0.14062 2.2812c0.3125 4.7344 4.4219 8.3281 9.1406 8.0312zm4.0938-2.4219-0.15625 2.2656 2.2812 0.15625c4.75 0.3125 8.8281-3.2969 9.1406-8.0312l0.14062-2.2812-2.2812-0.14062c-4.7188-0.3125-8.8281 3.2969-9.125 8.0312zm-4.0938 23.375 2.2812-0.14062-0.15625-2.2812c-0.29688-4.7344-4.3906-8.3438-9.125-8.0312l-2.2812 0.15625 0.14062 2.2812c0.3125 4.7188 4.4219 8.3438 9.1406 8.0156zm4.0938-2.4219-0.15625 2.2812 2.2812 0.14062c4.75 0.32812 8.8281-3.2969 9.1406-8.0156l0.14062-2.2812-2.2812-0.15625c-4.7031-0.3125-8.8281 3.2969-9.125 8.0312zm16.812-11.109c2.2969 2.1719 5.5156 2.3438 8.5 1.9844l-0.14062-2.2812c-0.3125-4.7344-4.3906-8.3281-9.1406-8.0312l-2.2812 0.15625c0.046875 3.0312 0.57812 6.1406 3.0625 8.1719zm19.438-8.3281c-4.7344-0.29688-8.8281 3.2969-9.125 8.0312l-0.14062 2.2812c6.9375 1.1719 11.844-3.1094 11.547-10.156zm-64.359-8.6562c5.6562 0 10.266-4.6094 10.266-10.266v-4.3594h-4.7031c-0.23438 0-0.45312-0.10938-0.60938-0.29688-1.2812-1.4062-2.7812-4.25-5.0156-4.125-2.375-0.14062-3.6719 2.5156-5.2969 4.1562-0.15625 0.17188-0.375 0.26562-0.59375 0.26562h-4.3281v4.3594c0 5.6562 4.6094 10.266 10.281 10.266zm0.96875 16.688-0.14062 2.2812c6.9688 1.1719 11.828-3.0938 11.562-10.156l-2.2812-0.15625c-4.7344-0.29688-8.8281 3.2969-9.1406 8.0312zm-4.0781 2.4219 2.2656-0.14062-0.14062-2.2812c-0.29688-4.7344-4.3906-8.3281-9.125-8.0312l-2.2812 0.15625 0.14062 2.2656c0.21875 4.625 4.5156 8.4062 9.1406 8.0312zm67.047 26.844h-8.9062v-44.438c-0.5 0.0625-1.0625 0.0625-1.5625 0v44.438h-25.562v-53.156c-0.5 0.046875-1.0625 0.046875-1.5625 0v53.156h-25.562v-44.438c-0.5 0.0625-1.0625 0.0625-1.5625 0v44.438h-8.9062c-1 0-1.0469 1.5625 0 1.5625h73.609c0.98438 0 1.0469-1.5625 0-1.5625z"/>
</svg>
