<?xml version="1.0" encoding="UTF-8"?>
<svg width="100pt" height="100pt" version="1.1" viewBox="0 0 100 100" xmlns="http://www.w3.org/2000/svg">
 <path d="m21.82 22.223c3.2109 0 5.8164 2.6094 5.8164 5.8164 0 3.2266-2.625 5.8164-5.8164 5.8164-3.207 0-5.8164-2.6055-5.8164-5.8164 0-3.2539 2.6406-5.8164 5.8164-5.8164m5.1445 13.863 5.4141 2.0547v16.539l-4.1328 2.5664-3.6328 20.535h-5.5859l-3.6367-20.535-4.1367-2.7969v-16.305l5.3945-2.0586 5.168 5.9805zm29.395-8.4258c0 3.0039-2.4414 5.4453-5.4414 5.4453-2.9844 0-5.4414-2.4258-5.4414-5.4453 0-3.0273 2.4609-5.4414 5.4414-5.4414 3.0195 0.003906 5.4414 2.457 5.4414 5.4414zm-9.6445 8.5391 4.2344 4.3203 4.1367-4.3203 3.0586 0.71094 4.7148 24.383-7.3594 2.4453-1.6602 14.043h-5.7852l-1.7773-14.043-7.2422-2.4453 4.6016-24.379zm31.461 2.5312h21.824l-10.914-15.098zm21.824 22.543h-21.824l10.914 15.098zm-26.055 25.699v-73.945h-73.945v73.945z" fill-rule="evenodd"/>
</svg>
