<?xml version="1.0" encoding="UTF-8"?>
<svg width="100pt" height="100pt" version="1.1" viewBox="0 0 100 100" xmlns="http://www.w3.org/2000/svg">
 <path d="m39.52 66.258v18.781h-24.508v-18.781c0-5.4805 1.1875-9.4805 3.2969-14.457 1.9453-4.5781 3.9336-9.2617 3.7109-25l-0.007812-4.0273h-0.72266v-3.8789h2.8555v-2.0898h5.9102v2.0898h3.2422v3.875h-0.78125l-0.007813 4.0273c-0.21875 15.738 1.7695 20.422 3.7109 25 2.1094 4.9766 3.3008 8.9805 3.3008 14.461m20.09-35.684v12.488l4.457 8.4375v33.539h-17.992v-33.539l4.457-8.4375v-12.488zm-23.969 46.043v-10.359c0-1.6484-0.11719-3.2891-0.39844-4.9141h-15.961c-0.30469 1.5977-0.39844 3.2891-0.39844 4.9141v10.359zm25.332-0.25781v-20.195h-11.805v20.191zm28.793-33.539v-25.414h3.4141v25.414zm0 53.805v-48.645h8.5742v-35.734h-8.5742v-12.246h-11.988v96.625zm-17.84 0v-96.625h-70.266v96.625h8.5898v3.375h8.0273v-3.375h42.883v3.375h8.0273v-3.375z" fill-rule="evenodd"/>
</svg>
