<?xml version="1.0" encoding="UTF-8"?>
<svg width="100pt" height="100pt" version="1.1" viewBox="0 0 100 100" xmlns="http://www.w3.org/2000/svg">
 <path d="m43.656 18.793c-0.94141-7.3594-2.0977-13.707-2.1055-13.77-0.089843-0.49609-0.52344-0.85547-1.0234-0.85547h-21.168c-0.50391 0-0.93359 0.35938-1.0234 0.85547-0.011719 0.0625-1.1641 6.4141-2.1094 13.77-1.2539 9.7305-1.5625 16.613-0.92187 20.457 2.0273 11.555 11.82 14.367 12.527 14.48v27.66c0 1.0156-0.72656 1.875-1.7227 2.0703-2.6055 0.50391-5.4375 1.9883-6.6953 2.707-0.1875 0.10547-0.10937 0.39453 0.10547 0.39453 5.1953-0.003906 15.652 0.003906 20.852 0 1.4219-0.30859-5.1797-2.9492-6.5898-3.0977-0.99609-0.19141-1.7227-1.0508-1.7227-2.0703v-27.66c0.65234-0.082031 10.535-2.957 12.527-14.48 0.64062-3.8438 0.33203-10.727-0.92188-20.457zm-23.426-12.543h19.418c0.32031 1.832 1.0898 6.3867 1.7852 11.633h-22.992c0.69531-5.2461 1.4688-9.8047 1.7852-11.633z"/>
 <path d="m85.383 91.445c-1.3711-0.46094-4.4336-1.3789-7.0898-1.3789-1.0156 0-1.8945-0.70312-2.0859-1.7031l-5.2773-27.148c0.57812-0.19141 9.8086-4.9219 9.5312-16.613-0.074219-3.0391-1.1016-7.875-3.0508-14.367-2.7461-9.1445-6.418-18.559-6.4531-18.652-0.18359-0.46875-0.67578-0.73828-1.168-0.64453l-20.777 4.0391c-0.49219 0.097657-0.84766 0.53125-0.84375 1.0352 0 0.066406 0.082031 6.9062 0.59375 14.59 0.64062 9.4414 1.6367 16.035 2.9648 19.594 4.1602 10.934 14.391 11.859 15.059 11.82l5.2773 27.152c0.19531 0.99609-0.35547 1.9805-1.2969 2.3594-2.4648 0.99219-4.9609 2.9922-6.0586 3.9336-0.16406 0.14062-0.035156 0.40625 0.17969 0.36719 5.1016-0.99219 15.367-2.9883 20.465-3.9766 0.21484-0.042968 0.23438-0.33594 0.027344-0.40625zm-16.055-78.293c0.88672 2.3203 3.4922 9.2695 5.6797 16.34h-24.227c-0.35547-5.6445-0.47656-10.676-0.51172-12.633l19.062-3.707z"/>
</svg>
