<?xml version="1.0" encoding="UTF-8"?>
<svg width="100pt" height="100pt" version="1.1" viewBox="0 0 100 100" xmlns="http://www.w3.org/2000/svg">
 <path d="m63.559 18.859c0.003906 0 0.007812 0.003906 0.011718 0.003906 0.28125-0.003906 0.51172-0.23438 0.51172-0.51562v-6.8633c0-4.3047-3.5039-7.8086-7.8086-7.8086h-12.559c-4.3047 0-7.8086 3.5039-7.8086 7.8086v6.8594c0 0.28125 0.23047 0.51172 0.51172 0.51562 0.003906 0 0.007812-0.003906 0.007812-0.003906 0.003907 0 0.007813 0.003906 0.015625 0.003906h3.6328c0.003906 0 0.007812-0.003906 0.015625-0.003906h0.003906c0.28125-0.003907 0.50781-0.23438 0.50781-0.51562v-5.6055c0-3.0977 2.5195-5.6172 5.6172-5.6172h7.5508c3.0977 0 5.6172 2.5195 5.6172 5.6172v5.6094c0 0.28125 0.22656 0.50781 0.50781 0.51562h0.003907c0.003906 0 0.007812 0.003906 0.015624 0.003906h3.6328c0.003906-0.003906 0.007813-0.003906 0.011719-0.003906z"/>
 <path d="m60.641 96.324h4.8828c0.20312 0 0.375-0.17188 0.375-0.375v-2.7109h-5.6328v2.7109c0 0.20312 0.17188 0.375 0.375 0.375z"/>
 <path d="m60.633 20.332h2.1914v9.2031h-2.1914z"/>
 <path d="m34.477 96.324h4.8828c0.20312 0 0.375-0.17188 0.375-0.375v-2.7109h-5.6328v2.7109c0 0.20312 0.17188 0.375 0.375 0.375z"/>
 <path d="m37.344 39.148c-0.92188 0-1.6719 0.75-1.6719 1.6719v41.137c0 0.92188 0.75 1.6719 1.6719 1.6719s1.6719-0.75 1.6719-1.6719v-41.137c0-0.44922-0.17188-0.86328-0.48828-1.1719-0.32031-0.32422-0.73438-0.5-1.1836-0.5z"/>
 <path d="m50 39.148c-0.92188 0-1.6719 0.75-1.6719 1.6719v41.137c0 0.92188 0.75 1.6719 1.6719 1.6719s1.6719-0.75 1.6719-1.6719v-41.137c0-0.44922-0.17188-0.86719-0.48828-1.1719-0.32031-0.32422-0.73438-0.5-1.1836-0.5z"/>
 <path d="m66.652 91.77h1.4883c3.8789 0 7.0312-3.1562 7.0312-7.0312v-46.703c0-3.8789-3.1562-7.0312-7.0312-7.0312h-36.277c-3.8789 0-7.0312 3.1562-7.0312 7.0312v46.699c0 3.8789 3.1562 7.0312 7.0312 7.0312h1.4883c0.007813 0 0.011719-0.003906 0.019532-0.003906h7.1016c0.007813 0 0.011719 0.003906 0.019532 0.003906h19.027c0.007813 0 0.011719-0.003906 0.019531-0.003906h7.1016c0 0.003906 0.003906 0.007812 0.011719 0.007812zm-26.164-9.8125c0 1.7344-1.4102 3.1445-3.1445 3.1445s-3.1445-1.4102-3.1445-3.1445v-41.137c0-1.7344 1.4102-3.1445 3.1445-3.1445 0.84766 0 1.6367 0.33203 2.2227 0.93359 0.58594 0.57422 0.91797 1.3633 0.91797 2.2109zm12.656 0c0 1.7344-1.4102 3.1445-3.1445 3.1445s-3.1445-1.4102-3.1445-3.1445v-41.137c0-1.7344 1.4102-3.1445 3.1445-3.1445 0.84766 0 1.6367 0.33203 2.2227 0.93359 0.58594 0.57422 0.91797 1.3633 0.91797 2.2109zm12.652 0c0 1.7344-1.4102 3.1445-3.1445 3.1445s-3.1445-1.4102-3.1445-3.1445v-41.137c0-1.7344 1.4102-3.1445 3.1445-3.1445 0.84766 0 1.6367 0.33203 2.2227 0.93359 0.58594 0.57422 0.91797 1.3633 0.91797 2.2109z"/>
 <path d="m62.656 39.148c-0.92188 0-1.6719 0.75-1.6719 1.6719v41.137c0 0.92188 0.75 1.6719 1.6719 1.6719s1.6719-0.75 1.6719-1.6719v-41.137c0-0.44922-0.17188-0.86719-0.48828-1.1719-0.32031-0.32422-0.73438-0.5-1.1836-0.5z"/>
 <path d="m37.164 20.332h2.1914v9.2031h-2.1914z"/>
</svg>
