<?xml version="1.0" encoding="UTF-8"?>
<svg width="100pt" height="100pt" version="1.1" viewBox="0 0 100 100" xmlns="http://www.w3.org/2000/svg">
 <path d="m83.48 59.375c-0.007813 0.48828-0.39844 0.87891-0.88672 0.88672h-48.824c-0.48828 0-0.88281-0.39844-0.88281-0.88672 0-3.9727 3.2148-7.1914 7.1875-7.1992h36.207c3.9727 0.007813 7.1914 3.2266 7.1992 7.1992zm-41.074 12.562v-5.875c0-0.48828-0.39453-0.88672-0.88672-0.88672-0.48828 0-0.88281 0.39844-0.88281 0.88672v5.875c0 0.48828 0.39453 0.88672 0.88281 0.88672 0.49219 0 0.88672-0.39844 0.88672-0.88672zm11.051 0v-5.875c0-0.48828-0.39453-0.88672-0.88281-0.88672-0.49219 0-0.88672 0.39844-0.88672 0.88672v5.875c0 0.48828 0.39453 0.88672 0.88672 0.88672 0.48828 0 0.88281-0.39844 0.88281-0.88672zm11.062 0v-5.875c0-0.48828-0.39453-0.88672-0.88281-0.88672-0.49219 0-0.88672 0.39844-0.88672 0.88672v5.875c0 0.48828 0.39453 0.88672 0.88672 0.88672 0.48828 0 0.88281-0.39844 0.88281-0.88672zm11.207 0 0.003907-5.875c0-0.48828-0.39844-0.88672-0.88672-0.88672s-0.88672 0.39844-0.88672 0.88672v5.8633c0 0.49219 0.39844 0.88672 0.88672 0.88672s0.88672-0.39453 0.88672-0.88672zm-33.332 13.406v-5.875c0-0.48828-0.39453-0.88672-0.88281-0.88672-0.49219 0-0.88672 0.39844-0.88672 0.88672v5.8633c0 0.49219 0.39453 0.88672 0.88672 0.88672 0.48828 0 0.88281-0.39453 0.88281-0.88672zm11.051 0 0.003907-5.875c0-0.48828-0.39844-0.88672-0.88672-0.88672s-0.88672 0.39844-0.88672 0.88672v5.8633c0 0.49219 0.39844 0.88672 0.88672 0.88672s0.88672-0.39453 0.88672-0.88672zm11.062 0 0.003907-5.875c0-0.48828-0.39844-0.88672-0.88672-0.88672s-0.88672 0.39844-0.88672 0.88672v5.8633c0 0.49219 0.39844 0.88672 0.88672 0.88672s0.88672-0.39453 0.88672-0.88672zm11.207 0 0.003906-5.875c0-0.48828-0.39453-0.88672-0.88672-0.88672-0.48828 0-0.88281 0.39844-0.88281 0.88672v5.8633c0 0.49219 0.39453 0.88672 0.88281 0.88672 0.49219 0 0.88672-0.39453 0.88672-0.88672zm-22.152-53.895c1.5156-0.32812 3.0625-0.49219 4.6133-0.49219 1.5469 0 3.0859 0.16016 4.5938 0.48047-0.046875-8.2617-4.4961-15.871-11.676-19.961-7.1758-4.0898-15.992-4.043-23.125 0.12891-7.1289 4.1719-11.496 11.832-11.449 20.094v55.133c0 2.543 2.0625 4.6055 4.6055 4.6055s4.6055-2.0625 4.6055-4.6055v-55.133c-0.070313-7.6875 6.1055-13.973 13.789-14.043 7.6875-0.070312 13.973 6.1055 14.043 13.793zm-13.543 18.918 36.262-0.003907c0.70312 0 1.4023 0.085938 2.082 0.25-0.79688-6.625-4.8008-12.434-10.711-15.535-5.9062-3.1016-12.961-3.1016-18.867 0-5.9102 3.1016-9.9141 8.9102-10.711 15.535 0.65234-0.15625 1.3242-0.24219 2-0.25z"/>
</svg>
