<?xml version="1.0" encoding="UTF-8"?>
<svg width="100pt" height="100pt" version="1.1" viewBox="0 0 100 100" xmlns="http://www.w3.org/2000/svg">
 <path d="m30.691 54.727h69.309v35.633h-69.309z"/>
 <path d="m84.16 28.109c-6.7891 0-12.387 4.3711-13.234 10.027h26.465c-0.83984-5.6562-6.4414-10.027-13.23-10.027z"/>
 <path d="m68.609 39.512v2.0664h2.4023c0.32031 1.6094 1.0273 3.1094 2.0391 4.418v7.2148h2.3867v-4.8867c2.3398 1.7461 5.3867 2.8047 8.7266 2.8047 3.3359 0 6.3828-1.0586 8.7266-2.8047v4.8867h2.3867v-7.2188c1.0117-1.3086 1.7188-2.8047 2.0391-4.4141h2.4023v-2.0664z"/>
 <path d="m86.305 24.742c0 2.8555-4.2852 2.8555-4.2852 0 0-2.8594 4.2852-2.8594 4.2852 0"/>
 <path d="m44.836 35.195c2.3125 0.16406 4.3125 0.30859 4.3125 2.0352 0 0.33203-0.089844 0.63281-0.25391 0.90234h13.598c-0.83984-5.6523-6.4414-10.023-13.23-10.023-5.4688 0-10.168 2.8398-12.23 6.8984 0.39844-0.003906 0.80078-0.007812 1.2148-0.007812 2.5039 0 4.8438 0.070312 6.5898 0.19531z"/>
 <path d="m46.91 39.512c-1.4805 0.54688-3.5273 0.82031-5.6523 0.94141 0.25391 0.48047 0.42188 1.0117 0.48438 1.5781 0.25391 2.3125-1.3398 4.4062-3.5938 4.8164v6.3633h2.3867v-4.8867c2.3398 1.7461 5.3867 2.8047 8.7266 2.8047 3.3359 0 6.3828-1.0586 8.7266-2.8047v4.8867h2.3867v-7.2188c1.0117-1.3086 1.7188-2.8047 2.0391-4.4141h2.4023v-2.0664z"/>
 <path d="m51.406 24.742c0 2.8555-4.2852 2.8555-4.2852 0 0-2.8594 4.2852-2.8594 4.2852 0"/>
 <path d="m33.516 37.953c0.58984 0.14453 1.4062 0.22656 2.2109 0.22656h0.039063c0.65234 0 1.1172-0.046876 1.1211-0.046876 0.15625-0.015624 0.32031-0.027343 0.48047-0.027343 1.2539 0 2.3945 0.52734 3.1992 1.3789h1.0156v-0.53906c3.5625-0.26172 6.0977-0.92969 6.0977-1.7148 0-0.72656-9.7344-0.93359-15.219-0.61328 0.17187 0.57812 0.36328 0.94141 0.50781 1.1562 0.10547 0.046874 0.28906 0.125 0.54688 0.17969z"/>
 <path d="m25.234 21.953c1.3594-1.4727 2.1875-3.4375 2.1875-5.6016 0-4.5664-3.6992-8.2656-8.2656-8.2656s-8.2656 3.6992-8.2656 8.2656c0 2.1523 0.82422 4.1133 2.1719 5.582h11.902c0.089844 0.003906 0.17969 0.015625 0.26953 0.019531z"/>
 <path d="m6.0195 36.129c-0.097656-0.25391-0.14062-0.49609-0.14453-0.78516 0-0.23438 0.039062-0.50391 0.11719-0.79688 0.089843-0.34375 0.23047-0.72266 0.44531-1.1211 0.35547-0.68359 0.89453-1.3945 1.4961-2.0234v55.969c0 2.5078 2.0352 4.543 4.543 4.543 2.5078 0 4.543-2.0312 4.543-4.543v-33.16h1.7031v33.16c0 2.5078 2.0352 4.543 4.543 4.543s4.543-2.0312 4.543-4.543l-0.003906-44.363c1.2422 1.2383 2.7148 1.7656 4.0156 2.0938 1.4805 0.35547 2.8711 0.42188 3.9414 0.42578 1.0938 0 1.8438-0.082032 1.9219-0.089844 1.6133-0.17578 2.7773-1.6289 2.6016-3.2422-0.17578-1.6133-1.6289-2.7773-3.2422-2.6016-0.066407 0.007812-0.58203 0.054688-1.2773 0.054688-0.77344 0.003906-1.7773-0.066407-2.5625-0.26172-0.80859-0.17969-1.2656-0.51562-1.2656-0.55859-0.51953-0.63281-0.91406-1.6172-1.1328-2.8984-0.34766-1.918-0.25781-4.2891-0.34766-6.4336-0.066406-1.0938-0.12109-2.1328-0.60938-3.3555-0.25391-0.60547-0.66797-1.3086-1.4023-1.875-0.72656-0.57422-1.7227-0.86328-2.5547-0.84766-0.14453 0-0.28125 0.011719-0.41797 0.03125-0.16016-0.027344-0.32812-0.046875-0.49609-0.046875l-14.203 0.003906c-0.22266 0-0.4375 0.027344-0.64453 0.078125-1.1289 0.15625-2.0391 0.58594-2.9805 1.1016-1.6719 0.96875-3.3164 2.3906-4.6797 4.1758-1.3086 1.7461-2.3984 3.8906-2.4609 6.4219-0.0039062 0.054687-0.0078125 0.10547-0.0078125 0.16016 0 0.91016 0.15625 1.8594 0.49609 2.7773 0.015625 0.046875 0.027344 0.09375 0.046875 0.13672 0.91406 2.3516 2.8984 4.2383 5.9219 5.6406v-7.0508c-0.24219-0.28906-0.37109-0.53516-0.44531-0.71875z"/>
</svg>
