<?xml version="1.0" encoding="UTF-8"?>
<svg width="100pt" height="100pt" version="1.1" viewBox="0 0 100 100" xmlns="http://www.w3.org/2000/svg">
 <path d="m39.809 28.848c0 3.0781-2.4961 5.5742-5.5781 5.5742-3.0781 0-5.5781-2.4961-5.5781-5.5742 0-3.082 2.5-5.5781 5.5781-5.5781 3.082 0 5.5781 2.4961 5.5781 5.5781"/>
 <path d="m34.23 18.27c1.1523 0 1.9219-0.76953 1.9219-1.9219v-2.8867c0-1.1523-0.76953-1.9219-1.9219-1.9219-1.1523 0-1.9219 0.76953-1.9219 1.9219v2.8828c0 0.96484 0.76953 1.9258 1.9219 1.9258z"/>
 <path d="m32.309 41.348v2.8828c0 1.1523 0.76953 1.9219 1.9219 1.9219 1.1523 0 1.9219-0.76953 1.9219-1.9219v-2.8828c0-1.1523-0.76953-1.9219-1.9219-1.9219-1.1523-0.003906-1.9219 0.76562-1.9219 1.9219z"/>
 <path d="m44.422 21.348 2.1172-2.1172c0.76953-0.76953 0.76953-1.9219 0-2.6914-0.76953-0.76953-1.9219-0.76953-2.6914 0l-2.1172 2.1172c-0.76953 0.76953-0.76953 1.9219 0 2.6914 0.57812 0.76953 1.9219 0.76953 2.6914 0z"/>
 <path d="m23.848 36.348-2.1172 2.1172c-0.76953 0.76953-0.76953 1.9219 0 2.6914s1.9219 0.76953 2.6914 0l2.1172-2.1172c0.76953-0.76953 0.76953-1.9219 0-2.6914-0.76953-0.76953-1.9219-0.76953-2.6914 0z"/>
 <path d="m44.809 28.848c0 1.1523 0.76953 1.9219 1.9219 1.9219h2.8828c1.1523 0 1.9219-0.76953 1.9219-1.9219s-0.76953-1.9219-1.9219-1.9219h-2.8828c-1.1523-0.003906-1.9219 0.76562-1.9219 1.9219z"/>
 <path d="m18.652 30.77h2.8828c1.1523 0 1.9219-0.76953 1.9219-1.9219s-0.76953-1.9219-1.9219-1.9219l-2.8828-0.003906c-1.1523 0-1.9219 0.76953-1.9219 1.9219 0 1.1562 0.96094 1.9258 1.9219 1.9258z"/>
 <path d="m43.652 41.152c0.76953 0.76953 1.9219 0.76953 2.6914 0 0.76953-0.76953 0.76953-1.9219 0-2.6914l-2.1172-2.1172c-0.76953-0.76953-1.9219-0.76953-2.6914 0-0.76953 0.76953-0.76953 1.9219 0 2.6914z"/>
 <path d="m23.848 21.348c0.76953 0.76953 1.9219 0.76953 2.6914 0 0.76953-0.76953 0.76953-1.9219 0-2.6914l-2.1172-2.1172c-0.76953-0.76953-1.9219-0.76953-2.6914 0-0.57812 0.76953-0.57812 1.9219 0.19141 2.6914z"/>
 <path d="m75.383 59.23-24.613 29.23h49.23z"/>
 <path d="m24.617 59.23-24.617 29.23h11.539l18.844-22.309z"/>
 <path d="m53.652 44.23-37.113 44.23h29.23l22.691-26.73z"/>
</svg>
