<?xml version="1.0" encoding="UTF-8"?>
<svg width="100pt" height="100pt" version="1.1" viewBox="0 0 100 100" xmlns="http://www.w3.org/2000/svg">
 <path d="m80.672 53.066h3.4531v10.375h-3.4531zm-0.007813-2.6797c-0.28906-14.844-7.0508-14.887-13.836-14.93-8.1133-0.050781-16.25-0.10938-17.297-16.016h3.4766c1.0078 12.488 7.4297 12.535 13.836 12.574 8.5 0.054687 16.98 0.11328 17.277 18.371l-3.457 0.003906zm-5.6758 0c-0.49609-8.9805-7.8438-9.0117-15.203-9.0391-8.4648-0.035156-16.949-0.066406-18.543-10.023h3.6016c1.6992 6.5312 8.3359 6.5586 14.953 6.5859 9.1094 0.035156 18.195 0.074219 18.648 12.477zm-59.027 2.6758h62.031v10.375h-62.031zm34.039-53.062c-27.613 0-50 22.387-50 50s22.387 50 50 50c27.617 0 50-22.383 50-50 0-27.613-22.387-50-50-50z" fill-rule="evenodd"/>
</svg>
