<?xml version="1.0" encoding="UTF-8"?>
<svg width="100pt" height="100pt" version="1.1" viewBox="0 0 100 100" xmlns="http://www.w3.org/2000/svg">
 <path d="m49.156 23.895c-7.8672 0.49609-14.172 6.7969-14.664 14.664h-17.176c-0.55078 0-1 0.44531-1 1v5.2422c0 0.92578 0.44141 1.7969 1.1875 2.3477 0.74609 0.54687 1.7109 0.71094 2.5938 0.43359l6.9961-2.1914c0.16406-0.050781 0.33594-0.054687 0.50391-0.011719l11.004 2.8672c0.49609 0.12891 1.0195 0.125 1.5117-0.011719l6.0039-1.6641v26.438h-2.875c-0.55078 0-1 0.44922-1 1v4.0859c0 0.55078 0.44922 1 1 1h13.828c0.55078 0 1-0.44922 1-1v-4.0859c0-0.55078-0.44531-1-1-1h-2.875v-26.438l6.0039 1.6641c0.49609 0.13672 1.0156 0.14062 1.5117 0.011719l11.004-2.8672c0.16406-0.042968 0.33984-0.039062 0.50391 0.011719 1.2812 0.40234 4.6406 1.4531 6.9961 2.1914 0.88281 0.27734 1.8477 0.11719 2.5938-0.43359 0.74609-0.55078 1.1875-1.4219 1.1875-2.3477v-5.2422c0-0.55078-0.44922-1-1-1h-17.18c-0.49609-7.8672-6.7969-14.172-14.664-14.664v-1.3438c0-0.55078-0.44922-1-1-1-0.55078 0-1 0.44922-1 1v1.3438zm43.941 14.988v12.059h-22.93c-0.55078 0-1 0.44922-1 1v26.156c0 0.55078 0.44922 1 1 1s1-0.44922 1-1v-19.398h21.93v19.398c0 0.55078 0.44922 1 1 1 0.55078 0 1-0.44922 1-1v-56.27c0-0.55078-0.44531-1-1-1h-5.7578c-0.55078 0-1 0.44531-1 1v16.055c0 0.55078 0.44922 1 1 1zm-87.879-17.055v56.27c0 0.55078 0.44922 1 1 1s1-0.44922 1-1v-19.398h21.93v19.398c0 0.55078 0.44922 1 1 1 0.55078 0 1-0.44922 1-1v-26.156c0-0.55078-0.44531-1-1-1h-22.93v-12.059h4.7578c0.55078 0 1-0.44922 1-1v-16.055c0-0.55078-0.44922-1-1-1h-5.7578c-0.55078 0-1 0.44531-1 1z" fill-rule="evenodd"/>
</svg>
