<?xml version="1.0" encoding="UTF-8"?>
<svg width="100pt" height="100pt" version="1.1" viewBox="0 0 100 100" xmlns="http://www.w3.org/2000/svg">
 <path d="m56.391 66.93c3.0469-2.4922 0.48047-6.2656 0.48047-6.2656-1.6328-1.1484-4.4648 0.58594-4.707 0.74219l-3.1367-8.5391c-1.25-2.9805-2.8516-3.3867-4.3906-3.3867h-29.172c-1.293 0-4.3203 0-5.375 3.0234l-3.4766 8.9297s-3.0469-1.9727-4.7539-0.76562c0 0-2.5664 3.7734 0.48047 6.2656 0 0 1.0078 0.58984 2.0117 0.30859l-1.9375 4.9844-0.074218 18.02c0 1.4414 1.1719 2.6172 2.6172 2.6172l5.0898-0.003906c0.85938-0.14844 2.4766-0.86328 2.4766-2.5078l0.097656-4.4102 33.473 0.035156v4.2891c0.066406 0.89062 0.67188 2.5781 2.4922 2.5977l2.0859 0.023438 2.8477-0.023438c1.4414 0 2.6172-1.1719 2.6172-2.6172l-0.003907-18.039-1.832-4.9922c0.035157 0.007812 0.046875 0.011718 0.078125 0.019531 1.0039 0.28516 2.0117-0.30469 2.0117-0.30469zm-39.949 12.543h-4.7578c-1.3086 0-2.3789-1.0703-2.3789-2.3789s1.0703-2.3789 2.3789-2.3789h4.7578c1.3086 0 2.3789 1.0703 2.3789 2.3789 0 1.3047-1.0703 2.3789-2.3789 2.3789zm30.473 0h-4.7578c-1.3086 0-2.3789-1.0703-2.3789-2.3789s1.0703-2.3789 2.3789-2.3789h4.7578c1.3086 0 2.3789 1.0703 2.3789 2.3789 0 1.3047-1.0703 2.3789-2.3789 2.3789zm-2.0195-9.0469h-31.312c-4.3047 0-6.4492-2.6914-4.9648-5.582l5.043-9.8359c0.75-1.4648 3.4531-2.5625 6.0703-2.5625h19.023c2.6172 0 5.3203 1.0977 6.0703 2.5625l5.043 9.8359c1.4805 2.8867-0.66406 5.582-4.9727 5.582z"/>
 <path d="m90.703 3.3398h-32.73c-4.6406 0-8.4375 3.7969-8.4375 8.4375v31.449c0 4.6406 3.7969 8.4375 8.4375 8.4375h13.629v34.332h-5.1992c-4.9414 0-8.9648 4.0234-8.9648 8.9648 0 0.93359 0.75781 1.6953 1.6953 1.6953h30.414c0.93359 0 1.6953-0.75781 1.6953-1.6953 0-4.9414-4.0234-8.9648-8.9648-8.9648h-5.1992v-34.332h13.629c4.6406 0 8.4375-3.7969 8.4375-8.4375l-0.003906-31.449c0-4.6406-3.793-8.4375-8.4375-8.4375zm-8.4688 24.238c-2.3281 2.4883-6.1406 3.7539-10.449 3.7539-1.3203 0-2.543-0.050781-3.5547-0.30469v13.703h-4.418v-33.801c2.1328-0.35547 4.9258-0.66016 8.4766-0.66016 4.3672 0 7.5625 1.0117 9.5898 2.8398 1.8789 1.625 2.9961 4.1094 2.9961 7.1523 0 3.1055-0.91797 5.5391-2.6406 7.3164z"/>
 <path d="m72.387 13.773c-1.9297 0-3.3984 0.15234-4.1641 0.35547v13.297c0.96094 0.25391 2.1836 0.35547 3.6523 0.35547 5.3281 0 8.5781-2.5859 8.5781-7.3086 0.003906-4.5195-3.1914-6.6992-8.0664-6.6992z"/>
</svg>
