<?xml version="1.0" encoding="UTF-8"?>
<svg width="100pt" height="100pt" version="1.1" viewBox="0 0 100 100" xmlns="http://www.w3.org/2000/svg">
 <path d="m45.395 28.613c0.27734 1.7188 0.27734 3.4883 0 5.207h-31.969c-0.27734-1.7188-0.27734-3.4883 0-5.207zm-1.457 9.7578c-0.98828 2.0078-2.3828 3.7773-4.0703 5.207h-20.914c-1.6914-1.4297-3.082-3.2031-4.0703-5.207zm-15.207-36.023c-32.547 0-39.914 45.875-9.2148 56.234l1.9883 39.074c12.301 0 24.598 0.003906 36.898-0.003906l-4.3398-19.926 2.625-0.56641-1.8164-8.375-2.6328 0.56641-0.5625-2.5898 2.6211-0.56641-1.6094-7.4297-2.6289 0.56641-0.64062-2.9531c10.098-2.3672 20.109-5.043 30.176-7.5352l-0.007812-35.254c-15.289-3.6953-41.277-11.242-50.855-11.242zm56.566 11.762v33.66l14.703 0.89453v-35.453zm-45.434 4.7383c1.6914 1.4297 3.0859 3.2031 4.0742 5.207h-29.055c0.98828-2.0078 2.3828-3.7773 4.0742-5.207z" fill-rule="evenodd"/>
</svg>
