<?xml version="1.0" encoding="UTF-8"?>
<svg width="100pt" height="100pt" version="1.1" viewBox="0 0 100 100" xmlns="http://www.w3.org/2000/svg">
 <path d="m49.988 10c-19.098 0-34.633 15.535-34.633 34.621 0 4.125 0.72266 8.0859 2.0469 11.754 0.21094-0.074219 0.42969-0.13281 0.65625-0.17188l3.1328-0.58984c-0.38281-0.99219-0.71484-2-0.99219-3.0391 1.1992 0.88672 2.5898 1.7031 4.1719 2.4375l7.3633-1.3828c-7.8281-2.2305-12.574-5.7227-12.574-9.0117 0-3.7617 6.2578-7.8203 16.27-9.9062-0.37109 3.1133-0.58203 6.4375-0.58203 9.9062 0 2.8945 0.14453 5.6953 0.41016 8.3438l3.7617-0.70313c-0.23828-2.4102-0.36328-4.9648-0.36328-7.6406 0-3.7891 0.25781-7.3438 0.72266-10.602 3.2461-0.45703 6.8008-0.72266 10.602-0.72266 3.7891 0 7.3438 0.26562 10.602 0.72266 0.45703 3.2578 0.72266 6.8086 0.72266 10.602 0 3.8008-0.26563 7.3516-0.72266 10.602-1.1445 0.16016-2.3164 0.30469-3.5234 0.41016l-0.73438 3.8867c1.2188-0.085937 2.4102-0.19922 3.5703-0.34375-1.4102 6.7617-3.7148 11.82-6.2188 14.383l-1.0664 5.6211c17.887-1.3438 32.023-16.324 32.023-34.555 0.007813-19.086-15.535-34.621-34.645-34.621zm14.547 24.707c10.031 2.0859 16.297 6.1523 16.297 9.9141 0 3.7734-6.2578 7.8398-16.297 9.9141 0.38281-3.1133 0.58984-6.4375 0.58984-9.9141 0-3.4727-0.21094-6.7891-0.58984-9.9141zm-28.488-4.0273c-6.6953 1.2188-12.191 3.3164-15.828 5.9922 2.8398-10.609 11.211-18.984 21.82-21.82-2.6875 3.6367-4.7734 9.1406-5.9922 15.828zm13.941-1.1836c-3.4766 0-6.8008 0.19922-9.9141 0.58203 2.0859-10.02 6.1523-16.27 9.9141-16.27s7.8203 6.2461 9.9062 16.27c-3.1133-0.37891-6.4375-0.58203-9.9062-0.58203zm7.957-14.648c10.621 2.8398 19.004 11.211 21.84 21.832-3.6367-2.6875-9.1445-4.7812-15.859-6-1.2109-6.6953-3.3047-12.191-5.9805-15.832zm-0.011718 59.578c2.6875-3.6406 4.7812-9.1445 6-15.859 6.707-1.2188 12.211-3.3047 15.859-5.9922-2.8398 10.633-11.23 19.016-21.859 21.852zm-4.168-21.184c-0.44531-0.44531-1.082-0.64453-1.6992-0.52344l-33.48 6.2891c-0.78906 0.14844-1.3984 0.77344-1.5273 1.5664s0.25391 1.5781 0.95703 1.9688l10.805 5.9844-11.281 11.285c-0.35547 0.35547-0.55859 0.84375-0.55859 1.3477 0 0.50781 0.20312 0.98828 0.55859 1.3477l6.9648 6.9375c0.375 0.37109 0.85938 0.55469 1.3477 0.55469 0.48828 0 0.97266-0.1875 1.3477-0.55859l11.277-11.277 5.9609 10.82c0.39062 0.70312 1.1836 1.0859 1.9688 0.96094 0.79297-0.12891 1.4219-0.73828 1.5703-1.5273l6.3164-33.48c0.10938-0.61328-0.085938-1.25-0.52734-1.6953zm-8.5547 29.27-4.625-8.3984c-0.28906-0.52344-0.80859-0.88281-1.3984-0.96484-0.59375-0.085938-1.1914 0.11719-1.6133 0.53906l-11.727 11.719-4.2695-4.2539 11.719-11.719c0.42188-0.42188 0.62109-1.0195 0.53906-1.6094-0.082032-0.59375-0.4375-1.1094-0.96094-1.3984l-8.3945-4.6484 25.551-4.8008z"/>
</svg>
