<?xml version="1.0" encoding="UTF-8"?>
<svg width="100pt" height="100pt" version="1.1" viewBox="0 0 100 100" xmlns="http://www.w3.org/2000/svg">
 <path d="m24.695 13.133v73.73c0 2.0742-1.6797 3.7578-3.7578 3.7578h-3.0859c-2.0781 0-3.7578-1.6836-3.7578-3.7578v-73.73c0-2.0742 1.6797-3.7578 3.7578-3.7578h3.0859c2.0781 0 3.7578 1.6836 3.7578 3.7578zm48.977 0c0-2.0742-1.6797-3.7578-3.7578-3.7578h-3.0859c-2.0781 0-3.7578 1.6836-3.7578 3.7578v73.73c0 2.0742 1.6797 3.7578 3.7578 3.7578h3.0859c2.0781 0 3.7578-1.6836 3.7578-3.7578zm-24.488 0v73.73c0 2.0742-1.6797 3.7578-3.7578 3.7578h-3.0859c-2.0781 0-3.7578-1.6836-3.7578-3.7578v-73.73c0-2.0742 1.6797-3.7578 3.7578-3.7578h3.0859c2.0781 0 3.7578 1.6836 3.7578 3.7578zm36.73 73.73v-73.73c0-2.0742-1.6797-3.7578-3.7578-3.7578h-3.0859c-2.0781 0-3.7578 1.6836-3.7578 3.7578v73.73c0 2.0742 1.6797 3.7578 3.7578 3.7578h3.0859c2.0781 0 3.7578-1.6836 3.7578-3.7578zm-48.977-73.73v73.73c0 2.0742-1.6797 3.7578-3.7578 3.7578h-3.0859c-2.0781 0-3.7578-1.6836-3.7578-3.7578v-73.73c0-2.0742 1.6797-3.7578 3.7578-3.7578h3.0859c2.0781 0 3.7578 1.6836 3.7578 3.7578zm24.488 0v73.73c0 2.0742-1.6797 3.7578-3.7578 3.7578h-3.0859c-2.0781 0-3.7578-1.6836-3.7578-3.7578v-73.73c0-2.0742 1.6797-3.7578 3.7578-3.7578h3.0859c2.0781 0 3.7578 1.6836 3.7578 3.7578zm-48.977 64.203v7.8828h-5.7148c-0.94141 0-1.6992-0.76172-1.6992-1.6992v-4.4805c0-0.9375 0.75781-1.6992 1.6992-1.6992h5.7148zm75.102 0h7.4141v7.8828h-7.4141zm-75.102-62.555v7.8828h-5.7148c-0.94141 0-1.6992-0.76172-1.6992-1.6992v-4.4805c0-0.9375 0.75781-1.6992 1.6992-1.6992h5.7148zm75.102 7.8828v-7.8828h7.4141v7.8828z" fill-rule="evenodd"/>
</svg>
