<?xml version="1.0" encoding="UTF-8"?>
<svg width="100pt" height="100pt" version="1.1" viewBox="0 0 100 100" xmlns="http://www.w3.org/2000/svg">
 <path d="m73.102 42c-0.19922-0.19922-2.1992-2.1992-2.1992-4.5 0-1.5 1.1992-2.6992 2.1992-3.6992 0.5-0.5 1.3008-1.3008 1.3008-1.6992 0-0.89844-1.1016-2.1016-1.5-2.3984l2.3984-2.1992c0.30078 0.19922 2.6016 2.1992 2.6016 4.6016 0 1.5-1.1992 2.6992-2.1992 3.6992-0.5 0.5-1.3008 1.3008-1.3008 1.6992 0 1 1 2.1992 1.3008 2.5z"/>
 <path d="m65.301 42c-0.19922-0.19922-2.1992-2.1992-2.1992-4.5 0-1.5 1.1992-2.6992 2.1992-3.6992 0.5-0.5 1.3008-1.3008 1.3008-1.6992 0-0.89844-1.1016-2.1016-1.5-2.3984l2.3984-2.1992c0.30078 0.19922 2.6016 2.1992 2.6016 4.6016 0 1.5-1.1992 2.6992-2.1992 3.6992-0.5 0.5-1.3008 1.3008-1.3008 1.6992 0 1 0.89844 2.1016 1.3008 2.5z"/>
 <path d="m57.398 42c-0.19922-0.19922-2.1992-2.1992-2.1992-4.5 0-1.5 1.1992-2.6992 2.1992-3.6992 0.5-0.5 1.3008-1.3008 1.3008-1.6992 0-0.89844-1.1016-2.1016-1.5-2.3984l2.3984-2.1992c0.30078 0.19922 2.6016 2.1992 2.6016 4.6016 0 1.5-1.1992 2.6992-2.1992 3.6992-0.5 0.5-1.3008 1.3008-1.3008 1.6992 0 1 1 2.1992 1.3008 2.5z"/>
 <path d="m49 42c-0.19922-0.19922-2.1992-2.1992-2.1992-4.5 0-1.5 1.1992-2.6992 2.1992-3.6992 0.5-0.5 1.3008-1.3008 1.3008-1.6992 0-0.89844-1.1016-2.1016-1.5-2.3984l2.3984-2.1992c0.30078 0.19922 2.6016 2.1992 2.6016 4.6016 0 1.5-1.1992 2.6992-2.1992 3.6992-0.5 0.5-1.3008 1.3008-1.3008 1.6992 0 1 1 2.1992 1.3008 2.5z"/>
 <path d="m82.398 63.199c-1.6016 0-3.3008-0.5-4.6016-1.5-2.6992 2.1016-6.5 2.1016-9.1992 0-2.6992 2.1016-6.5 2.1016-9.1992 0-2.6992 2.1016-6.5 2.1016-9.1992 0-2.6992 2.1016-6.5 2.1016-9.1992 0-2.6992 2.1016-6.5 2.1016-9.1992 0-2.6992 2.1016-6.5 2.1016-9.1992 0-3 2.1992-7.1992 2-10-0.60156l-0.80078-0.80078 3.1016-3.1992 0.80078 0.80078c1.1992 1.1992 3.1992 1.1992 4.5 0l2.3984-2.3008 2.3984 2.3008c1.1992 1.1992 3.1992 1.1992 4.5 0l2.3984-2.3008 2.3984 2.3008c1.3008 1.1992 3.1992 1.1992 4.5 0l2.3984-2.3008 2.3984 2.3008c1.1992 1.1992 3.1992 1.1992 4.5 0l2.3984-2.3008 2.3984 2.3008c1.1992 1.1992 3.1992 1.1992 4.5 0l2.3984-2.3008 2.3984 2.3008c1.1992 1.1992 3.1992 1.1992 4.5 0l2.3984-2.3008 2.3984 2.3008c1.1992 1.1992 3.1992 1.1992 4.5 0l2.3984-2.3008 2.3984 2.3008c1.1992 1.1992 3.1992 1.1992 4.5 0l0.80078-0.80078 3.1016 3.1992-0.80078 0.80078c-2.1836 1.4023-4.082 2.1016-5.9844 2.1016z"/>
 <path d="m81.102 43h-41.203v-4.3984c0-1.1992-1-2.1992-2.1992-2.1992s-2.1992 1-2.1992 2.1992v1.6016h-4.6016v-1.6016c0-1.1992-1-2.1992-2.1992-2.1992s-2.1992 1-2.1992 2.1992v4.3984h-7.5l-14 14v17.5h90.301v-17.5zm-45.703 1.6992v2h-4.6016v-2zm55.301 25.301h-81.398v-11.102l11.398-11.398h5.6016v4.8008c0 1.1992 1 2.1992 2.1992 2.1992s2.1992-1 2.1992-2.1992v-1.1992h4.6016v1.1992c0 1.1992 1 2.1992 2.1992 2.1992s2.1992-1 2.1992-2.1992v-4.8008h39.398l11.398 11.398 0.003906 11.102z"/>
</svg>
