<?xml version="1.0" encoding="UTF-8"?>
<svg width="100pt" height="100pt" version="1.1" viewBox="0 0 100 100" xmlns="http://www.w3.org/2000/svg">
 <path d="m74.754 29.746h-3.9375v-16.141c0-2.3477-1.9102-4.2617-4.2617-4.2617h-6.1406v-0.86328c0-0.61328-0.49609-1.1094-1.1094-1.1094h-18.605c-0.61328 0-1.1094 0.49609-1.1094 1.1094v0.86328h-6.1406c-2.3477 0-4.2617 1.9102-4.2617 4.2617v16.141h-3.9375c-0.61328 0-1.1094 0.49609-1.1094 1.1094v52.188c0 0.61328 0.49609 1.1094 1.1094 1.1094h4.332c-0.058593 0.375-0.10547 0.75391-0.10547 1.1367 0 4.0469 3.293 7.3398 7.3398 7.3398s7.3398-3.293 7.3398-7.3398c0-0.38281-0.046875-0.75781-0.10547-1.1367h11.914c-0.058594 0.375-0.10547 0.75391-0.10547 1.1367 0 4.0469 3.293 7.3398 7.3398 7.3398s7.3398-3.293 7.3398-7.3398c0-0.38281-0.046874-0.75781-0.10547-1.1367h4.332c0.61328 0 1.1094-0.49609 1.1094-1.1094l-0.011719-52.188c0-0.61328-0.49609-1.1094-1.1094-1.1094zm-14.34-18.18h6.1406c1.125 0 2.0391 0.91406 2.0391 2.0391v16.141h-4.0781v-12.992c0-0.61328-0.49609-1.1094-1.1094-1.1094h-2.9922zm-18.605-1.9727h16.383v8.0273l-16.383-0.003906zm-1.1094 10.246h18.605c0.61328 0 1.1094-0.49609 1.1094-1.1094v-0.86328h1.8789v11.879h-24.586v-11.879h1.8789v0.86328c0 0.61328 0.49609 1.1094 1.1133 1.1094zm-9.293-6.2344c0-1.125 0.91406-2.0391 2.0391-2.0391h6.1406v4.0781h-2.9922c-0.61328 0-1.1094 0.49609-1.1094 1.1094v12.988h-4.0781zm5.4023 76.801c-2.8203 0-5.1172-2.2969-5.1172-5.1172 0-0.38281 0.058594-0.76172 0.14453-1.1367h9.9414c0.085937 0.375 0.14453 0.75391 0.14453 1.1367 0.003906 2.8242-2.2891 5.1172-5.1133 5.1172zm26.383 0c-2.8203 0-5.1172-2.2969-5.1172-5.1172 0-0.38281 0.058593-0.76172 0.14453-1.1367h9.9414c0.085938 0.375 0.14453 0.75391 0.14453 1.1367 0 2.8242-2.293 5.1172-5.1133 5.1172zm10.449-8.4727h-47.281v-49.965h47.281z"/>
 <path d="m31.863 77.156h4.2891c0.61328 0 1.1094-0.49609 1.1094-1.1094v-38.191c0-0.61328-0.49609-1.1094-1.1094-1.1094h-4.2891c-0.61328 0-1.1094 0.49609-1.1094 1.1094v38.191c-0.003906 0.61328 0.49219 1.1094 1.1094 1.1094zm1.1094-38.188h2.0664v35.969h-2.0664z"/>
 <path d="m42.457 77.156h4.293c0.61328 0 1.1094-0.49609 1.1094-1.1094v-38.191c0-0.61328-0.49609-1.1094-1.1094-1.1094h-4.293c-0.61328 0-1.1094 0.49609-1.1094 1.1094v38.191c-0.003906 0.61328 0.49609 1.1094 1.1094 1.1094zm1.1094-38.188h2.0703v35.969h-2.0703z"/>
 <path d="m53.25 77.156h4.293c0.61328 0 1.1094-0.49609 1.1094-1.1094l0.003906-38.191c0-0.61328-0.49609-1.1094-1.1094-1.1094h-4.293c-0.61328 0-1.1094 0.49609-1.1094 1.1094v38.191c-0.003906 0.61328 0.49219 1.1094 1.1055 1.1094zm1.1133-38.188h2.0703v35.969h-2.0703z"/>
 <path d="m63.848 77.156h4.2891c0.61328 0 1.1094-0.49609 1.1094-1.1094l0.003906-38.191c0-0.61328-0.49609-1.1094-1.1094-1.1094h-4.2891c-0.61328 0-1.1094 0.49609-1.1094 1.1094v38.191c-0.003907 0.61328 0.49219 1.1094 1.1055 1.1094zm1.1094-38.188h2.0664v35.969h-2.0664z"/>
</svg>
