<?xml version="1.0" encoding="UTF-8"?>
<svg width="100pt" height="100pt" version="1.1" viewBox="0 0 100 100" xmlns="http://www.w3.org/2000/svg">
 <path d="m22.898 55.07 6.3984 6.4297h0.03125c11.461-11.422 29.941-11.422 41.359 0l6.4297-6.4297c-7.4805-7.4805-17.301-11.262-27.121-11.262-9.7656 0-19.605 3.7812-27.098 11.262z"/>
 <path d="m35.77 67.941 6.3984 6.4297h0.03125c4.3281-4.3281 11.289-4.3281 15.629 0l6.4297-6.4297c-3.9414-3.9414-9.0898-5.9102-14.25-5.9102-5.1484 0-10.297 1.9688-14.238 5.9102z"/>
 <path d="m10 42.199c2.1719 2.1289 4.3008 4.3008 6.4297 6.4297h0.03125c18.551-18.551 48.551-18.551 67.102 0l6.4375-6.4297c-2.6602-2.6602-17.07-16.578-39.98-16.578-22.918 0.007812-37.359 13.918-40.02 16.578z"/>
</svg>
