<?xml version="1.0" encoding="UTF-8"?>
<svg width="100pt" height="100pt" version="1.1" viewBox="0 0 100 100" xmlns="http://www.w3.org/2000/svg">
 <path d="m48.039 74.312 0.31641 1.2969-23.102 5.6367c-0.070312 0.015625-0.13672 0.023437-0.20312 0.023437-0.38672 0-0.73828-0.26172-0.83594-0.65625l-10.188-41.758 1.668-0.40625 9.9844 40.922 20.746-5.0625h-7.1719c-4.0273 0-7.3047-3.2773-7.3047-7.3047v-10.508c-7.5039-3.9766-8.125-7.9453-8.125-7.9453-0.76172-3.125 1.1523-6.2773 4.2773-7.0391 1.3047-0.31641 2.668 0.0625 3.8477 0.73438v-19.273l-9.5195 2.3203-0.40625-1.668 9.9258-2.4219v-3.5469l-19.699 4.8047c-1.4492 0.35547-2.6758 1.25-3.4492 2.5273-0.77344 1.2734-1.0078 2.7734-0.65234 4.2266l12.434 50.965c0.35547 1.4492 1.25 2.6758 2.5273 3.4492 1.2734 0.77344 2.7773 1.0078 4.2266 0.65234l22.758-5.5508c-0.35547-1.4414-0.57031-2.9219-0.63281-4.4258h-1.418zm-36.207-42.711c-0.38672-1.5938 0.58594-3.1953 2.1797-3.5859 1.0391-0.25391 2.1523 0.35938 2.8633 1.0625 0.30469-0.94922 1.0117-2.0078 2.0508-2.2617 1.5938-0.38672 3.1953 0.58594 3.5859 2.1797 0 0 0.94141 2.8125-3.7344 7.875-6.4844-2.3398-6.9414-5.2695-6.9414-5.2695z"/>
 <path d="m71.395 51.195v-37.07h-22.918v-1.7188h23.777c0.47656 0 0.85938 0.38672 0.85938 0.85938v37.973c1.1406 0.074219 2.2852 0.23828 3.4297 0.49609v-37.188c0-3.082-2.5039-5.5859-5.5859-5.5859h-31.703c-3.082 0-5.5859 2.5039-5.5859 5.5859v52.461c0 3.082 2.5039 5.5859 5.5859 5.5859h10.199c0.042969-1.1445 0.17578-2.2969 0.40234-3.4492h-11.898c-0.47266 0-0.85938-0.38672-0.85938-0.85938v-42.984h1.7188v42.125h11.449c0.070313-0.25 0.14453-0.5 0.22266-0.75 2.9766-9.3477 11.594-15.359 20.906-15.484zm-32.383-30.695c-1.5352 0-2.7891-1.25-2.7891-2.7891 0-1.5352 1.25-2.7891 2.7891-2.7891 0.25781 0 0.51953 0.046875 0.77734 0.125-0.15234-0.375-0.25391-0.76172-0.25391-1.1445 0-1.5352 1.25-2.7852 2.7852-2.7852 1.5352 0 2.7891 1.25 2.7891 2.7852 0 0.38281-0.10156 0.76953-0.25391 1.1445 0.25781-0.074219 0.51953-0.125 0.77734-0.125 1.5352 0 2.7852 1.25 2.7852 2.7891 0 1.5352-1.25 2.7891-2.7852 2.7891-0.86328 0-1.7539-0.49219-2.4531-1.0117v2.3281h2.4648v1.7188h-6.6523v-1.7188h2.4648v-2.3281c-0.69922 0.52344-1.5898 1.0117-2.4531 1.0117zm9.6836 31.211v-3.2461h1c1.793 0 3.2461-1.4531 3.2461-3.2461v-2.7148c-1.4023 1.2148-3.4766 2.6836-5.3008 2.6836-2.3516 0-4.2617-1.9062-4.2617-4.2617 0-2.3516 1.9062-4.2617 4.2617-4.2617 1.8242 0 3.8984 1.4688 5.3008 2.6836v-1.3672c-1.0156-1.3203-1.9883-2.9688-1.9883-4.4531 0-2.3516 1.9062-4.2617 4.2617-4.2617 2.3516 0 4.2617 1.9062 4.2617 4.2617 0 1.5898-1.1172 3.3672-2.207 4.7266v1.0938c1.4023-1.2148 3.4766-2.6836 5.3008-2.6836 2.3516 0 4.2617 1.9062 4.2617 4.2617 0 2.3516-1.9062 4.2617-4.2617 4.2617-1.8242 0-3.8984-1.4688-5.3008-2.6836v2.7148c0 1.793 1.4531 3.2461 3.2461 3.2461h1v3.2461z"/>
 <path d="m89.898 64.008c-2.5156-4.8672-6.7773-8.4648-11.996-10.129-10.777-3.4336-22.34 2.543-25.773 13.32-3.4336 10.777 2.543 22.34 13.32 25.773 13.738 4.168 23.727-5.707 25.773-13.32 1.6641-5.2227 1.1953-10.777-1.3203-15.645zm0.019531 7.2656-4.0859 0.24219c-0.17188-1.2695-0.51562-2.5039-1.0156-3.6719l3.6328-1.8789c0.76172 1.707 1.25 3.4922 1.4648 5.3086zm-2.4531-7.2148-3.6328 1.8789c-0.53906-0.87891-1.1719-1.6992-1.8945-2.4453l2.7188-3.0586c1.0742 1.0742 2.0195 2.2891 2.8086 3.625zm-9.2031-7.7695c1.7461 0.66797 3.3516 1.5859 4.7891 2.7188l-2.7188 3.0586c-0.99609-0.75781-2.1055-1.3945-3.3125-1.8789zm-6.5742-1.2266c1.5 0 3.0195 0.1875 4.5273 0.57422l-1.2422 3.8984c-1.0234-0.24219-2.0508-0.37109-3.0664-0.39062l-0.24219-4.082zm-2.168 0.12891 0.24219 4.0781c-1.2695 0.17188-2.5039 0.51562-3.6719 1.0156l-1.875-3.625c1.6758-0.74609 3.4609-1.2461 5.3047-1.4688zm-7.2109 2.4531 1.875 3.625c-0.875 0.53906-1.6992 1.1719-2.4453 1.8945l-3.0508-2.7109c1.0898-1.0898 2.3086-2.0273 3.625-2.8086zm-5.0547 4.4102 3.0547 2.7148c-0.75781 0.99609-1.3945 2.1055-1.8789 3.3125l-3.8984-1.2422c0.67578-1.7617 1.6016-3.3672 2.7188-4.7852zm-3.375 6.832 3.8984 1.2422c-0.24219 1.0234-0.37109 2.0508-0.39062 3.0664l-4.082 0.24219c0-1.5078 0.18359-3.0352 0.57031-4.5508zm-0.44141 6.6953 4.0781-0.24219c0.17188 1.2695 0.51562 2.5039 1.0156 3.6719l-3.6289 1.875c-0.74609-1.6758-1.2461-3.4609-1.4648-5.3047zm2.4531 7.2148 3.6289-1.875c0.53906 0.875 1.1719 1.6992 1.8945 2.4453l-2.7109 3.0547c-1.0898-1.0898-2.0312-2.3086-2.8086-3.625zm9.1992 7.7734c-1.7617-0.67578-3.3672-1.6016-4.7852-2.7227l2.7148-3.0547c0.99609 0.75781 2.1055 1.3945 3.3125 1.8789zm2.0469 0.64844 1.2422-3.8984c1.0234 0.24219 2.0508 0.37109 3.0664 0.39063l0.24219 4.0859c-1.5195 0-3.0469-0.19141-4.5508-0.57812zm3.2578-8.7109-0.52344 1.6367-2.9258-0.93359 0.55469-1.7422c-2.3672-1.2891-3.5898-3.418-3.6367-6.3438l-0.007812-0.55859 2.9102 0.33203-0.003906 0.44141c-0.007813 0.70703 0.12109 1.3438 0.39062 1.8867 0.26562 0.54688 0.65234 1.0234 1.1562 1.4102 0.51562 0.39844 1.1289 0.71484 1.8242 0.93359 1.1289 0.35938 2.0625 0.41406 2.7734 0.16406 0.67969-0.24609 1.125-0.72656 1.3594-1.4688 0.125-0.38672 0.5-1.5703-1.707-2.8594l-2.4609-1.5234c-1.2461-0.74219-2.1328-1.5391-2.6289-2.3633-0.6875-1.1406-0.81641-2.4023-0.38281-3.7578 0.50781-1.5977 1.5-2.6445 2.9453-3.1016 0.91406-0.29297 1.8906-0.37109 2.9102-0.24219l0.54688-1.7188 2.9258 0.93359-0.54297 1.7031c0.83984 0.44531 1.5469 1.0234 2.1094 1.7305 0.85156 1.0742 1.2891 2.3789 1.3047 3.8828l0.003906 0.51562-3.0234-0.12891 0.074219-0.53125c0.10156-0.76953-0.10547-1.4648-0.63672-2.1328-0.55469-0.69922-1.2188-1.168-2.0352-1.4258-0.76172-0.24219-1.5312-0.26562-2.2891-0.066406-0.69141 0.17969-1.1133 0.57031-1.3203 1.2227-0.20703 0.64453-0.17969 1.1211 0.082031 1.4492 0.33203 0.41797 0.92969 0.91406 1.7852 1.4688l2.2188 1.293c1.3711 0.88281 2.2461 1.6562 2.6797 2.375 0.80859 1.2422 0.98828 2.6055 0.53125 4.043-0.52734 1.6484-1.625 2.7812-3.2695 3.3633-1.0547 0.375-2.293 0.41016-3.6836 0.11719zm3.4375 9.1602-0.24219-4.0859c1.2695-0.17188 2.5039-0.51562 3.6719-1.0156l1.8789 3.6328c-1.707 0.76172-3.4922 1.25-5.3086 1.4648zm7.2148-2.4531-1.8789-3.6328c0.875-0.53906 1.6992-1.1719 2.4453-1.8945l3.0586 2.7188c-1.0742 1.0742-2.2891 2.0195-3.625 2.8086zm5.0547-4.4141-3.0586-2.7188c0.75781-0.99609 1.3945-2.1055 1.8789-3.3125l3.8984 1.2422c-0.66797 1.7461-1.5859 3.3516-2.7188 4.7891zm3.3672-6.8359-3.8984-1.2422c0.24219-1.0234 0.37109-2.0508 0.39063-3.0664l4.0859-0.24219c0 1.5195-0.19141 3.0469-0.57812 4.5508z"/>
</svg>
