<?xml version="1.0" encoding="UTF-8"?>
<svg width="100pt" height="100pt" version="1.1" viewBox="0 0 100 100" xmlns="http://www.w3.org/2000/svg">
 <path d="m27.168 6.0547v32.203h45.664v-32.203zm8.8203 22.043c0 0.66797-0.53906 1.2031-1.207 1.2031-0.66406 0-1.1953-0.53906-1.1953-1.2031v-12.938c0-0.66406 0.53125-1.2031 1.1953-1.2031 0.66797 0 1.207 0.53516 1.207 1.2031zm-8.8203 61.664h2.4219v2.582c0 0.88672 0.72266 1.6055 1.6094 1.6055 0.88281 0 1.6094-0.71875 1.6094-1.6055v-2.582h34.383v2.582c0 0.88672 0.72266 1.6055 1.6094 1.6055 0.88281 0 1.6094-0.71875 1.6094-1.6055v-2.582h2.4219v-49.094h-45.664zm6.418-39.727c0-0.66406 0.53125-1.2031 1.1953-1.2031 0.66797 0 1.207 0.53516 1.207 1.2031v16.086c0 0.66797-0.53906 1.2031-1.207 1.2031-0.66406 0-1.1953-0.54297-1.1953-1.2031z"/>
</svg>
