<?xml version="1.0" encoding="UTF-8"?>
<svg width="100pt" height="100pt" version="1.1" viewBox="0 0 100 100" xmlns="http://www.w3.org/2000/svg">
 <path d="m74.648 28.379c0-2.4883-2.0234-4.5117-4.5117-4.5117h-6.0742v-13.316c0-2.0938-1.7031-3.8008-3.8008-3.8008h-20.523c-2.0977 0-3.8008 1.7031-3.8008 3.8008v13.316h-6.0742c-2.4883 0-4.5117 2.0234-4.5117 4.5117v52.09c0 2.4883 2.0234 4.5117 4.5117 4.5117h4.8594c-0.60938 0.85547-0.97266 1.8945-0.97266 3.0234 0 2.8906 2.3516 5.2461 5.2461 5.2461 2.8906 0 5.2461-2.3555 5.2461-5.2461 0-1.1289-0.36719-2.168-0.97266-3.0234h13.465c-0.60938 0.85547-0.97266 1.8945-0.97266 3.0234 0 2.8906 2.3516 5.2461 5.2461 5.2461 2.8906 0 5.2461-2.3555 5.2461-5.2461 0-1.1289-0.36719-2.168-0.97266-3.0234h4.8594c2.4883 0 4.5117-2.0234 4.5117-4.5117zm-36.488-17.828c0-0.87109 0.70703-1.5781 1.5781-1.5781h20.523c0.87109 0 1.5781 0.70703 1.5781 1.5781v13.316h-3.1562v-10.625c0-0.61328-0.49609-1.1094-1.1094-1.1094l-15.148-0.003906c-0.61328 0-1.1094 0.49609-1.1094 1.1094v10.625h-3.1562zm18.301 3.8008v9.5156h-12.922v-9.5156zm-17.465 76.676c-1.668 0-3.0234-1.3555-3.0234-3.0234 0-1.668 1.3555-3.0234 3.0234-3.0234 1.668 0 3.0234 1.3555 3.0234 3.0234 0 1.668-1.3555 3.0234-3.0234 3.0234zm22.008 0c-1.668 0-3.0234-1.3555-3.0234-3.0234 0-1.668 1.3555-3.0234 3.0234-3.0234 1.668 0 3.0234 1.3555 3.0234 3.0234 0 1.668-1.3555 3.0234-3.0234 3.0234zm11.422-10.559c0 1.2617-1.0273 2.2891-2.2891 2.2891h-40.273c-1.2617 0-2.2891-1.0273-2.2891-2.2891v-52.09c0-1.2617 1.0273-2.2891 2.2891-2.2891h40.27c1.2617 0 2.2891 1.0273 2.2891 2.2891z"/>
 <path d="m50 31.648c-2.5273 0-4.582 2.0547-4.582 4.582v35.98c0 2.5273 2.0547 4.582 4.582 4.582s4.582-2.0547 4.582-4.582v-35.984c0-2.5234-2.0547-4.5781-4.582-4.5781zm2.3594 40.559c0 1.3008-1.0586 2.3594-2.3594 2.3594s-2.3594-1.0586-2.3594-2.3594v-35.98c0-1.3008 1.0586-2.3594 2.3594-2.3594s2.3594 1.0586 2.3594 2.3594z"/>
 <path d="m63.418 31.648c-2.5273 0-4.582 2.0547-4.582 4.582v35.98c0 2.5273 2.0547 4.582 4.582 4.582 2.5273 0 4.582-2.0547 4.582-4.582v-35.984c0-2.5234-2.0547-4.5781-4.582-4.5781zm2.3594 40.559c0 1.3008-1.0586 2.3594-2.3594 2.3594s-2.3594-1.0586-2.3594-2.3594v-35.98c0-1.3008 1.0586-2.3594 2.3594-2.3594s2.3594 1.0586 2.3594 2.3594z"/>
 <path d="m36.582 31.648c-2.5273 0-4.582 2.0547-4.582 4.582v35.98c0 2.5273 2.0547 4.582 4.582 4.582 2.5273 0 4.582-2.0547 4.582-4.582v-35.984c0-2.5234-2.0547-4.5781-4.582-4.5781zm2.3594 40.559c0 1.3008-1.0586 2.3594-2.3594 2.3594s-2.3594-1.0586-2.3594-2.3594v-35.98c0-1.3008 1.0586-2.3594 2.3594-2.3594s2.3594 1.0586 2.3594 2.3594z"/>
</svg>
