<?xml version="1.0" encoding="UTF-8"?>
<svg width="100pt" height="100pt" version="1.1" viewBox="0 0 100 100" xmlns="http://www.w3.org/2000/svg">
 <path d="m63.141 84.656v-10.758l5.8789-2.2422 5.6328 6.5234 5.6094-6.5234 5.9023 2.2422v10.758zm-7.7305-13 5.9023 2.2422v10.758h-23.023v-10.758l5.8789-2.2422 5.6328 6.5234zm-5.6094-15.113c3.5039 0 6.3398 2.8398 6.3398 6.3398 0 3.5039-2.8398 6.3398-6.3398 6.3398-3.5039 0-6.3398-2.8398-6.3398-6.3398s2.8398-6.3398 6.3398-6.3398zm24.855 0c3.5039 0 6.3398 2.8398 6.3398 6.3398 0 3.5039-2.8398 6.3398-6.3398 6.3398-3.5039 0-6.3398-2.8398-6.3398-6.3398s2.8359-6.3398 6.3398-6.3398zm-49.707 0c3.5039 0 6.3438 2.8398 6.3438 6.3398 0 3.5039-2.8398 6.3398-6.3438 6.3398-3.5039 0-6.3398-2.8398-6.3398-6.3398-0.003906-3.5 2.8359-6.3398 6.3398-6.3398zm-11.516 17.355 5.8789-2.2422 5.6328 6.5234 5.6094-6.5234 5.9023 2.2422v10.758h-23.023zm86.566 26.102v-100h-100v100zm-68.965-70.105c0 3.5039 2.8398 6.3398 6.3438 6.3398s6.3398-2.8398 6.3398-6.3398c0-3.5039-2.8398-6.3398-6.3398-6.3398-3.5078 0-6.3438 2.8398-6.3438 6.3398zm-17.094 21.77v-36.316h72.625v36.32h-37.68v-10.758l-5.9023-2.2422-5.6094 6.5234-5.6328-6.5234-5.8828 2.2422v10.758h-11.918z" fill-rule="evenodd"/>
</svg>
