<?xml version="1.0" encoding="UTF-8"?>
<svg width="100pt" height="100pt" version="1.1" viewBox="0 0 100 100" xmlns="http://www.w3.org/2000/svg">
 <path d="m80.672 53.066h3.4531v10.375h-3.4531zm-20.875-15.156c9.1094 0.035156 18.195 0.074219 18.648 12.477h-3.4609c-0.49609-8.9805-7.8438-9.0117-15.203-9.0391-8.4609-0.035156-16.949-0.066406-18.543-10.023h3.6016c1.7031 6.5352 8.3398 6.5586 14.957 6.5859zm-10.266-18.469h3.4766c1.0078 12.488 7.4297 12.535 13.832 12.574 8.5 0.054687 16.98 0.11328 17.277 18.371h-3.457c-0.28516-14.844-7.0508-14.887-13.836-14.93-8.1094-0.050781-16.246-0.10547-17.293-16.016zm-33.57 33.621h29.285l10.375 10.375h-39.66zm67.32 34.25-70.594-70.594c-7.8906 8.8398-12.688 20.5-12.688 33.281 0 27.613 22.387 50 50 50 12.781 0 24.441-4.7969 33.281-12.688zm-66.562-74.625 40.379 40.379h20.895v10.375h-10.523l19.84 19.84c7.8945-8.8398 12.691-20.5 12.691-33.281 0-27.613-22.387-50-50-50-12.781 0-24.441 4.7969-33.281 12.688z" fill-rule="evenodd"/>
</svg>
