<?xml version="1.0" encoding="UTF-8"?>
<svg width="100pt" height="100pt" version="1.1" viewBox="0 0 100 100" xmlns="http://www.w3.org/2000/svg">
 <path d="m25.832 7.8203c-2.1797-2.1797-5.1797-3.5156-8.4961-3.5156-3.3164 0-6.3281 1.3477-8.4961 3.5156-2.1797 2.1797-3.5156 5.1797-3.5156 8.4961s1.3477 6.3281 3.5156 8.4961c2.1797 2.1797 5.1797 3.5156 8.4961 3.5156 3.3164 0 6.3281-1.3477 8.4961-3.5156 2.1797-2.1797 3.5156-5.1797 3.5156-8.4961s-1.3477-6.3281-3.5156-8.4961zm0.16797 19.949h2.3477c1.0117 0 1.9375 0.41016 2.6016 1.0859 0.66406 0.66406 1.0859 1.5898 1.0859 2.6016v23.707c0 1.0117-0.41016 1.9258-1.0742 2.5898-0.66406 0.67188-1.5781 1.0859-2.5781 1.0938-0.64062 0-1.1562 0.52734-1.1562 1.168v35.684l-19.773-0.003907v-35.684c0-0.64062-0.52734-1.168-1.168-1.168h-0.085937c-0.96875-0.03125-1.8516-0.44141-2.4961-1.0938-0.66406-0.66406-1.0742-1.5781-1.0742-2.5898v-23.707c0-1.0117 0.41016-1.9375 1.0859-2.6016 0.66406-0.66406 1.5898-1.0859 2.6016-1.0859h2.3477c2.4102 1.832 5.4102 2.9141 8.6641 2.9141s6.2617-1.0859 8.6641-2.9141zm57.379-19.949c-2.1797-2.1797-5.1797-3.5156-8.4961-3.5156-3.3164 0-6.3281 1.3477-8.4961 3.5156-2.168 2.168-3.5156 5.1797-3.5156 8.4961s1.3477 6.3281 3.5156 8.4961c2.1797 2.1797 5.1797 3.5156 8.4961 3.5156 3.3164 0 6.3281-1.3477 8.4961-3.5156 2.1797-2.1797 3.5156-5.1797 3.5156-8.4961s-1.3477-6.3281-3.5156-8.4961zm-19.117 18.168c0.14844 0.16797 0.30469 0.32812 0.46484 0.48438 2.6016 2.6016 6.1914 4.2109 10.148 4.2109s7.5586-1.6094 10.156-4.2109c0.15625-0.15625 0.31641-0.31641 0.46484-0.48438l11.875 45.875h-11.43c-0.64062 0-1.168 0.52734-1.168 1.168v22.672h-19.758v-22.672c0-0.64062-0.52734-1.168-1.168-1.168h-11.43l11.875-45.875z" fill-rule="evenodd"/>
</svg>
