<?xml version="1.0" encoding="UTF-8"?>
<svg width="100pt" height="100pt" version="1.1" viewBox="0 0 100 100" xmlns="http://www.w3.org/2000/svg">
 <path d="m69.242 27.426c1.5156-0.30469 2.4258-1.668 2.2734-3.1836l-1.5156-15.305h-6.0625l1.3633 13.184-7.1211 1.668c1.3633 1.5156 2.1211 3.4844 2.4258 5.6055z"/>
 <path d="m60.605 9.6953c1.0625 0 1.8164-0.91016 2.1211-2.2734h8.1836c0.30469 1.3633 1.2109 2.2734 2.1211 2.2734 1.3633 0 2.2734-1.668 2.2734-3.6367s-1.0625-3.6367-2.2734-3.6367c-1.0625 0-1.8164 0.91016-2.1211 2.2734h-8.1836c-0.30469-1.3633-1.2109-2.2734-2.1211-2.2734-1.3633 0-2.2734 1.668-2.2734 3.6367 0 1.9727 1.0625 3.6367 2.2734 3.6367z"/>
 <path d="m8.7891 84.695c-1.5156 0-2.7266 1.2109-2.7266 2.7266s1.2109 2.7266 2.7266 2.7266h25.91c0-0.30469 0 0 2.1211-5.3047l-28.031 0.003906z"/>
 <path d="m91.211 84.695h-41.363l-2.1211 5.3047h43.484c1.5156 0 2.7266-1.2109 2.7266-2.7266 0-1.5156-1.2109-2.5781-2.7266-2.5781z"/>
 <path d="m9.8477 97.574h7.2734l2.4258-7.5742h-7.2734z"/>
 <path d="m80.453 90 2.4258 7.5742h7.2734l-2.4258-7.5742z"/>
 <path d="m47.879 20.305c4.8477 0 8.7891-3.9375 8.7891-8.7891 0-4.8477-3.9375-8.7891-8.7891-8.7891-4.8477 0-8.7891 3.9375-8.7891 8.7891 0 4.8477 3.9414 8.7891 8.7891 8.7891z"/>
 <path d="m51.969 74.242 0.60547-13.637 2.7266 4.6953 2.1211 15c0.91016 6.0625 9.8477 4.6953 8.9375-1.2109l-2.2734-15.91c-0.15234-0.60547-0.30469-1.2109-0.60547-1.668l-3.9375-6.668c0.45312-1.2109 0.75781-2.4258 0.60547-3.7891l-1.0586-21.055c-0.30469-5-4.5469-8.7891-9.5469-8.4844-3.332 0.15234-6.0625 2.1211-7.5742 4.8477l-8.4844 9.5469c-0.45312 0.60547-0.75781 1.3633-0.75781 2.1211l0.60547 13.484c0 1.668 1.3633 2.8789 3.0312 2.8789h0.15234c1.668 0 3.0312-1.5156 2.8789-3.1836l-0.45312-12.273 2.2734-2.7266 0.91016 14.695h0.75781c3.0312 0.15234 4.5469 4.6953 2.8789 7.8789-0.60547 1.0625-1.3633 1.9688-2.4258 2.2734l-0.45313 11.969-6.668 17.121c-0.91016 2.2734 0.30469 5 2.5742 5.9102 2.2734 0.91016 5-0.15234 5.9102-2.5742l6.9688-17.727c0.14844-0.60547 0.30078-1.0625 0.30078-1.5156z"/>
 <path d="m29.695 58.938c1.0625 0 1.9688-0.91016 2.2734-2.1211l8.1836 0.45312c0.30469 1.3633 1.0625 2.4258 1.9688 2.4258 2.2734 0.15234 3.4844-4.5469 1.668-6.5156-0.30469-0.45313-0.75781-0.60547-1.2109-0.60547-0.75781 0-1.8164 0.60547-2.2734 2.1211h-1.0625c-0.75781 0.75781-1.8164 1.2109-3.0312 1.2109l0.15234 0.003906c-1.3633 0-2.7266-0.60547-3.4844-1.668h-0.60547c-0.30469-1.3633-1.0625-2.4258-2.1211-2.4258-1.2109 0-2.4258 1.5156-2.5742 3.4844-0.003906 1.9727 0.90625 3.6367 2.1172 3.6367z"/>
</svg>
