<?xml version="1.0" encoding="UTF-8"?>
<svg width="100pt" height="100pt" version="1.1" viewBox="0 0 100 100" xmlns="http://www.w3.org/2000/svg">
 <path d="m16.906 31.312h0.015625c1.1445 0 2.0742-0.91797 2.0859-2.0625 0.007813-1.6133 0.52734-3.1797 1.4805-4.4766 1.4727-1.8047 3.6445-2.8906 5.9727-2.9805 2.5039-0.015625 4.9375-0.83203 6.9492-2.3242 2.8281-2.2344 4.5273-5.6055 4.6367-9.2148 0.015625-0.55078-0.1875-1.0859-0.56641-1.4883-0.37891-0.40234-0.90234-0.64062-1.457-0.65625h-0.066407 0.003907c-1.1289 0-2.0508 0.89453-2.082 2.0195-0.078125 2.3438-1.168 4.5352-2.9844 6.0156-1.3086 0.96484-2.8906 1.4844-4.5156 1.4844-3.6055 0.10938-6.9766 1.8047-9.2148 4.6328-1.4922 2.0117-2.3047 4.4453-2.3242 6.9492-0.003906 0.55469 0.21094 1.0859 0.59766 1.4805 0.38672 0.39453 0.91406 0.61719 1.4688 0.62109z"/>
 <path d="m66.809 31.312h0.019531c1.1445 0 2.0742-0.91797 2.082-2.0625 0.007813-1.6094 0.52734-3.1758 1.4805-4.4766 1.4727-1.8047 3.6484-2.8867 5.9727-2.9805 2.5039-0.015625 4.9375-0.83203 6.9492-2.3242 2.8281-2.2344 4.5273-5.6094 4.6328-9.2148 0.019532-0.55078-0.18359-1.0859-0.5625-1.4883-0.37891-0.40234-0.90234-0.64062-1.457-0.65625h-0.066406c-1.125 0-2.0469 0.89453-2.0781 2.0195-0.078125 2.3438-1.1641 4.5352-2.9805 6.0195-1.3125 0.96094-2.8945 1.4805-4.5195 1.4805-3.6055 0.10938-6.9805 1.8047-9.2148 4.6367-1.4922 2.0117-2.3047 4.4453-2.3242 6.9492-0.003907 0.55078 0.21094 1.082 0.59766 1.4766 0.38672 0.39453 0.91797 0.61719 1.4688 0.62109z"/>
 <path d="m44.402 27.371h0.023437-0.003906c1.1445 0 2.0742-0.91797 2.0859-2.0625 0.011719-1.6094 0.52734-3.1758 1.4805-4.4766 1.4727-1.8047 3.6484-2.8906 5.9727-2.9805 2.5039-0.015624 4.9375-0.83203 6.9492-2.3242 2.832-2.2344 4.5273-5.6094 4.6367-9.2148 0.015625-0.55078-0.1875-1.0898-0.56641-1.4922-0.37891-0.40234-0.90234-0.63672-1.457-0.65234h-0.066407 0.003907c-1.1289 0-2.0469 0.89453-2.082 2.0195-0.078125 2.3438-1.168 4.5352-2.9844 6.0156-1.3086 0.96094-2.8906 1.4805-4.5156 1.4844-3.6055 0.10547-6.9766 1.8008-9.2148 4.6328-1.4922 2.0078-2.3047 4.4414-2.3242 6.9453-0.007813 0.55078 0.20703 1.0859 0.59375 1.4805 0.38672 0.39453 0.91406 0.62109 1.4688 0.625z"/>
 <path d="m81.25 37.5h-68.75c-1.1484 0.003906-2.0781 0.93359-2.082 2.082v33.336c0.003906 6.0742 2.418 11.902 6.7148 16.199 4.2969 4.2969 10.125 6.7109 16.199 6.7148h18.75c6.0781-0.003906 11.906-2.418 16.203-6.7148 4.2969-4.2969 6.7109-10.125 6.7148-16.199h6.25c2.2109 0 4.332-0.87891 5.8945-2.4414s2.4375-3.6836 2.4375-5.8945v-18.75c0-2.2109-0.875-4.3281-2.4375-5.8906s-3.6836-2.4414-5.8945-2.4414zm4.168 27.082c-0.007813 2.3008-1.8711 4.1602-4.168 4.168h-6.25v-27.082h6.25c2.2969 0.003906 4.1602 1.8672 4.168 4.1641z"/>
</svg>
