<?xml version="1.0" encoding="UTF-8"?>
<svg width="100pt" height="100pt" version="1.1" viewBox="0 0 100 100" xmlns="http://www.w3.org/2000/svg">
 <path d="m49.898 1.2109c-26.969 0-48.988 22.02-48.988 48.992 0 26.969 22.02 48.988 48.988 48.988s48.988-22.02 48.988-48.988c0.003906-26.973-22.02-48.992-48.988-48.992zm-40.91 48.992c0-22.523 18.383-40.91 40.91-40.91 9.0898 0 17.477 2.9297 24.242 7.9805l-8.5859 8.5859c-11.312-1.7188-20-1.7188-31.211 0-1.7188 0.20312-4.0391 0.91016-5.1523 2.2227-1.2109 4.0391-2.3242 8.1836-3.5352 12.426-0.60547-0.50391-1.2109-0.70703-1.918-0.70703h-4.9492c-1.918 0-3.4336 1.6172-3.4336 3.5352 0 1.8164 1.6172 3.4336 3.4336 3.4336h2.2227c-0.60547 1.4141-1.2109 3.5352-1.2109 6.5664 0 5.8594-0.10156 11.816-0.10156 17.676 0 0.20312 0 0.40234 0.10156 0.60547l-2.8281 2.8281c-4.9531-6.7695-7.9844-15.152-7.9844-24.242zm43.234-11.113c-6.668-0.10156-13.332 0.20312-20.305 0.91016-1.1094 0.10156-1.918-0.91016-1.6172-1.918 0.80859-2.8281 1.5156-5.6562 2.2227-8.3828 10.504-1.918 19.797-2.1211 29.898-0.70703zm15.961 0.91016c-1.6172-0.20312-3.332-0.30469-4.9492-0.40234l5.3555-5.3555c0.40234 1.3125 0.80859 2.625 1.2109 3.9375 0.19922 1.0117-0.60938 1.9219-1.6172 1.8203zm-18.285 51.109c-10.605 0-20.305-4.0391-27.574-10.707l7.5742-7.5742c0.80859-0.20312 1.4141-0.70703 1.6172-1.6172l2.7266-2.7266h34.141v2.4258c0 1.1094 0.91016 1.918 1.918 1.918h7.8789c1.0117 0 1.918-0.80859 1.918-1.918 0-5.8594 0-11.816-0.10156-17.676 0-3.0312-0.50391-5.0508-1.2109-6.5664h2.2227c1.918 0 3.5352-1.6172 3.5352-3.4336 0-1.918-1.5156-3.5352-3.5352-3.5352h-4.8477c-0.80859 0-1.4141 0.30469-2.0195 0.70703-0.80859-3.0312-1.7188-6.0625-2.625-9.0898l8.5859-8.5859c6.5664 7.2734 10.605 16.867 10.605 27.477 0.10156 22.52-18.281 40.902-40.809 40.902z"/>
</svg>
