<?xml version="1.0" encoding="UTF-8"?>
<svg width="100pt" height="100pt" version="1.1" viewBox="0 0 100 100" xmlns="http://www.w3.org/2000/svg">
 <path d="m1.6719 41.895h46.656v7.2148c0 0.4375 0.35547 0.79297 0.79297 0.79297h42.176c0.4375 0 0.79297-0.35547 0.79297-0.79297v-7.2148h7.1172c0.4375 0 0.79297-0.35547 0.79297-0.79297s-0.35547-0.79297-0.79297-0.79297h-7.1133v-4.6406h0.074219c1.4141 0 2.5625-1.1484 2.5625-2.5625v-0.023438c0-1.4141-1.1484-2.5625-2.5625-2.5625h-9.7383l-0.003907-3.3789 3.3438-4.2344c0.1875-0.23828 0.22266-0.5625 0.089844-0.83984-0.13281-0.27344-0.41016-0.44922-0.71484-0.44922h-7.0312c-0.30469 0-0.58203 0.17187-0.71484 0.44922-0.13281 0.27344-0.097657 0.59766 0.089843 0.83984l3.3438 4.2344v3.3789h-8.957l0.007812-3.3789 3.3438-4.2344c0.1875-0.23828 0.22266-0.5625 0.089844-0.83984-0.13281-0.27344-0.41016-0.44922-0.71484-0.44922h-7.0312c-0.30469 0-0.58203 0.17187-0.71484 0.44922-0.13281 0.27344-0.097657 0.59766 0.089843 0.83984l3.3438 4.2344v3.2852h-4.5625c0-1.0234-0.39453-1.9844-1.1094-2.707-0.41406-0.41797-0.64844-0.99609-0.64844-1.5898l0.003906-3.7148c0-0.4375-0.35547-0.79297-0.79297-0.79297h-3.5156c-0.4375 0-0.79297 0.35547-0.79297 0.79297v3.7109c0 0.34375-0.082032 0.67969-0.22656 0.98438-0.12891-0.77734-0.48828-1.4922-1.0508-2.0625-0.41406-0.41797-0.64844-0.99609-0.64844-1.5898v-2.8203c0-0.4375-0.35547-0.79297-0.79297-0.79297h-3.5156c-0.4375 0-0.79297 0.35547-0.79297 0.79297v2.8203c0 0.59375-0.23828 1.1719-0.64844 1.5898-0.71484 0.72266-1.1094 1.6836-1.1094 2.707v2.7656h-1.832c-1.4141 0-2.5625 1.1484-2.5625 2.5625v0.023438c0 1.4141 1.1484 2.5625 2.5625 2.5625h0.074219v4.6406h-46.656c-0.4375 0-0.79297 0.35547-0.79297 0.79297s0.35547 0.79297 0.79297 0.79297zm58.789-18.688h1.9258v2.125h-1.9258zm-8.7891 5.3398h5.4414v1.9727h-5.4414zm-3.418 5.5312c-0.53906 0-0.97656-0.4375-0.97656-0.97656v-0.023437c0-0.53906 0.4375-0.97656 0.97656-0.97656h43.91c0.53906 0 0.97656 0.4375 0.97656 0.97656v0.023437c0 0.53906-0.4375 0.97656-0.97656 0.97656z"/>
 <path d="m14.852 63.25h10.547c0.4375 0 0.79297-0.35547 0.79297-0.79297s-0.35547-0.79297-0.79297-0.79297h-10.547c-0.4375 0-0.79297 0.35547-0.79297 0.79297s0.35547 0.79297 0.79297 0.79297z"/>
 <path d="m28.91 63.25h3.5156c0.4375 0 0.79297-0.35547 0.79297-0.79297s-0.35547-0.79297-0.79297-0.79297h-3.5156c-0.4375 0-0.79297 0.35547-0.79297 0.79297s0.35547 0.79297 0.79297 0.79297z"/>
 <path d="m29.789 65.223h-7.0312c-0.4375 0-0.79297 0.35547-0.79297 0.79297s0.35547 0.79297 0.79297 0.79297h7.0312c0.4375 0 0.79297-0.35547 0.79297-0.79297s-0.35156-0.79297-0.79297-0.79297z"/>
 <path d="m93.828 53.375c-0.085937-0.35938-0.40625-0.60938-0.77344-0.60938h-62.469v-3.6562c0-1.418-1.1445-2.5742-2.5508-2.5742s-2.5508 1.1562-2.5508 2.5742v3.6562h-5.4453v-3.6562c0-1.418-1.1445-2.5742-2.5508-2.5742s-2.5508 1.1562-2.5508 2.5742v3.6562h-7.9922c-0.36719 0-0.6875 0.25391-0.77344 0.60938l-6.1523 25.805c-0.054687 0.23437 0 0.48437 0.14844 0.67578 0.15234 0.19141 0.38281 0.30469 0.625 0.30469h98.414c0.24219 0 0.47266-0.10938 0.62109-0.30078 0.15234-0.19141 0.20703-0.44141 0.14844-0.67578zm-63.246 0.98047h60.832l-2.2617 2.8633-58.57-0.003906zm-10.543-0.003907h5.4414v2.8633h-5.4414zm68.871 4.4492 3.1445 13.539-84.109 0.003906 3.1445-13.539zm-73.973-4.4492v2.8633h-4.0938l-2.2617-2.8633zm-7.6016 0.98438 2.2617 2.8633-3.375 14.539-4 4.0508zm-4.6445 23.234 4.582-4.6406h85.781c0.24219 0 0.47266-0.10938 0.62109-0.30078 0.15234-0.19141 0.20703-0.4375 0.15234-0.67188l-3.4297-14.754 2.2617-2.8633 5.543 23.23z"/>
 <path d="m67.574 65.031h7.0273c0.4375 0 0.79297-0.35547 0.79297-0.79297s-0.35547-0.79297-0.79297-0.79297h-7.0312c-0.4375 0-0.79297 0.35547-0.79297 0.79297 0.003906 0.4375 0.35938 0.79297 0.79688 0.79297z"/>
 <path d="m47.363 65.031h15.816c0.4375 0 0.79297-0.35547 0.79297-0.79297s-0.35547-0.79297-0.79297-0.79297h-15.816c-0.4375 0-0.79297 0.35547-0.79297 0.79297s0.35547 0.79297 0.79297 0.79297z"/>
 <path d="m71.09 67.895h-15.816c-0.4375 0-0.79297 0.35547-0.79297 0.79297s0.35547 0.79297 0.79297 0.79297h15.816c0.4375 0 0.79297-0.35547 0.79297-0.79297s-0.35547-0.79297-0.79297-0.79297z"/>
</svg>
