<?xml version="1.0" encoding="UTF-8"?>
<svg width="100pt" height="100pt" version="1.1" viewBox="0 0 100 100" xmlns="http://www.w3.org/2000/svg">
 <path d="m17.605 62.633c0.56641 0 1.1406-0.16406 1.6484-0.50781l25.23-17.09c1.7695-1.1953 2.3906-3.4648 1.4805-5.3945l-4.2852-9.0938c-0.17188-0.46484-0.55078-1.7734 0.023437-3.1992 0.63281-1.5625 2.0156-2.2578 2.4336-2.4375l16.305-5.3789c1.3789-0.23438 2.0859 0.62109 2.0078 1.3164 0 0.003906-0.042969 0.074219-0.17578 0.19141-0.097657 0.125-1.3398 0.85547-2.3203 1.1094l-12.395 4.9102c-2.3047 0.85938-3.418 3.7656-2.2617 5.9375l13.117 25.973c1.8281 3.4102 6.9141 0.86719 5.25-2.6523l-12.336-24.426 10.719-4.2461c2.9805-1 7.6133-3.4961 5.9453-9.0664-1.0664-3.5586-5.1094-5.6875-9.0195-4.7461-0.36328 0.046875-16.445 5.457-16.777 5.5273-1.4297 0.55469-4.3555 1.9922-5.9414 5.7852-1.4023 3.5898-0.48047 6.4844 0.066406 7.8164 0 0 3.75 7.9609 3.75 7.9609l-24.109 16.332c-2.3984 1.5898-1.1836 5.4219 1.6523 5.3789z"/>
 <path d="m60.105 41.41c0 6.1367 5.0312 11.133 11.215 11.133 14.855-0.5625 14.852-21.703 0-22.262-6.1836 0-11.215 4.9922-11.215 11.133zm11.215-5.2461c2.9375 0 5.332 2.3555 5.332 5.25-0.26562 6.9531-10.395 6.9531-10.66 0 0-2.8945 2.3906-5.25 5.332-5.25z"/>
 <path d="m4.7305 68.566c1.6016 0.68359 3.2109 1.5547 4.9922 2.543 7.8711 3.5586 13.789-0.14062 19.355-3.1641 2.9531-1.1953 6.9492-0.81641 9.7773 0.94141 9.457 6.3477 15.5 3.2852 20.359 0.82422 3.6523-1.8516 6.5469-3.3164 11.094-1.6914 8.1055 4.5391 14.098 7.0586 22.762 1.6367 0.77344-0.45703 1.5039-0.89062 2.2734-1.2461 1.4766-0.67969 2.1211-2.4258 1.4375-3.9023-1.7344-3.1289-4.5469-1.2148-6.7148 0.09375-1.4766 0.89063-2.7969 1.6328-4.5 1.9688-4.3164 1.332-8.8555-2.0039-13.074-4.0078-7.0391-2.5977-11.977-0.10156-15.938 1.9102-4.5469 2.3359-7.9531 3.9492-14.535-0.53516-4.4727-2.8047-10.641-3.3477-15.355-1.3477-5.0117 2.7305-9.5469 5.4883-14.23 3.3086-1.8125-1-3.5898-1.9609-5.4023-2.7344-3.6055-1.4297-5.832 3.8047-2.3008 5.4141z"/>
 <path d="m92.887 76.715c-2.5352 1.1328-4.4023 2.8828-7.1094 3.4492-4.4102 1.4531-8.9805-1.9102-13.277-3.9609-14.492-5.3672-17.84 10.176-30.395 1.4258-4.4766-2.8516-10.691-3.4102-15.434-1.4023-5.0156 2.7266-9.5469 5.4922-14.23 3.3086-1.8125-1-3.5898-1.9609-5.4023-2.7344-3.6016-1.4297-5.8359 3.8047-2.3008 5.4141 1.6016 0.68359 3.2109 1.5547 4.9922 2.543 7.8711 3.5586 13.789-0.14453 19.355-3.1641 2.9531-1.1992 6.9453-0.81641 9.7812 0.94141 9.457 6.3438 15.5 3.2812 20.355 0.82031 3.6523-1.8516 6.5469-3.3164 11.098-1.6914 8.1211 4.543 14.094 7.0586 22.762 1.6367 0.77344-0.45703 1.5039-0.89062 2.2734-1.2461 3.4766-1.7109 1.1016-6.8789-2.4648-5.3398z"/>
</svg>
