<?xml version="1.0" encoding="UTF-8"?>
<svg width="100pt" height="100pt" version="1.1" viewBox="0 0 100 100" xmlns="http://www.w3.org/2000/svg">
 <path d="m10 36.301c0 1 1.3008 1.3008 1.8008 0.5 2.6992-3.8984 6-7.5 9.3008-9.5-2.8984 5-2.3008 11.898 1.1992 17.398 0.5 0.80078 1.8008 0.5 1.8008-0.5 0.19922-7.6992 3.1016-13.102 7.6016-15.102 5.8008 9.8008 7.1016 20 7 27.102-11.305 2.4023-17.102 9.3008-18.703 13.801 1.6992 0.89844 2.8984 2 3.6992 2.8008 0.19922 0.19922 0.5 0.39844 0.69922 0.60156 0.19922-0.19922 0.5-0.39844 0.69922-0.60156 1.8984-1.8008 5.6016-5.1016 12.102-5.1016s10.102 3.3008 12.102 5c0.19922 0.19922 0.5 0.39844 0.69922 0.60156 0.19922-0.19922 0.5-0.39844 0.69922-0.60156 2-1.6992 5.6016-5 12.102-5s10.102 3.3008 12.102 5c0.19922 0.19922 0.5 0.5 0.69922 0.60156 0.19922-0.19922 0.5-0.39844 0.69922-0.60156 0.89844-0.80078 2.3008-2 4.1016-3-2.6992-5.6992-15-14.898-28.801-14.898-0.80078 0-1.5 0-2.1992 0.10156-1.6016-6.8008-5-18.199-12.301-28.898 4.8008-2.1016 10.699-1.1016 16.602 3.6992 0.69922 0.60156 1.8008-0.10156 1.6016-1.1016-1.8984-6.6016-7-11.602-12.5-12.5 3.1992-1.1016 7.3984-1.6016 12.699-1.6016 0.89844 0 1.3984-1.1992 0.60156-1.8008-6.3047-4.6992-14.605-5.5-20.406-2.8008 0.60156-2 1.5-4 2.8008-5.8984 0.5-0.80078-0.30078-1.8008-1.1992-1.5-4.6992 1.8984-8.5 5.5-10.199 9.8008-5-1.1016-10.898 0-15.801 3.3008-0.80078 0.60156-0.30078 1.8984 0.69922 1.8008 2.6016-0.30078 5.1992-0.10156 7.6016 0.39844-5.6016 3.0977-9.9023 10.5-9.6016 18.5z"/>
 <path d="m11.699 79.102c2.1016 0 3 0.80078 4.5 2.1016 1.6992 1.5 4 3.6016 8.3008 3.6016s6.6016-2.1016 8.3008-3.6016c1.5-1.3008 2.3984-2.1016 4.5-2.1016 2.1016 0 3 0.80078 4.5 2.1016 1.6992 1.5 4 3.6016 8.3008 3.6016 4.3008 0 6.6016-2.1016 8.3008-3.6016 1.5-1.3008 2.3984-2.1016 4.5-2.1016 2.1016 0 3 0.80078 4.5 2.1016 1.6992 1.5 4 3.6016 8.3008 3.6016s6.6016-2.1016 8.3008-3.6016c1.5-1.3008 2.3984-2.1016 4.5-2.1016 1.6016 0 2.8984-1.3008 2.8984-2.8984 0-1.6016-1.3008-2.8984-2.8984-2.8984-4.3008 0-6.6016 2.1016-8.3008 3.6016-1.5 1.3008-2.3984 2.1016-4.5 2.1016s-3-0.80078-4.5-2.1016c-1.6992-1.5-4-3.6016-8.3008-3.6016-4.3008 0-6.6016 2.1016-8.3008 3.6016-1.5 1.3008-2.3984 2.1016-4.5 2.1016-2.1016 0-3-0.80078-4.5-2.1016-1.6992-1.5-4-3.6016-8.3008-3.6016s-6.6016 2.1016-8.3008 3.6016c-1.5 1.3008-2.3984 2.1016-4.5 2.1016s-3-0.80078-4.5-2.1016c-1.6992-1.5-4-3.6016-8.3008-3.6016-1.6016 0-2.8984 1.3008-2.8984 2.8984 0 1.6953 1.3008 2.8984 2.8984 2.8984z"/>
 <path d="m88.301 86.102c-4.3008 0-6.6016 2.1016-8.3008 3.6016-1.5 1.3008-2.3984 2.1016-4.5 2.1016s-3-0.80078-4.5-2.1016c-1.6992-1.5-4-3.6016-8.3008-3.6016s-6.6016 2.1016-8.3008 3.6016c-1.3984 1.2969-2.2969 2.0977-4.3984 2.0977s-3-0.80078-4.5-2.1016c-1.6992-1.5-4-3.6016-8.3008-3.6016s-6.6016 2.1016-8.3008 3.6016c-1.5 1.3008-2.3984 2.1016-4.5 2.1016-2.1016 0-3-0.80078-4.5-2.1016-1.6992-1.5-4-3.6016-8.3008-3.6016-1.6016 0-2.8984 1.3008-2.8984 2.8984 0 1.6016 1.3008 2.8984 2.8984 2.8984 2.1016 0 3 0.80078 4.5 2.1016 1.6992 1.5 4 3.6016 8.3008 3.6016 4.3008 0 6.6016-2.1016 8.3008-3.6016 1.5-1.3008 2.3984-2.1016 4.5-2.1016 2.1016 0 3 0.80078 4.5 2.1016 1.6992 1.5 4 3.6016 8.3008 3.6016s6.6016-2.1016 8.3008-3.6016c1.5-1.3008 2.3984-2.1016 4.5-2.1016 2.1016 0 3 0.80078 4.5 2.1016 1.6992 1.5 4 3.6016 8.3008 3.6016 4.3008 0 6.6016-2.1016 8.3008-3.6016 1.5-1.3008 2.3984-2.1016 4.5-2.1016 1.6016 0 2.8984-1.3008 2.8984-2.8984-0.10156-1.5977-1.4023-2.8945-3-2.8945z"/>
</svg>
