<?xml version="1.0" encoding="UTF-8"?>
<svg width="100pt" height="100pt" version="1.1" viewBox="0 0 100 100" xmlns="http://www.w3.org/2000/svg">
 <path d="m83.449 41.672-1.5508 1.1992c7.6914 2.3008 12.422 5.4414 12.422 8.8984 0 7.0781-19.84 12.801-44.312 12.801-24.492 0-44.312-5.7188-44.312-12.801 0-3.9219 6.082-7.4414 15.68-9.7812l-1.3945-1.4219c-10.988 3.2188-18.016 8.1602-18.016 13.699 0 9.6992 21.508 17.559 48.039 17.559 26.512 0 48.02-7.8594 48.02-17.559 0.007812-4.9336-5.5859-9.3945-14.574-12.594z"/>
 <path d="m41.984 39.172c2.6094-0.14062 5.2773-0.21875 8.0273-0.21875 4.8086 0 9.4375 0.21875 13.777 0.64062l-1.9805-2.0195c-0.097656-0.10156-0.19531-0.21875-0.27344-0.33984-3.6875-0.33984-7.5547-0.51953-11.52-0.51953-1.7266 0-3.4141 0.039062-5.082 0.10156-0.11719 0.16016-0.29297 0.32031-0.47266 0.46094z"/>
 <path d="m27.691 39.457-6.1211-6.1211c-0.78125-0.78125-2.0469-0.78125-2.8281 0s-0.78125 2.0469 0 2.8281l6.2461 6.2461v5.043c-1.1758 0.14844-2.2852 0.33984-3.2695 0.57812l0.23828 0.97266c0.91406-0.22266 1.9414-0.40234 3.0312-0.54297v3.3281h9.625v-1.9062c0.1875 0.035157 0.39453 0.0625 0.56641 0.10547l0.13672-0.5625c-0.21484-0.050781-0.46875-0.085937-0.70312-0.12891v-0.96484c1.4766 0.14453 2.8594 0.36719 4.0586 0.65625l0.23438-0.97266c-1.2695-0.30078-2.7344-0.53516-4.293-0.68359v-4.5547l9.4531-7.0977c0.88281-0.66406 1.0625-1.918 0.39844-2.8008-0.66406-0.88281-1.918-1.0586-2.8008-0.39844l-9.2891 6.9727z"/>
 <path d="m16.25 35.59c-0.058594-0.28125-0.10156-0.55859-0.10156-0.83984 0-1.0781 0.42187-2.0781 1.1797-2.8398 0.76172-0.73828 1.7617-1.1602 2.8203-1.1602 0.80078 0 1.5391 0.21875 2.1797 0.64062-0.37891-1.8398-2-3.2188-3.9414-3.2188-2.2188 0-4.0195 1.8008-4.0195 4.0195 0.003906 1.4375 0.74219 2.6797 1.8828 3.3984z"/>
 <path d="m33.82 33.934c0 5.3633-8.0391 5.3633-8.0391 0 0-5.3594 8.0391-5.3594 8.0391 0"/>
 <path d="m17.781 51.352-1 0.03125c0.054688 1.7148 2.7539 2.7227 5.0117 3.2617l0.23438-0.97266c-3.1055-0.74219-4.2266-1.7148-4.2461-2.3203z"/>
 <path d="m38.738 53.664 0.23438 0.97266c2.2695-0.54688 4.9727-1.5703 4.9727-3.2656v-0.15234l-0.99609 0.11328c-0.003907 0.60547-1.1055 1.582-4.2109 2.332z"/>
 <path d="m27.508 55.449c0.9375 0.058593 1.8984 0.085937 2.8555 0.085937 0.98438 0 1.957-0.03125 2.8945-0.089844l-0.0625-0.99609c-1.8086 0.11328-3.7695 0.11719-5.625 0.003906z"/>
 <path d="m35.219 52.703 0.13672 0.5625c1.3164-0.31641 2.8828-0.91016 2.8828-1.8945v-0.089844l-0.57812 0.066406c0 0.35156-0.64062 0.91797-2.4414 1.3555z"/>
 <path d="m23.066 51.359-0.57812 0.019531c0.03125 0.99609 1.5977 1.5781 2.9062 1.8906l0.13672-0.5625c-1.8008-0.43359-2.4531-0.99609-2.4648-1.3477z"/>
 <path d="m32.004 53.156c-1.0469 0.066406-2.1875 0.066406-3.2617 0l-0.035157 0.57812c0.54297 0.035156 1.1016 0.050781 1.6562 0.050781 0.57031 0 1.1367-0.019531 1.6758-0.050781z"/>
 <path d="m70.613 42.41v5.043c-1.1758 0.14844-2.2852 0.33984-3.2695 0.57812l0.23828 0.97266c0.91406-0.22266 1.9414-0.40234 3.0312-0.54297v3.3281h9.625v-1.9062c0.1875 0.035157 0.39453 0.0625 0.56641 0.10547l0.13672-0.5625c-0.21484-0.050781-0.46875-0.085937-0.70312-0.12891v-0.96484c1.4766 0.14453 2.8594 0.36719 4.0586 0.65625l0.23438-0.97266c-1.2695-0.30078-2.7344-0.53516-4.293-0.68359v-4.5547l9.4531-7.0977c0.88281-0.66406 1.0625-1.918 0.39844-2.8008-0.66406-0.88281-1.918-1.0586-2.8008-0.39844l-9.2891 6.9727h-4.6836l-6.1211-6.1211c-0.78125-0.78125-2.0469-0.78125-2.8281 0s-0.78125 2.0469 0 2.8281z"/>
 <path d="m79.445 33.934c0 5.3633-8.0391 5.3633-8.0391 0 0-5.3594 8.0391-5.3594 8.0391 0"/>
 <path d="m63.406 51.352-1 0.03125c0.054688 1.7148 2.7539 2.7227 5.0117 3.2617l0.23438-0.97266c-3.1055-0.74219-4.2266-1.7148-4.2461-2.3203z"/>
 <path d="m89.57 51.371v-0.15234l-0.99609 0.11328c0 0.60547-1.1016 1.5859-4.2109 2.3359l0.23438 0.97266c2.2695-0.55078 4.9727-1.5703 4.9727-3.2695z"/>
 <path d="m73.133 55.449c0.9375 0.058593 1.8984 0.085937 2.8555 0.085937 0.98438 0 1.957-0.03125 2.8945-0.089844l-0.0625-0.99609c-1.8086 0.11328-3.7695 0.11719-5.625 0.003906z"/>
 <path d="m80.844 52.703 0.13672 0.5625c1.3164-0.31641 2.8828-0.91016 2.8828-1.8945v-0.089844l-0.57812 0.066406c0 0.35156-0.64062 0.91797-2.4414 1.3555z"/>
 <path d="m77.629 53.156c-1.0469 0.066406-2.1875 0.066406-3.2617 0l-0.035157 0.57812c0.54297 0.035156 1.1016 0.050781 1.6562 0.050781 0.57031 0 1.1367-0.019531 1.6758-0.050781z"/>
 <path d="m68.691 51.359-0.57812 0.019531c0.03125 0.99609 1.5977 1.5781 2.9062 1.8906l0.13672-0.5625c-1.8008-0.43359-2.4531-0.99609-2.4648-1.3477z"/>
</svg>
