<?xml version="1.0" encoding="UTF-8"?>
<svg width="100pt" height="100pt" version="1.1" viewBox="0 0 100 100" xmlns="http://www.w3.org/2000/svg">
 <path d="m26.398 32.953v46.879c0 2.5547 2.0781 4.6328 4.6289 4.6328h0.69922v-56.141h-0.69922c-2.5508 0-4.6289 2.0781-4.6289 4.6289z"/>
 <path d="m62.777 28.324h3.2734v56.145h-3.2734z"/>
 <path d="m60.371 26.102v-12.477c0-2.7227-2.2148-4.9336-4.9336-4.9336h-10.871c-2.7227 0-4.9336 2.2148-4.9336 4.9336v12.473h2.2227l-0.003907-12.473c0-1.4961 1.2188-2.7109 2.7148-2.7109h10.871c1.4961 0 2.7148 1.2148 2.7148 2.7109v12.473z"/>
 <path d="m33.949 28.324h3.2734v56.145h-3.2734z"/>
 <path d="m33.902 88.109c0 1.7656 1.4336 3.1992 3.1992 3.1992 1.7656 0 3.1992-1.4336 3.1992-3.1992v-1.4219h-6.3984z"/>
 <path d="m39.445 28.324h21.109v56.145h-21.109z"/>
 <path d="m59.699 88.109c0 1.7656 1.4336 3.1992 3.1992 3.1992 1.7656 0 3.1992-1.4336 3.1992-3.1992v-1.4219h-6.3984z"/>
 <path d="m68.973 28.324h-0.69922v56.145h0.69922c2.5547 0 4.6289-2.0781 4.6289-4.6328v-46.883c0-2.5508-2.0781-4.6289-4.6289-4.6289z"/>
</svg>
