<?xml version="1.0" encoding="UTF-8"?>
<svg width="100pt" height="100pt" version="1.1" viewBox="0 0 100 100" xmlns="http://www.w3.org/2000/svg">
 <path d="m47.18 73.332h4.6992c2.7695 7.1758 14.051 7.2891 17.07 0.26172l4.7109 0.1875c1.4062 4.1289 5.8906 6.2617 10.062 5.6914l0.67188 4.9961c-4.9375 0.67578-10.152-1.1914-13.312-5.0898-5.7539 6.0898-16.016 5.9688-21.551-0.36328-5.6406 6.4453-16.234 6.4492-21.879 0.007813-2.9727 3.3984-7.5547 5.1289-12.039 4.8086l0.35547-5.0352c3.8789 0.27734 7.8828-1.7305 9.3281-5.4648h4.6992c2.8047 7.2734 14.371 7.2734 17.184 0m-17.188-18.172c2.8125 7.2852 14.371 7.2812 17.188 0h4.6992c2.7422 7.1016 14.004 7.375 17.07 0.26172l4.7109 0.1875c1.3984 4.125 5.8984 6.2617 10.062 5.6914l0.67188 4.9961c-4.9375 0.67578-10.152-1.1875-13.312-5.082-5.7344 6.0742-15.996 5.9727-21.551-0.36719-5.6211 6.4297-16.211 6.4766-21.879 0.003906-2.9766 3.3984-7.5508 5.1328-12.039 4.8086l0.35547-5.0352c3.8828 0.27734 7.8828-1.7305 9.3281-5.4648l4.6953-0.003906zm9.4102-20.996h21.438v2.9258h5.7305v-25.816l7.2188-7.2227-4.0508-4.0508-8.8984 8.8984v8.2031l-21.438 0.003907v-5.832l7.2227-7.2227-4.0508-4.0508-8.8984 8.8984v28.191h5.7266zm0-5.7266v-5.6016h21.438v5.6016zm59.113 11.328h-97.031v60.234h97.035v-60.234z" fill-rule="evenodd"/>
</svg>
