<?xml version="1.0" encoding="UTF-8"?>
<svg width="100pt" height="100pt" version="1.1" viewBox="0 0 100 100" xmlns="http://www.w3.org/2000/svg">
 <path d="m45.09 53.66h-12.559v28.34h12.559zm-5.168 21.09c0.61328 0.61719 0.61328 1.6133 0 2.2305-0.29297 0.29688-0.69531 0.46094-1.1133 0.46094-0.41016 0.003906-0.8125-0.15234-1.1094-0.44141-0.29297-0.30078-0.45703-0.69922-0.46094-1.1211 0.003907-0.41016 0.16797-0.80859 0.46094-1.0977v-0.050781c0.60938-0.57422 1.5625-0.57422 2.1719 0zm-1.1094-3h-0.003906c1.0977 0.015625 2.1445 0.46484 2.9102 1.25 0.77734 0.76953 1.2109 1.8125 1.2109 2.9062 0 1.0898-0.43359 2.1367-1.2109 2.9023-1.6094 1.6016-4.207 1.6016-5.8203 0-0.77344-0.76953-1.2109-1.8164-1.2109-2.9102 0-1.0898 0.4375-2.1406 1.2109-2.9102l0.078124-0.070312 0.003907 0.003906c0.76172-0.72656 1.7773-1.1328 2.8281-1.1328zm-4-14.551h-0.003906c-0.66016-0.058594-1.1641-0.60938-1.1641-1.2734 0-0.66406 0.50391-1.2188 1.1641-1.2773h0.85156c0.35938-0.03125 0.71094 0.089843 0.97656 0.33203 0.26562 0.24219 0.41797 0.58594 0.41797 0.94531s-0.15234 0.69922-0.41797 0.94531c-0.26562 0.24219-0.61719 0.35938-0.97656 0.32812zm0 4.2305h-0.003906c-0.66016-0.058594-1.1641-0.61328-1.1641-1.2734 0-0.66406 0.50391-1.2188 1.1641-1.2773h1.5195c0.35938-0.03125 0.71484 0.089844 0.98047 0.33203 0.26172 0.24219 0.41406 0.58594 0.41406 0.94531s-0.15234 0.69922-0.41406 0.94141c-0.26562 0.24219-0.62109 0.36328-0.98047 0.33203zm6.1484 0c-0.35938 0.03125-0.71484-0.089844-0.97656-0.33203-0.26562-0.24219-0.41797-0.58203-0.41797-0.94141s0.15234-0.70312 0.41797-0.94531c0.26172-0.24219 0.61719-0.36328 0.97656-0.33203h1.5195c0.66016 0.058594 1.168 0.61328 1.168 1.2773 0 0.66016-0.50781 1.2148-1.168 1.2734zm-6.1484 4.2383-0.003906 0.003906c-0.66016-0.058594-1.1641-0.61328-1.1641-1.2773 0-0.66406 0.50391-1.2148 1.1641-1.2734h1.5195c0.35938-0.03125 0.71484 0.085937 0.98047 0.32812 0.26172 0.24219 0.41406 0.58594 0.41406 0.94531s-0.15234 0.70312-0.41406 0.94531c-0.26562 0.24219-0.62109 0.36328-0.98047 0.33203zm6.1484 0v0.003906c-0.35938 0.03125-0.71484-0.089844-0.97656-0.33203-0.26562-0.24219-0.41797-0.58594-0.41797-0.94531s0.15234-0.70312 0.41797-0.94531c0.26172-0.24219 0.61719-0.35938 0.97656-0.32812h1.5195c0.66016 0.058594 1.168 0.60938 1.168 1.2734 0 0.66406-0.50781 1.2188-1.168 1.2773zm-6.1211 4.2305c-0.66016-0.058594-1.168-0.60938-1.168-1.2734s0.50781-1.2148 1.168-1.2734h1.5195c0.35938-0.035156 0.71484 0.085938 0.97656 0.32813 0.26562 0.24219 0.41797 0.58594 0.41797 0.94531s-0.15234 0.70312-0.41797 0.94531c-0.26172 0.24219-0.61719 0.36328-0.97656 0.32813zm6.1484 0c-0.35547 0.035156-0.71094-0.085938-0.97656-0.32813-0.26562-0.24219-0.41406-0.58594-0.41406-0.94531s0.14844-0.70312 0.41406-0.94531c0.26562-0.24219 0.62109-0.36328 0.97656-0.32813h1.5234c0.66016 0.058594 1.1641 0.60938 1.1641 1.2734s-0.50391 1.2148-1.1641 1.2734zm-24-8h13.012v4.3984l-19.52 0.003906v-48.551h79v48.578h-41.84v-4.3984h35.359c0.35938 0.03125 0.71094-0.089844 0.97656-0.33203 0.26563-0.24219 0.41797-0.58203 0.41797-0.94141s-0.15234-0.70312-0.41797-0.94531c-0.26562-0.24219-0.61719-0.36328-0.97656-0.33203h-35.359v-7c0-0.69922-0.57031-1.2695-1.2695-1.2695h-15.121c-0.69531 0.011719-1.25 0.57812-1.25 1.2695v7h-13c-0.35938-0.03125-0.71094 0.089844-0.97656 0.33203-0.26563 0.24219-0.41797 0.58594-0.41797 0.94531s0.15234 0.69922 0.41797 0.94141c0.26562 0.24219 0.61719 0.36328 0.97656 0.33203zm58.789 6.9492 8.5195 11.34 0.003906 0.003906c0.30078 0.55078 0.15625 1.2383-0.34766 1.6211-0.5 0.37891-1.2031 0.33594-1.6523-0.10156l-9.6914-12.832zm-48.398 0-9.6602 12.891c-0.44922 0.44141-1.1523 0.48438-1.6523 0.10156-0.5-0.37891-0.64844-1.0703-0.34766-1.6211l8.5195-11.34z" fill-rule="evenodd"/>
</svg>
