<?xml version="1.0" encoding="UTF-8"?>
<svg width="100pt" height="100pt" version="1.1" viewBox="0 0 100 100" xmlns="http://www.w3.org/2000/svg">
 <path d="m10.926 34.656h78.312v4.457h-78.312zm0-8.9141h78.312v4.457h-78.312zm89.074 26.734h-100l7.5625 8.9492h84.879zm-64.25 22.797c0.96094-1.8047 1.9102-3.5859 1.9102-9.3906h-4.4609c0 4.7266-0.68359 6.0039-1.3711 7.3008-0.98438 1.8477-1.9883 3.7266-1.9883 10.023h4.4609c0-5.2188 0.73047-6.5859 1.4492-7.9336zm-14.648 0c0.96484-1.8047 1.9102-3.5859 1.9102-9.3906h-4.4609c0 4.7266-0.68359 6.0039-1.375 7.3008-0.98828 1.8477-1.9883 3.7266-1.9883 10.023h4.4609c0.003906-5.2188 0.73437-6.5859 1.4531-7.9336zm26.75-9.3906c0 4.7266-0.68359 6.0039-1.3711 7.3008-0.98438 1.8477-1.9883 3.7266-1.9883 10.023h4.4609c0-5.2188 0.73047-6.5898 1.4492-7.9336 0.96484-1.8047 1.9141-3.5859 1.9141-9.3906zm14.645 0c0 4.7266-0.68359 6.0039-1.3711 7.3008-0.98438 1.8477-1.9883 3.7266-1.9883 10.023h4.4609c0-5.2227 0.73047-6.5898 1.4492-7.9336 0.96094-1.8047 1.9141-3.5859 1.9141-9.3906zm14.648 0c0 4.7266-0.68359 6.0039-1.3711 7.3008-0.98438 1.8477-1.9883 3.7266-1.9883 10.023h4.4609c0-5.2227 0.73047-6.5898 1.4492-7.9336 0.96094-1.8047 1.9102-3.5859 1.9102-9.3906zm15.293-49.09h-84.875l-7.5625 8.9492v22.281h100v-22.281z" fill-rule="evenodd"/>
</svg>
