<?xml version="1.0" encoding="UTF-8"?>
<svg width="100pt" height="100pt" version="1.1" viewBox="0 0 100 100" xmlns="http://www.w3.org/2000/svg">
 <path d="m5.0195 66.312c-1.1016 0.039062-2.0234-0.82031-2.0625-1.9219-0.039062-1.1016 0.82031-2.0234 1.9219-2.0625 1.1289-0.039063 2.1758-0.47266 2.9922-1.1641 0.8125-0.69531 1.4023-1.6602 1.6172-2.7734 0.21094-1.082 1.2617-1.7891 2.3438-1.5781 0.82031 0.16016 1.4258 0.80469 1.5781 1.5781 0.21875 1.1133 0.80469 2.0781 1.6211 2.7734 0.79688 0.67969 1.8164 1.1094 2.918 1.1641 1.1016-0.054687 2.1211-0.48047 2.918-1.1641 0.8125-0.69141 1.4023-1.6602 1.6211-2.7734 0.21094-1.082 1.2617-1.7891 2.3438-1.5781 0.82031 0.16016 1.4258 0.80469 1.5781 1.5781 0.21875 1.1133 0.80469 2.0781 1.6211 2.7734 0.79688 0.67969 1.8164 1.1094 2.9219 1.1641 1.1016-0.054687 2.1211-0.48047 2.918-1.1641 0.8125-0.69531 1.4023-1.6602 1.6211-2.7734 0.21094-1.082 1.2617-1.7891 2.3438-1.5781 0.82031 0.16016 1.4258 0.80469 1.5781 1.5781 0.21875 1.1133 0.80469 2.0781 1.6211 2.7734 0.79688 0.67969 1.8164 1.1094 2.918 1.1641 1.1016-0.054687 2.1211-0.48047 2.918-1.1641 0.8125-0.69141 1.4023-1.6602 1.6211-2.7734 0.21094-1.082 1.2617-1.7891 2.3438-1.5781 0.82031 0.16016 1.4258 0.80469 1.5781 1.5781 0.21875 1.1133 0.80469 2.0781 1.6211 2.7734 0.79688 0.67969 1.8164 1.1094 2.918 1.1641 1.1055-0.054687 2.1211-0.48047 2.918-1.1602 0.8125-0.69141 1.4023-1.6602 1.6211-2.7734 0.21094-1.082 1.2617-1.7891 2.3438-1.5781 0.82031 0.16016 1.4258 0.80469 1.5781 1.5781 0.21875 1.1133 0.80469 2.0781 1.6211 2.7734 0.79688 0.67969 1.8164 1.1094 2.918 1.1641 1.1016-0.054687 2.1211-0.48047 2.918-1.1641 0.8125-0.69141 1.4023-1.6602 1.6211-2.7734 0.21094-1.082 1.2617-1.7891 2.3438-1.5781 0.82031 0.16016 1.4258 0.80469 1.5781 1.5781 0.21875 1.1133 0.80469 2.0781 1.6211 2.7734 0.8125 0.69531 1.8594 1.125 2.9883 1.1641 1.1016 0.039063 1.9609 0.96094 1.9219 2.0625-0.039062 1.1016-0.96094 1.9609-2.0625 1.9219-2.0586-0.074218-3.9609-0.85547-5.4414-2.1172-0.35156-0.30078-0.68359-0.62891-0.98438-0.98438-0.30078 0.35547-0.63281 0.68359-0.98438 0.98438-1.4766 1.2578-3.3672 2.0391-5.4219 2.1172h-0.16406c-2.0586-0.074218-3.9609-0.85547-5.4414-2.1172-0.35156-0.30078-0.68359-0.62891-0.98437-0.98438-0.30469 0.35547-0.63281 0.68359-0.98828 0.98438-1.4766 1.2578-3.3672 2.0352-5.4219 2.1172h-0.16406c-2.0586-0.074218-3.9609-0.85547-5.4414-2.1172-0.35156-0.30078-0.68359-0.62891-0.98437-0.98438-0.30078 0.35547-0.63281 0.68359-0.98438 0.98438-1.4766 1.2578-3.3672 2.0391-5.4219 2.1172h-0.16406c-2.0586-0.074218-3.9609-0.85547-5.4414-2.1172-0.35156-0.30078-0.68359-0.62891-0.98438-0.98438-0.30469 0.35547-0.63281 0.68359-0.98438 0.98438-1.4766 1.2578-3.3672 2.0391-5.4219 2.1172h-0.16406c-2.0625-0.074218-3.9609-0.85547-5.4453-2.1172-0.35156-0.30078-0.68359-0.62891-0.98438-0.98438-0.30078 0.35547-0.63281 0.68359-0.98438 0.98438-1.4766 1.2578-3.3711 2.0391-5.4219 2.1172h-0.16406c-2.0586-0.074218-3.9609-0.85547-5.4414-2.1172-0.35156-0.30078-0.68359-0.62891-0.98438-0.98438-0.30078 0.35547-0.63281 0.68359-0.98438 0.98438-1.4805 1.2656-3.3828 2.043-5.4414 2.1172zm57.469-38.59c2.7148 0 5.1836 1.1055 6.9727 2.8906 1.8594 1.8594 2.9023 4.3516 2.9023 6.9805 0 2.7148-1.1055 5.1836-2.8906 6.9727-1.8594 1.8594-4.3516 2.9023-6.9805 2.9023-2.7148 0-5.1836-1.1055-6.9727-2.8906-1.8594-1.8594-2.9023-4.3516-2.9023-6.9805 0-2.7148 1.1055-5.1836 2.8906-6.9727 1.8594-1.8594 4.3516-2.9023 6.9805-2.9023zm4.1562 5.7148c-1.0586-1.0625-2.5312-1.7148-4.1562-1.7148-1.6289 0-3.0977 0.65625-4.1523 1.7109-1.0664 1.0625-1.7227 2.5352-1.7227 4.1641s0.65625 3.0977 1.7109 4.1523c1.0625 1.0664 2.5352 1.7227 4.1641 1.7227 1.6289 0 3.0977-0.65625 4.1523-1.7109 1.0664-1.0625 1.7227-2.5352 1.7227-4.1641s-0.65625-3.0977-1.7188-4.1602zm-35.305 22.352c-0.78125 0.78125-2.0469 0.78125-2.8281 0s-0.78125-2.0469 0-2.8281l8.5078-8.5078-9.1797-9.1797c-0.78125-0.78125-0.78125-2.0469 0-2.8281 3.5781-3.3164 7.1367-7.1328 10.609-10.609 1.0117-1.0117 2.3477-1.5195 3.6797-1.5195 1.332 0 2.668 0.50781 3.6797 1.5195 1.0117 1.0117 1.5195 2.3477 1.5195 3.6797s-0.50781 2.6641-1.5195 3.6797l-4.6602 4.6602 18.898 18.898c0.78125 0.78125 0.78125 2.0469 0 2.8281s-2.0469 0.78125-2.8281 0l-20.312-20.312c-0.78125-0.78125-0.78125-2.0469 0-2.8281l6.0742-6.0742c0.23438-0.23438 0.34766-0.54297 0.34766-0.85156 0-0.3125-0.11719-0.62109-0.34766-0.85156-0.23438-0.23437-0.54297-0.34766-0.85156-0.34766s-0.61719 0.11719-0.85156 0.34766l-9.1992 9.1875 9.1836 9.1836c0.78125 0.78125 0.78125 2.0469 0 2.8281l-9.9219 9.9219zm-14.211 23.891c-1.1016 0.039062-2.0234-0.82031-2.0625-1.9219-0.039062-1.1016 0.82031-2.0234 1.9219-2.0625 1.1289-0.039062 2.1758-0.47266 2.9922-1.1641 0.8125-0.69531 1.4023-1.6602 1.6172-2.7734 0.21094-1.082 1.2617-1.7891 2.3438-1.5781 0.82031 0.16016 1.4258 0.80469 1.5781 1.5781 0.21875 1.1133 0.80859 2.0781 1.6211 2.7734 0.79688 0.67969 1.8164 1.1094 2.918 1.1641 1.1016-0.054687 2.1211-0.48047 2.918-1.1641 0.8125-0.69141 1.4023-1.6602 1.6211-2.7734 0.21094-1.082 1.2617-1.7891 2.3438-1.5781 0.82031 0.16016 1.4258 0.80469 1.5781 1.5781 0.21875 1.1133 0.80859 2.0781 1.6211 2.7734 0.79688 0.67969 1.8164 1.1094 2.918 1.1641 1.1016-0.054687 2.1211-0.48047 2.918-1.1641 0.8125-0.69141 1.4023-1.6602 1.6211-2.7734 0.21094-1.082 1.2617-1.7891 2.3438-1.5781 0.82031 0.16016 1.4258 0.80469 1.5781 1.5781 0.21875 1.1133 0.80469 2.0781 1.6211 2.7734 0.79688 0.67969 1.8164 1.1094 2.918 1.1641 1.1016-0.054687 2.1211-0.48047 2.918-1.1641 0.8125-0.69531 1.4023-1.6602 1.6211-2.7734 0.21094-1.082 1.2617-1.7891 2.3438-1.5781 0.82031 0.16016 1.4258 0.80469 1.5781 1.5781 0.21875 1.1133 0.80469 2.0781 1.6211 2.7734 0.79688 0.67969 1.8164 1.1094 2.918 1.1641 1.1016-0.054687 2.1211-0.48047 2.918-1.1641 0.8125-0.69531 1.4023-1.6602 1.6211-2.7734 0.21094-1.082 1.2617-1.7891 2.3438-1.5781 0.82031 0.16016 1.4258 0.80469 1.5781 1.5781 0.21875 1.1133 0.80469 2.0781 1.6211 2.7734 0.79688 0.67969 1.8164 1.1094 2.918 1.1641 1.1016-0.054687 2.1211-0.48047 2.918-1.1641 0.8125-0.69531 1.4023-1.6602 1.6211-2.7734 0.21094-1.082 1.2617-1.7891 2.3438-1.5781 0.82031 0.16016 1.4258 0.80469 1.5781 1.5781 0.21875 1.1133 0.80469 2.0781 1.6211 2.7734s1.8594 1.125 2.9883 1.1641c1.1016 0.039063 1.9609 0.96094 1.9219 2.0625-0.039062 1.1016-0.96094 1.9609-2.0625 1.9219-2.0586-0.074219-3.9609-0.85547-5.4414-2.1172-0.35156-0.30078-0.68359-0.62891-0.98438-0.98438-0.30469 0.35547-0.63281 0.68359-0.98438 0.98438-1.4766 1.2578-3.3711 2.0391-5.4219 2.1172h-0.16406c-2.0586-0.074219-3.9609-0.85547-5.4414-2.1172-0.35547-0.30078-0.68359-0.63281-0.98828-0.98438-0.30078 0.35547-0.63281 0.68359-0.98438 0.98438-1.4766 1.2578-3.3711 2.0391-5.4219 2.1172h-0.16406c-2.0586-0.074219-3.9609-0.85547-5.4414-2.1172-0.35156-0.30078-0.68359-0.62891-0.98438-0.98438-0.30469 0.35547-0.63281 0.68359-0.98438 0.98438-1.4766 1.2578-3.3711 2.0391-5.4219 2.1172h-0.16406c-2.0586-0.074219-3.9609-0.85547-5.4414-2.1172-0.35547-0.30078-0.68359-0.62891-0.98828-0.98438-0.30078 0.35547-0.63281 0.68359-0.98438 0.98438-1.4766 1.2578-3.3672 2.0391-5.4219 2.1172h-0.16406c-2.0586-0.074219-3.9609-0.85547-5.4414-2.1172-0.35156-0.30078-0.68359-0.62891-0.98438-0.98438-0.30078 0.35547-0.63281 0.68359-0.98437 0.98438-1.4766 1.2578-3.3672 2.0391-5.4219 2.1172h-0.16406c-2.0586-0.074219-3.9609-0.85547-5.4414-2.1172-0.35156-0.30078-0.68359-0.62891-0.98438-0.98438-0.30469 0.35547-0.63281 0.68359-0.98438 0.98438-1.4805 1.2656-3.3828 2.043-5.4414 2.1172z"/>
</svg>
