<?xml version="1.0" encoding="UTF-8"?>
<svg width="100pt" height="100pt" version="1.1" viewBox="0 0 100 100" xmlns="http://www.w3.org/2000/svg">
 <path d="m58.332 8.4141c-20.676 0-37.5 16.824-37.5 37.5h75c0-20.68-16.824-37.5-37.5-37.5zm0 12.5c-11.637 0-21.641 7.9102-24.328 19.23-0.22656 0.95703-1.0781 1.6055-2.0234 1.6055-0.16016 0-0.32031-0.015625-0.48438-0.058594-1.1172-0.26562-1.8086-1.3906-1.5469-2.5078 3.1328-13.211 14.805-22.438 28.383-22.438 1.1484 0 2.082 0.93359 2.082 2.082 0.003907 1.1523-0.92969 2.0859-2.082 2.0859z"/>
 <path d="m52.082 10.496v-2.082c0-3.4492 2.8008-6.25 6.25-6.25s6.25 2.8008 6.25 6.25v2.082"/>
 <path d="m64.582 12.578c-1.1484 0-2.082-0.93359-2.082-2.082v-2.082c0-2.2969-1.8711-4.168-4.168-4.168s-4.168 1.8711-4.168 4.168v2.082c0 1.1484-0.93359 2.082-2.082 2.082-1.1484 0-2.082-0.93359-2.082-2.082v-2.082c0-4.5977 3.7383-8.332 8.332-8.332 4.5977 0 8.332 3.7383 8.332 8.332v2.082c0.003907 1.1484-0.92969 2.082-2.082 2.082z"/>
 <path d="m24.352 50.645c-3.5742-3.3828-17.852-4.4766-22.145-4.7305-0.57812 0-1.1328 0.17188-1.5547 0.5625-0.41406 0.39063-0.65234 0.94141-0.65234 1.5156v41.672c0 1.1484 0.93359 2.082 2.082 2.082h12.5c0.89844 0 1.6992-0.57812 1.9805-1.4375 0.30469-0.93359 7.4844-27.137 8.4297-37.973 0.054687-0.63281-0.17969-1.2539-0.64063-1.6914z"/>
 <path d="m29.141 52.699c-0.019531 0.24609-0.0625 0.54297-0.089844 0.80469 2.75 0.17188 5.4648 0.42578 7.6523 0.625l1.1719 0.10938c3.418 0.30859 6.9297 1.4766 10.023 2.5078 2.4258 0.80859 4.9336 1.6406 6.2617 1.6406 0.027344 0 0.41797 0.003906 1.0234 0.023437l30.234 0.003906c0.55469 0 1.082-0.22266 1.4766-0.60937l7.7266-7.7266h-65.82c0.28906 0.82422 0.42188 1.7148 0.33984 2.6211z"/>
 <path d="m29.141 52.699c-0.019531 0.24609-0.0625 0.54297-0.089844 0.80469 2.75 0.17188 5.4648 0.42578 7.6523 0.625l1.1719 0.10938c0.015625 0 0.039062 0.007813 0.054688 0.007813h59.988c1.1484 0 2.082-0.93359 2.082-2.082 0-1.1484-0.93359-2.082-2.082-2.082l-69.117-0.003906c0.28906 0.82422 0.42188 1.7148 0.33984 2.6211z"/>
 <path d="m87.5 73.027-14.582 6.2266c-4.0391 0.19531-12.434-0.066406-14.582-0.039062-2.1172 0.027344-12.938-3.4414-11.242-4.1289 0.35547-0.14453 1.2578-0.17578 2.9102-0.039063 9.5156 0.79297 25 2.707 25-4.168s-16.777-8.332-20.832-8.332-10.852-3.6367-16.668-4.168c-2.3125-0.20703-5.4883-0.52344-8.7109-0.72656-1.3164 8.957-5.1523 21.941-7.1289 28.293l22.09 9.9922c8.2656 3.125 13.887 7.1172 31.25 0 0 0 25-10.613 25-16.668-0.003906-5.0039-5.7344-8.5859-12.504-6.2422z"/>
</svg>
