<svg xmlns="http://www.w3.org/2000/svg" width="16" height="16" viewBox="0 0 16 16" fill="none">
  <path d="M2.8 6.5L8.33333 2.1C8.53333 1.96667 8.8 1.96667 9 2.1L14.5333 6.5C14.7333 6.7 14.8667 6.9 14.8667 7.23333V13.1C14.8667 13.8333 14.2667 14.4333 13.5333 14.4333H10.3333V10.5667C10.3333 10.1 9.93333 9.76667 9.53333 9.76667H7.33333C6.86667 9.76667 6.53333 10.1667 6.53333 10.5667V14.4333H3.33333C2.6 14.4333 2 13.8333 2 13.1V11.6333V9.03333C2 8.7 2.13333 8.43333 2.33333 8.23333L2.8 6.5Z" fill="#FAFAF5"/>
</svg>