<svg width="193" height="28" viewBox="0 0 193 28" fill="none" xmlns="http://www.w3.org/2000/svg">
<path d="M177.26 11.716C177.069 11.5633 176.869 11.487 176.659 11.487C176.43 11.487 176.229 11.5442 176.058 11.6587C175.886 11.7541 175.8 11.9068 175.8 12.1168C175.8 12.4412 176.029 12.6607 176.487 12.7752C176.964 12.8897 177.546 12.9756 178.233 13.0329C178.939 13.071 179.693 13.1283 180.495 13.2046C181.316 13.2619 182.069 13.405 182.756 13.634C183.463 13.8631 184.045 14.2257 184.503 14.7219C184.98 15.199 185.218 15.8766 185.218 16.7545C185.218 18.2431 184.522 19.3596 183.129 20.1039C181.755 20.8483 179.741 21.2204 177.088 21.2204C175.695 21.2204 174.474 21.1154 173.424 20.9055C172.393 20.6956 171.515 20.3807 170.79 19.9608C170.065 19.5218 169.483 18.9684 169.044 18.3004C168.624 17.6324 168.338 16.8404 168.185 15.9243C168.089 15.3517 168.338 15.0654 168.929 15.0654H174.225C174.741 15.0654 175.103 15.1322 175.313 15.2658C175.542 15.3994 175.79 15.5903 176.058 15.8384C176.21 15.9911 176.43 16.0674 176.716 16.0674C176.964 16.0674 177.174 16.0197 177.346 15.9243C177.537 15.8098 177.632 15.6475 177.632 15.4376C177.632 15.0941 177.394 14.8746 176.916 14.7792C176.458 14.6646 175.876 14.5883 175.17 14.5501C174.483 14.4929 173.729 14.4356 172.909 14.3784C172.107 14.302 171.353 14.1493 170.647 13.9203C169.96 13.6913 169.378 13.3382 168.901 12.8611C168.443 12.3649 168.214 11.6778 168.214 10.7999C168.214 9.31124 168.901 8.19476 170.275 7.45043C171.649 6.70611 173.653 6.33395 176.287 6.33395C179.054 6.33395 181.134 6.75382 182.527 7.59357C183.94 8.43332 184.799 9.77883 185.104 11.6301C185.199 12.2027 184.951 12.4889 184.36 12.4889H179.121C178.663 12.4889 178.3 12.4317 178.033 12.3172C177.785 12.1836 177.527 11.9832 177.26 11.716Z" fill="#FAFAF5"/>
<path d="M186.369 18.4363C186.369 17.5202 186.646 16.7854 187.199 16.2319C187.772 15.6784 188.516 15.4017 189.432 15.4017C190.348 15.4017 191.083 15.6784 191.637 16.2319C192.19 16.7854 192.467 17.5202 192.467 18.4363C192.467 19.3523 192.19 20.0871 191.637 20.6406C191.083 21.1941 190.348 21.4708 189.432 21.4708C188.516 21.4708 187.772 21.1941 187.199 20.6406C186.646 20.0871 186.369 19.3523 186.369 18.4363Z" fill="#5BFF95"/>
<path d="M163.273 20.9342C162.013 20.9342 160.973 20.7815 160.152 20.4761C159.332 20.1708 158.673 19.7032 158.177 19.0734C157.7 18.4245 157.356 17.5943 157.146 16.5827C156.956 15.5712 156.86 14.3593 156.86 12.947V10.3419C156.86 9.88383 156.669 9.60709 156.288 9.51166C155.963 9.43532 155.734 9.3399 155.6 9.22539C155.486 9.09179 155.429 8.8914 155.429 8.6242V7.47909C155.429 6.9447 155.715 6.63934 156.288 6.563C157.108 6.4294 157.728 6.06678 158.148 5.47514C158.587 4.86441 158.845 3.91015 158.921 2.61236C158.959 2.0398 159.255 1.75352 159.809 1.75352H164.017C164.59 1.75352 164.876 2.0398 164.876 2.61236V5.76142C164.876 6.33398 165.162 6.62025 165.735 6.62025H166.794C167.367 6.62025 167.653 6.90653 167.653 7.47909V8.6242C167.653 9.19676 167.367 9.48304 166.794 9.48304H165.735C165.162 9.48304 164.876 9.76932 164.876 10.3419V13.4909C164.876 13.8536 164.885 14.1494 164.905 14.3784C164.943 14.6074 165.009 14.7887 165.105 14.9223C165.219 15.0368 165.372 15.1132 165.563 15.1513C165.773 15.1895 166.05 15.2086 166.393 15.2086H166.794C167.367 15.2086 167.653 15.4949 167.653 16.0674V20.0753C167.653 20.6479 167.367 20.9342 166.794 20.9342H163.273Z" fill="#FAFAF5"/>
<path d="M144.989 8.7387C145.028 9.08223 145.19 9.254 145.476 9.254C145.648 9.254 145.772 9.21583 145.848 9.13949C145.944 9.04406 146.03 8.92955 146.106 8.79595C146.507 8.14706 147.06 7.5745 147.766 7.07829C148.473 6.58207 149.398 6.33396 150.543 6.33396C151.478 6.33396 152.251 6.45802 152.862 6.70612C153.492 6.93515 153.988 7.2596 154.351 7.67947C154.713 8.08026 154.971 8.56693 155.124 9.13949C155.276 9.69296 155.353 10.2941 155.353 10.943V20.0753C155.353 20.6479 155.066 20.9342 154.494 20.9342H148.196C147.623 20.9342 147.337 20.6479 147.337 20.0753V13.2333C147.337 12.4699 147.07 12.0882 146.535 12.0882C146.23 12.0882 146.001 12.2122 145.848 12.4603C145.696 12.7084 145.619 13.0233 145.619 13.405V20.0753C145.619 20.6479 145.333 20.9342 144.76 20.9342H138.462C137.89 20.9342 137.604 20.6479 137.604 20.0753V7.47908C137.604 6.90652 137.89 6.62024 138.462 6.62024H143.902C144.474 6.62024 144.789 6.90652 144.846 7.47908L144.989 8.7387Z" fill="#FAFAF5"/>
<path d="M128.939 15.3231C129.168 14.9605 129.426 14.7792 129.712 14.7792H136.182C136.793 14.7792 137.041 15.0654 136.927 15.638C136.736 16.6114 136.373 17.4511 135.839 18.1573C135.323 18.8634 134.665 19.4455 133.863 19.9036C133.081 20.3425 132.193 20.6765 131.201 20.9055C130.209 21.1155 129.159 21.2204 128.052 21.2204C126.811 21.2204 125.638 21.0773 124.531 20.791C123.443 20.4857 122.489 20.0276 121.668 19.4169C120.866 18.8062 120.227 18.0332 119.75 17.098C119.273 16.1628 119.034 15.0559 119.034 13.7772C119.034 12.4985 119.263 11.3915 119.721 10.4564C120.179 9.52119 120.8 8.74824 121.582 8.13752C122.384 7.52679 123.309 7.07829 124.359 6.79201C125.428 6.48664 126.563 6.33396 127.766 6.33396C128.911 6.33396 129.989 6.46756 131.001 6.73475C132.012 6.98286 132.9 7.38365 133.663 7.93712C134.445 8.49059 135.085 9.20629 135.581 10.0842C136.077 10.943 136.373 11.9832 136.469 13.2046C136.526 13.7772 136.249 14.0635 135.638 14.0635H127.766C127.46 14.0635 127.241 14.1398 127.107 14.2925C126.974 14.4452 126.955 14.6551 127.05 14.9223C127.241 15.4949 127.575 15.7811 128.052 15.7811C128.453 15.7811 128.749 15.6285 128.939 15.3231ZM128.081 11.2007C127.794 11.2007 127.575 11.2866 127.422 11.4583C127.269 11.611 127.193 11.7923 127.193 12.0023C127.193 12.174 127.25 12.3267 127.365 12.4603C127.498 12.5748 127.727 12.6321 128.052 12.6321C128.376 12.6321 128.605 12.5748 128.739 12.4603C128.873 12.3267 128.939 12.174 128.939 12.0023C128.939 11.7732 128.873 11.5824 128.739 11.4297C128.625 11.277 128.405 11.2007 128.081 11.2007Z" fill="#FAFAF5"/>
<path d="M109.814 14.4212C109.833 14.5739 109.871 14.7075 109.928 14.822C109.985 14.9175 110.1 14.9652 110.272 14.9652C110.443 14.9652 110.558 14.9175 110.615 14.822C110.672 14.7075 110.711 14.5739 110.73 14.4212L111.216 7.12115C111.254 6.54859 111.56 6.26231 112.132 6.26231H118.745C119.318 6.26231 119.547 6.53905 119.432 7.09252L116.713 19.746C116.598 20.2995 116.255 20.5762 115.682 20.5762H104.861C104.288 20.5762 103.945 20.2995 103.83 19.746L101.111 7.09252C100.996 6.53905 101.225 6.26231 101.798 6.26231H108.411C109.002 6.26231 109.308 6.54859 109.327 7.12115L109.814 14.4212Z" fill="#FAFAF5"/>
<path d="M99.7822 8.78161C100.297 9.01063 100.555 9.41142 100.555 9.98398L100.555 10.7569C100.555 11.3295 100.297 11.7303 99.7822 11.9593L91.1294 14.772C90.9576 14.8483 90.8145 14.9437 90.7 15.0583C90.5664 15.1728 90.4996 15.3636 90.4996 15.6308C90.4996 15.8217 90.5664 15.9553 90.7 16.0316C90.8336 16.0889 90.9958 16.1079 91.1866 16.0889L99.6963 14.8507C100.269 14.7935 100.555 15.0511 100.555 15.6237L100.555 19.882C100.555 20.4546 100.269 20.7409 99.6963 20.7409L81.3745 20.7409C80.8019 20.7409 80.5156 20.4546 80.5156 19.882L80.5156 15.2515C80.5156 14.7171 80.7637 14.2877 81.2599 13.9632L86.3915 11.215C86.5442 11.1195 86.6778 11.0146 86.7923 10.9001C86.8877 10.7665 86.9354 10.5852 86.9354 10.3561C86.9354 10.1271 86.8877 9.95535 86.7923 9.84084C86.6778 9.70724 86.5442 9.59273 86.3915 9.49731L81.2599 6.77766C80.7637 6.45321 80.5156 6.0238 80.5156 5.48941L80.5156 0.85886C80.5156 0.286303 80.8019 2.4783e-05 81.3745 2.4758e-05L99.6963 2.39571e-05C100.269 2.39321e-05 100.555 0.286302 100.555 0.858859L100.555 5.11725C100.555 5.6898 100.269 5.94745 99.6963 5.8902L91.1866 4.65205C90.9958 4.63296 90.8336 4.65205 90.7 4.7093C90.5664 4.76656 90.4996 4.90015 90.4996 5.11009C90.4996 5.3582 90.5664 5.54905 90.7 5.68265C90.8145 5.79716 90.9576 5.89259 91.1294 5.96893L99.7822 8.78161Z" fill="#FAFAF5"/>
<path d="M71.9431 18.8875C71.924 18.7349 71.8763 18.6108 71.7999 18.5154C71.7427 18.42 71.6282 18.3722 71.4564 18.3722C71.2846 18.3722 71.151 18.42 71.0556 18.5154C70.9793 18.5917 70.9029 18.6967 70.8266 18.8303C70.464 19.4601 70.025 19.9563 69.5097 20.3189C68.9944 20.6816 68.231 20.8629 67.2195 20.8629C65.3873 20.8629 63.9177 20.2426 62.8108 19.0021C61.7039 17.7424 61.1504 15.8721 61.1504 13.391C61.1504 12.1123 61.2935 11.0054 61.5798 10.0702C61.8661 9.135 62.2669 8.37159 62.7822 7.77995C63.3166 7.16922 63.9559 6.72072 64.7002 6.43444C65.4446 6.12908 66.2652 5.97639 67.1622 5.97639C67.9066 5.97639 68.5555 6.10999 69.1089 6.37719C69.6624 6.64438 70.1491 6.99745 70.5689 7.43641C70.6644 7.55093 70.7598 7.61772 70.8552 7.63681C70.9506 7.65589 71.027 7.65589 71.0842 7.63681C71.1415 7.61772 71.1892 7.5891 71.2274 7.55093C71.2846 7.49367 71.3133 7.3887 71.3133 7.23602V7.12151C71.3133 6.54895 71.5995 6.26267 72.1721 6.26267H78.4702C79.0428 6.26267 79.3291 6.54895 79.3291 7.12151V19.7178C79.3291 20.2903 79.0428 20.5766 78.4702 20.5766H73.0309C72.4775 20.5766 72.153 20.2903 72.0576 19.7178L71.9431 18.8875ZM70.2827 15.1087C70.6071 15.1087 70.8552 14.9846 71.027 14.7365C71.2178 14.4884 71.3133 14.1735 71.3133 13.7918V13.0475C71.3133 12.6658 71.2178 12.3509 71.027 12.1028C70.8552 11.8546 70.6071 11.7306 70.2827 11.7306C69.6338 11.7306 69.3093 12.2936 69.3093 13.4196C69.3093 13.954 69.3857 14.3739 69.5383 14.6793C69.691 14.9655 69.9391 15.1087 70.2827 15.1087Z" fill="#FAFAF5"/>
<path d="M50.1814 22.008C50.9067 22.008 51.4315 21.8171 51.756 21.4354C52.0995 21.0728 52.2713 20.4621 52.2713 19.6032C52.2713 19.4315 52.2426 19.3265 52.1854 19.2883C52.1472 19.2311 52.0995 19.1929 52.0423 19.1738C51.985 19.1547 51.9087 19.1643 51.8132 19.2024C51.7178 19.2215 51.6224 19.2883 51.527 19.4028C51.1071 19.8418 50.6204 20.1949 50.0669 20.4621C49.5135 20.7293 48.8646 20.8629 48.1202 20.8629C47.2232 20.8629 46.4026 20.7197 45.6583 20.4334C44.9139 20.1281 44.2746 19.6796 43.7402 19.0879C43.2249 18.4772 42.8241 17.7043 42.5378 16.7691C42.2515 15.8339 42.1084 14.727 42.1084 13.4483C42.1084 10.9481 42.6619 9.07774 43.7688 7.8372C44.8758 6.59666 46.3453 5.97639 48.1775 5.97639C49.189 5.97639 49.9524 6.1577 50.4677 6.52032C50.983 6.88294 51.422 7.37916 51.7846 8.00897C51.8609 8.14257 51.9373 8.25708 52.0136 8.3525C52.109 8.42885 52.2426 8.46702 52.4144 8.46702C52.5862 8.46702 52.7007 8.4193 52.7579 8.32388C52.8343 8.22845 52.882 8.1044 52.9011 7.95172L53.0156 7.12151C53.111 6.54895 53.4355 6.26267 53.9889 6.26267H59.4282C60.0008 6.26267 60.2871 6.54895 60.2871 7.12151V19.9754C60.2871 21.3686 60.1344 22.5519 59.829 23.5252C59.5237 24.5177 59.0465 25.3193 58.3976 25.93C57.7487 26.5598 56.909 27.0178 55.8784 27.3041C54.8669 27.5904 53.6454 27.7335 52.214 27.7335H44.9139C44.3414 27.7335 44.0551 27.4473 44.0551 26.8747V22.8668C44.0551 22.2943 44.3414 22.008 44.9139 22.008H50.1814ZM51.2407 11.7306C50.8971 11.7306 50.649 11.8833 50.4963 12.1886C50.3437 12.4749 50.2673 12.8852 50.2673 13.4196C50.2673 14.5457 50.5918 15.1087 51.2407 15.1087C51.5651 15.1087 51.8132 14.9846 51.985 14.7365C52.1758 14.4884 52.2713 14.1735 52.2713 13.7918V13.0475C52.2713 12.6658 52.1758 12.3509 51.985 12.1027C51.8132 11.8546 51.5651 11.7306 51.2407 11.7306Z" fill="#FAFAF5"/>
<path d="M33.1572 15.3231C33.3862 14.9605 33.6439 14.7792 33.9301 14.7792H40.4C41.0107 14.7792 41.2589 15.0654 41.1443 15.638C40.9535 16.6114 40.5909 17.4511 40.0565 18.1573C39.5412 18.8634 38.8827 19.4455 38.0812 19.9036C37.2987 20.3425 36.4112 20.6765 35.4188 20.9055C34.4263 21.1155 33.3767 21.2204 32.2697 21.2204C31.0292 21.2204 29.8554 21.0773 28.7485 20.791C27.6606 20.4857 26.7064 20.0276 25.8857 19.4169C25.0841 18.8062 24.4448 18.0332 23.9676 17.098C23.4905 16.1628 23.252 15.0559 23.252 13.7772C23.252 12.4985 23.481 11.3915 23.939 10.4564C24.3971 9.52119 25.0173 8.74824 25.7998 8.13752C26.6014 7.52679 27.527 7.07829 28.5767 6.79201C29.6455 6.48664 30.7811 6.33396 31.9834 6.33396C33.1286 6.33396 34.2069 6.46756 35.2184 6.73475C36.2299 6.98286 37.1174 7.38365 37.8808 7.93712C38.6633 8.49059 39.3026 9.20629 39.7988 10.0842C40.295 10.943 40.5909 11.9832 40.6863 13.2046C40.7435 13.7772 40.4668 14.0635 39.8561 14.0635H31.9834C31.6781 14.0635 31.4586 14.1398 31.325 14.2925C31.1914 14.4452 31.1723 14.6551 31.2677 14.9223C31.4586 15.4949 31.7926 15.7811 32.2697 15.7811C32.6705 15.7811 32.9663 15.6285 33.1572 15.3231ZM32.2983 11.2007C32.0121 11.2007 31.7926 11.2866 31.6399 11.4583C31.4872 11.611 31.4109 11.7923 31.4109 12.0023C31.4109 12.174 31.4681 12.3267 31.5826 12.4603C31.7162 12.5748 31.9453 12.6321 32.2697 12.6321C32.5942 12.6321 32.8232 12.5748 32.9568 12.4603C33.0904 12.3267 33.1572 12.174 33.1572 12.0023C33.1572 11.7732 33.0904 11.5824 32.9568 11.4297C32.8423 11.277 32.6228 11.2007 32.2983 11.2007Z" fill="#FAFAF5"/>
<path d="M12.8539 20.1611C12.6249 20.6764 12.2241 20.9341 11.6515 20.9341H10.8786C10.306 20.9341 9.90523 20.6764 9.6762 20.1611L6.86352 10.6138C6.78718 10.442 6.69175 10.2989 6.57724 10.1843C6.46273 10.0508 6.27188 9.98395 6.00469 9.98395C5.81383 9.98395 5.68024 10.0508 5.6039 10.1843C5.54664 10.3179 5.52756 10.4802 5.54664 10.671L6.78479 20.0753C6.84205 20.6478 6.5844 20.9341 6.01184 20.9341H0.858835C0.286278 20.9341 0 20.6478 0 20.0753V0.858836C0 0.286279 0.286278 0 0.858835 0H6.38401C6.91839 0 7.34781 0.248108 7.67226 0.744324L10.4205 4.98124C10.516 5.13392 10.6209 5.26752 10.7354 5.38203C10.869 5.47746 11.0503 5.52517 11.2794 5.52517C11.5084 5.52517 11.6802 5.47746 11.7947 5.38203C11.9283 5.26752 12.0428 5.13392 12.1382 4.98124L14.8578 0.744324C15.1823 0.248108 15.6117 0 16.1461 0H21.6713C22.2438 0 22.5301 0.286279 22.5301 0.858836V20.0753C22.5301 20.6478 22.2438 20.9341 21.6713 20.9341H16.5183C15.9457 20.9341 15.688 20.6478 15.7453 20.0753L16.9835 10.671C17.0025 10.4802 16.9835 10.3179 16.9262 10.1843C16.8689 10.0508 16.7353 9.98395 16.5254 9.98395C16.2773 9.98395 16.0865 10.0508 15.9529 10.1843C15.8383 10.2989 15.7429 10.442 15.6666 10.6138L12.8539 20.1611Z" fill="#FAFAF5"/>
</svg>
