<svg xmlns="http://www.w3.org/2000/svg" width="16" height="16" viewBox="0 0 16 16" fill="none">
  <path d="M12.0003 6.66667H4.00033C3.26395 6.66667 2.66699 7.26363 2.66699 8.00001V12C2.66699 12.7364 3.26395 13.3333 4.00033 13.3333H12.0003C12.7367 13.3333 13.3337 12.7364 13.3337 12V8.00001C13.3337 7.26363 12.7367 6.66667 12.0003 6.66667Z" fill="#FAFAF5"/>
  <path d="M5.33301 6.66667V5.46667C5.33301 3.93334 6.59967 2.66667 8.13301 2.66667C9.66634 2.66667 10.933 3.93334 10.933 5.46667V6.66667H9.33301V5.6C9.33301 4.8 8.73301 4.20001 8.06634 4.20001C7.39967 4.20001 6.79967 4.8 6.79967 5.6V6.66667H5.33301Z" fill="#FAFAF5"/>
  <path d="M7.99974 10.6C8.51521 10.6 8.93307 10.1821 8.93307 9.66667C8.93307 9.1512 8.51521 8.73334 7.99974 8.73334C7.48427 8.73334 7.06641 9.1512 7.06641 9.66667C7.06641 10.1821 7.48427 10.6 7.99974 10.6Z" fill="#1B1F3A"/>
</svg>