<svg xmlns="http://www.w3.org/2000/svg" width="16" height="16" viewBox="0 0 16 16" fill="none">
  <path d="M2.5 5.33333C2.5 4.6 3.1 4 3.83333 4H11.8333C12.5667 4 13.1667 4.6 13.1667 5.33333V7.33333C12.4333 7.33333 11.8333 7.93333 11.8333 8.66667C11.8333 9.4 12.4333 10 13.1667 10V12C13.1667 12.7333 12.5667 13.3333 11.8333 13.3333H3.83333C3.1 13.3333 2.5 12.7333 2.5 12V10C3.23333 10 3.83333 9.4 3.83333 8.66667C3.83333 7.93333 3.23333 7.33333 2.5 7.33333V5.33333Z" fill="#FAFAF5"/>
  <path d="M9.83366 6.66669H5.16699V8.00002H9.83366V6.66669Z" fill="#1B1F3A"/>
  <path d="M10.1663 12.0667C10.7554 12.0667 11.2329 11.5891 11.2329 11C11.2329 10.4109 10.7554 9.93335 10.1663 9.93335C9.57717 9.93335 9.09961 10.4109 9.09961 11C9.09961 11.5891 9.57717 12.0667 10.1663 12.0667Z" fill="#1B1F3A"/>
</svg>