<svg width="400" height="358" viewBox="0 0 400 358" fill="none" xmlns="http://www.w3.org/2000/svg">
<path d="M376.567 312.293L311.733 247.245L360.413 239.179C395.964 233.277 409.983 189.739 384.522 164.305L331.689 111.226L370.84 104.771C398.3 100.259 409.156 66.545 389.487 46.8578L338.009 -4.75832C316.883 -25.942 286.807 -35.6261 257.394 -30.7155L185.469 -18.8338C158.009 -14.3216 147.154 19.3922 166.822 39.0795L194.851 67.1655L120.973 79.4455C85.4226 85.3477 71.4037 128.886 96.8645 154.319L133.914 191.587L46.4259 206.105C1.962 213.474 -15.5866 267.975 16.2236 299.904L99.5124 383.449C133.647 417.724 182.326 433.398 230.047 425.48L346.435 406.228C390.829 398.722 408.377 344.222 376.567 312.293Z" fill="#BBA1FF"/>
</svg>
