<svg width="400" height="400" viewBox="0 0 400 400" fill="none" xmlns="http://www.w3.org/2000/svg">
<g clip-path="url(#clip0_1085_15522)">
<mask id="mask0_1085_15522" style="mask-type:luminance" maskUnits="userSpaceOnUse" x="0" y="0" width="400" height="400">
<path d="M400 0H0V400H400V0Z" fill="white"/>
</mask>
<g mask="url(#mask0_1085_15522)">
<path d="M0 62.4999C0 27.9821 27.9821 0 62.4999 0H337.5C372.017 0 400 27.9821 400 62.4999V337.5C400 372.017 372.017 400 337.5 400H62.4999C27.9821 400 0 372.017 0 337.5V62.4999Z" fill="#5BFF95"/>
<path d="M133.55 272.1C131.95 275.7 129.15 277.5 125.15 277.5H119.75C115.75 277.5 112.95 275.7 111.35 272.1L91.6999 205.399C91.1668 204.199 90.4999 203.2 89.6999 202.4C88.8999 201.466 87.5668 201.001 85.6999 201.001C84.3668 201.001 83.4331 201.466 82.9 202.4C82.5 203.334 82.3668 204.467 82.4999 205.801L91.15 271.5C91.55 275.5 89.75 277.5 85.75 277.5H49.75C45.75 277.5 43.75 275.5 43.75 271.5V137.25C43.75 133.25 45.75 131.25 49.75 131.25H88.35C92.0832 131.25 95.0832 132.983 97.35 136.45L116.55 166.05C117.217 167.117 117.95 168.05 118.75 168.85C119.683 169.517 120.95 169.85 122.55 169.85C124.15 169.85 125.35 169.517 126.15 168.85C127.083 168.05 127.883 167.117 128.55 166.05L147.55 136.45C149.817 132.983 152.817 131.25 156.55 131.25H195.15C199.15 131.25 201.15 133.25 201.15 137.25V271.5C201.15 275.5 199.15 277.5 195.15 277.5H159.15C155.15 277.5 153.35 275.5 153.75 271.5L162.4 205.801C162.533 204.467 162.4 203.334 162 202.4C161.6 201.466 160.667 201.001 159.2 201.001C157.467 201.001 156.133 201.466 155.2 202.4C154.4 203.2 153.733 204.199 153.2 205.399L133.55 272.1Z" fill="#0A1A14"/>
<path d="M347.1 192.601C350.7 194.201 352.5 197.001 352.5 201.001V206.4C352.5 210.4 350.7 213.2 347.1 214.8L286.651 234.45C285.451 234.984 284.45 235.65 283.65 236.45C282.718 237.25 282.251 238.584 282.251 240.45C282.251 241.784 282.718 242.718 283.65 243.25C284.584 243.65 285.717 243.784 287.051 243.65L346.5 235.001C350.5 234.601 352.5 236.4 352.5 240.4V270.151C352.5 274.151 350.5 276.151 346.5 276.151H218.5C214.5 276.151 212.5 274.151 212.5 270.151V237.801C212.5 234.067 214.233 231.068 217.7 228.8L253.55 209.6C254.616 208.934 255.55 208.201 256.35 207.401C257.016 206.467 257.349 205.2 257.349 203.6C257.349 202 257.016 200.8 256.35 200C255.55 199.068 254.616 198.268 253.55 197.6L217.7 178.601C214.233 176.333 212.5 173.334 212.5 169.6V137.25C212.5 133.25 214.5 131.25 218.5 131.25H346.5C350.5 131.25 352.5 133.25 352.5 137.25V167C352.5 171 350.5 172.8 346.5 172.4L287.051 163.75C285.717 163.617 284.584 163.75 283.65 164.15C282.718 164.55 282.251 165.484 282.251 166.95C282.251 168.684 282.718 170.017 283.65 170.95C284.45 171.751 285.451 172.417 286.651 172.951L347.1 192.601Z" fill="#0A1A14"/>
</g>
</g>
<defs>
<clipPath id="clip0_1085_15522">
<rect width="400" height="400" fill="white"/>
</clipPath>
</defs>
</svg>
