<svg width="297" height="43" viewBox="0 0 297 43" fill="none" xmlns="http://www.w3.org/2000/svg">
<path d="M273.534 18.0792C273.239 17.8436 272.93 17.7258 272.606 17.7258C272.252 17.7258 271.943 17.8142 271.678 17.9909C271.413 18.1381 271.281 18.3737 271.281 18.6977C271.281 19.1983 271.634 19.537 272.341 19.7137C273.077 19.8904 273.975 20.023 275.036 20.1113C276.125 20.1702 277.289 20.2586 278.526 20.3764C279.792 20.4647 280.955 20.6856 282.015 21.039C283.105 21.3924 284.003 21.952 284.71 22.7177C285.446 23.454 285.815 24.4995 285.815 25.8542C285.815 28.1514 284.74 29.8743 282.59 31.0229C280.469 32.1715 277.362 32.7457 273.269 32.7457C271.119 32.7457 269.234 32.5838 267.614 32.2598C266.024 31.9359 264.669 31.4499 263.55 30.802C262.431 30.1246 261.532 29.2705 260.855 28.2398C260.207 27.209 259.765 25.9868 259.53 24.5731C259.382 23.6896 259.765 23.2478 260.678 23.2478H268.851C269.646 23.2478 270.206 23.3509 270.53 23.5571C270.883 23.7632 271.266 24.0577 271.678 24.4406C271.914 24.6762 272.252 24.794 272.694 24.794C273.077 24.794 273.401 24.7204 273.666 24.5731C273.961 24.3964 274.108 24.1461 274.108 23.8221C274.108 23.292 273.74 22.9533 273.003 22.8061C272.297 22.6294 271.398 22.5116 270.309 22.4527C269.248 22.3643 268.085 22.276 266.819 22.1876C265.582 22.0698 264.419 21.8342 263.329 21.4808C262.269 21.1274 261.37 20.5825 260.634 19.8463C259.927 19.0805 259.574 18.0203 259.574 16.6656C259.574 14.3684 260.634 12.6455 262.755 11.4969C264.875 10.3484 267.967 9.77407 272.032 9.77407C276.302 9.77407 279.512 10.422 281.662 11.7178C283.841 13.0137 285.167 15.09 285.638 17.9467C285.785 18.8302 285.402 19.272 284.489 19.272H276.405C275.698 19.272 275.139 19.1836 274.726 19.0069C274.343 18.8008 273.946 18.4915 273.534 18.0792Z" fill="#FAFAF5"/>
<path d="M287.591 28.4495C287.591 27.0358 288.018 25.902 288.872 25.0479C289.755 24.1938 290.904 23.7668 292.318 23.7668C293.731 23.7668 294.865 24.1938 295.719 25.0479C296.573 25.902 297 27.0358 297 28.4495C297 29.8631 296.573 30.997 295.719 31.851C294.865 32.7051 293.731 33.1321 292.318 33.1321C290.904 33.1321 289.755 32.7051 288.872 31.851C288.018 30.997 287.591 29.8631 287.591 28.4495Z" fill="#5BFF95"/>
<path d="M251.95 32.304C250.006 32.304 248.401 32.0684 247.135 31.5972C245.868 31.126 244.852 30.4044 244.087 29.4326C243.35 28.4312 242.82 27.1501 242.496 25.5892C242.202 24.0283 242.055 22.1582 242.055 19.9788V15.9588C242.055 15.252 241.76 14.8249 241.171 14.6777C240.67 14.5599 240.317 14.4126 240.111 14.2359C239.934 14.0298 239.846 13.7205 239.846 13.3082V11.5412C239.846 10.7165 240.287 10.2453 241.171 10.1275C242.437 9.92137 243.395 9.36181 244.042 8.44883C244.72 7.5064 245.117 6.03386 245.235 4.0312C245.294 3.14767 245.751 2.70591 246.605 2.70591H253.099C253.982 2.70591 254.424 3.14767 254.424 4.0312V8.89059C254.424 9.77412 254.866 10.2159 255.749 10.2159H257.384C258.267 10.2159 258.709 10.6576 258.709 11.5412V13.3082C258.709 14.1917 258.267 14.6335 257.384 14.6335H255.749C254.866 14.6335 254.424 15.0753 254.424 15.9588V20.8182C254.424 21.3778 254.439 21.8342 254.468 22.1877C254.527 22.5411 254.63 22.8208 254.777 23.027C254.954 23.2037 255.19 23.3215 255.484 23.3804C255.808 23.4393 256.235 23.4688 256.765 23.4688H257.384C258.267 23.4688 258.709 23.9105 258.709 24.7941V30.9787C258.709 31.8623 258.267 32.304 257.384 32.304H251.95Z" fill="#FAFAF5"/>
<path d="M223.736 13.4849C223.795 14.015 224.046 14.2801 224.487 14.2801C224.752 14.2801 224.944 14.2212 225.062 14.1034C225.209 13.9561 225.341 13.7794 225.459 13.5733C226.078 12.5719 226.932 11.6884 228.021 10.9227C229.111 10.157 230.54 9.77409 232.307 9.77409C233.75 9.77409 234.942 9.96552 235.885 10.3484C236.857 10.7018 237.622 11.2025 238.182 11.8504C238.742 12.4688 239.139 13.2198 239.375 14.1034C239.61 14.9574 239.728 15.8851 239.728 16.8865V30.9787C239.728 31.8622 239.286 32.304 238.403 32.304H228.684C227.801 32.304 227.359 31.8622 227.359 30.9787V20.4206C227.359 19.2425 226.946 18.6535 226.122 18.6535C225.651 18.6535 225.297 18.845 225.062 19.2278C224.826 19.6107 224.708 20.0966 224.708 20.6856V30.9787C224.708 31.8622 224.266 32.304 223.383 32.304H213.664C212.781 32.304 212.339 31.8622 212.339 30.9787V11.5411C212.339 10.6576 212.781 10.2159 213.664 10.2159H222.058C222.941 10.2159 223.427 10.6576 223.515 11.5411L223.736 13.4849Z" fill="#FAFAF5"/>
<path d="M198.97 23.6455C199.323 23.0859 199.721 22.8061 200.162 22.8061H210.146C211.089 22.8061 211.471 23.2479 211.295 24.1314C211 25.6334 210.441 26.9292 209.616 28.0189C208.821 29.1086 207.805 30.0068 206.568 30.7137C205.36 31.391 203.991 31.9064 202.459 32.2598C200.928 32.5838 199.308 32.7458 197.6 32.7458C195.686 32.7458 193.875 32.5249 192.166 32.0831C190.488 31.6119 189.015 30.9051 187.749 29.9627C186.512 29.0202 185.525 27.8275 184.789 26.3844C184.053 24.9413 183.685 23.2331 183.685 21.2599C183.685 19.2867 184.038 17.5786 184.745 16.1355C185.452 14.6924 186.409 13.4996 187.616 12.5572C188.853 11.6148 190.282 10.9227 191.901 10.4809C193.551 10.0097 195.303 9.77409 197.158 9.77409C198.925 9.77409 200.589 9.98025 202.15 10.3926C203.711 10.7754 205.081 11.3939 206.259 12.248C207.466 13.102 208.453 14.2064 209.218 15.5612C209.984 16.8865 210.441 18.4916 210.588 20.3764C210.676 21.2599 210.249 21.7017 209.307 21.7017H197.158C196.687 21.7017 196.348 21.8195 196.142 22.0551C195.936 22.2907 195.907 22.6147 196.054 23.027C196.348 23.9105 196.864 24.3523 197.6 24.3523C198.219 24.3523 198.675 24.1167 198.97 23.6455ZM197.644 17.2841C197.203 17.2841 196.864 17.4166 196.628 17.6817C196.393 17.9173 196.275 18.197 196.275 18.521C196.275 18.7861 196.363 19.0217 196.54 19.2278C196.746 19.4045 197.099 19.4929 197.6 19.4929C198.101 19.4929 198.454 19.4045 198.66 19.2278C198.866 19.0217 198.97 18.7861 198.97 18.521C198.97 18.1676 198.866 17.8731 198.66 17.6375C198.484 17.4019 198.145 17.2841 197.644 17.2841Z" fill="#FAFAF5"/>
<path d="M169.456 22.2538C169.486 22.4894 169.545 22.6955 169.633 22.8722C169.721 23.0195 169.898 23.0931 170.163 23.0931C170.428 23.0931 170.605 23.0195 170.693 22.8722C170.781 22.6955 170.84 22.4894 170.87 22.2538L171.621 10.9888C171.68 10.1053 172.151 9.66354 173.034 9.66354H183.239C184.123 9.66354 184.476 10.0906 184.299 10.9446L180.103 30.4706C179.926 31.3246 179.396 31.7517 178.512 31.7517H161.814C160.93 31.7517 160.4 31.3246 160.223 30.4706L156.027 10.9446C155.85 10.0906 156.203 9.66354 157.087 9.66354H167.292C168.205 9.66354 168.676 10.1053 168.705 10.9888L169.456 22.2538Z" fill="#FAFAF5"/>
<path d="M153.976 13.5511C154.771 13.9045 155.169 14.523 155.169 15.4065L155.169 16.5993C155.169 17.4828 154.771 18.1013 153.976 18.4547L140.623 22.795C140.358 22.9128 140.138 23.0601 139.961 23.2368C139.755 23.4135 139.652 23.708 139.652 24.1203C139.652 24.4148 139.755 24.621 139.961 24.7388C140.167 24.8271 140.417 24.8566 140.712 24.8271L153.843 22.9165C154.727 22.8281 155.169 23.2257 155.169 24.1092L155.169 30.6805C155.169 31.564 154.727 32.0058 153.843 32.0058L125.57 32.0058C124.687 32.0058 124.245 31.564 124.245 30.6805L124.245 23.535C124.245 22.7103 124.628 22.0477 125.394 21.547L133.312 17.3061C133.548 17.1588 133.754 16.9969 133.931 16.8202C134.078 16.614 134.152 16.3342 134.152 15.9808C134.152 15.6274 134.078 15.3623 133.931 15.1856C133.754 14.9795 133.548 14.8028 133.312 14.6555L125.394 10.4588C124.628 9.95811 124.245 9.29546 124.245 8.47084L124.245 1.32533C124.245 0.441797 124.687 3.4313e-05 125.57 3.42743e-05L153.843 3.30385e-05C154.727 3.29999e-05 155.169 0.441796 155.169 1.32532L155.169 7.89655C155.169 8.78007 154.727 9.17766 153.843 9.08931L140.712 7.17868C140.417 7.14923 140.167 7.17868 139.961 7.26703C139.755 7.35539 139.652 7.56154 139.652 7.8855C139.652 8.26837 139.755 8.56287 139.961 8.76903C140.138 8.94574 140.358 9.09299 140.623 9.21079L153.976 13.5511Z" fill="#FAFAF5"/>
<path d="M111.018 29.1458C110.988 28.9102 110.915 28.7188 110.797 28.5715C110.709 28.4243 110.532 28.3507 110.267 28.3507C110.002 28.3507 109.796 28.4243 109.648 28.5715C109.53 28.6893 109.413 28.8513 109.295 29.0575C108.735 30.0294 108.058 30.7951 107.263 31.3547C106.468 31.9142 105.29 32.194 103.729 32.194C100.901 32.194 98.6337 31.2368 96.9255 29.3225C95.2174 27.3788 94.3633 24.4926 94.3633 20.664C94.3633 18.6908 94.5842 16.9826 95.0259 15.5395C95.4677 14.0964 96.0862 12.9184 96.8813 12.0054C97.706 11.063 98.6926 10.3709 99.8411 9.92915C100.99 9.45793 102.256 9.22232 103.64 9.22232C104.789 9.22232 105.79 9.42848 106.644 9.84079C107.498 10.2531 108.249 10.7979 108.897 11.4753C109.045 11.652 109.192 11.7551 109.339 11.7845C109.486 11.814 109.604 11.814 109.692 11.7845C109.781 11.7551 109.854 11.7109 109.913 11.652C110.002 11.5637 110.046 11.4017 110.046 11.1661V10.9894C110.046 10.1059 110.488 9.66409 111.371 9.66409H121.09C121.973 9.66409 122.415 10.1059 122.415 10.9894V30.427C122.415 31.3105 121.973 31.7522 121.09 31.7522H112.696C111.842 31.7522 111.342 31.3105 111.194 30.427L111.018 29.1458ZM108.456 23.3146C108.956 23.3146 109.339 23.1231 109.604 22.7403C109.899 22.3574 110.046 21.8715 110.046 21.2825V20.1339C110.046 19.5449 109.899 19.0589 109.604 18.6761C109.339 18.2932 108.956 18.1018 108.456 18.1018C107.454 18.1018 106.954 18.9706 106.954 20.7082C106.954 21.5328 107.071 22.1807 107.307 22.6519C107.543 23.0937 107.925 23.3146 108.456 23.3146Z" fill="#FAFAF5"/>
<path d="M77.4362 33.9611C78.5554 33.9611 79.3653 33.6665 79.8659 33.0775C80.396 32.518 80.6611 31.5755 80.6611 30.2502C80.6611 29.9852 80.6169 29.8232 80.5286 29.7643C80.4697 29.676 80.396 29.6171 80.3077 29.5876C80.2193 29.5581 80.1015 29.5729 79.9543 29.6318C79.807 29.6612 79.6598 29.7643 79.5125 29.941C78.8646 30.6184 78.1136 31.1632 77.2595 31.5755C76.4054 31.9878 75.4041 32.194 74.2555 32.194C72.8713 32.194 71.605 31.9731 70.4564 31.5314C69.3078 31.0601 68.3212 30.368 67.4966 29.4551C66.7014 28.5126 66.0829 27.3199 65.6412 25.8768C65.1994 24.4337 64.9785 22.7255 64.9785 20.7523C64.9785 16.8943 65.8326 14.0081 67.5407 12.0938C69.2489 10.1795 71.5166 9.22232 74.3439 9.22232C75.9048 9.22232 77.0828 9.50211 77.878 10.0617C78.6732 10.6212 79.3505 11.387 79.9101 12.3588C80.0279 12.565 80.1457 12.7417 80.2635 12.889C80.4108 13.0068 80.6169 13.0657 80.882 13.0657C81.147 13.0657 81.3237 12.992 81.4121 12.8448C81.5299 12.6975 81.6035 12.5061 81.633 12.2705L81.8097 10.9894C81.9569 10.1059 82.4576 9.66409 83.3117 9.66409H91.7052C92.5887 9.66409 93.0305 10.1059 93.0305 10.9894V30.8245C93.0305 32.9744 92.7949 34.8004 92.3236 36.3024C91.8524 37.8338 91.1162 39.0708 90.1148 40.0132C89.1135 40.9851 87.8177 41.6919 86.2273 42.1337C84.6664 42.5754 82.7816 42.7963 80.5727 42.7963H69.3078C68.4243 42.7963 67.9825 42.3546 67.9825 41.471V35.2863C67.9825 34.4028 68.4243 33.9611 69.3078 33.9611H77.4362ZM79.0708 18.1018C78.5406 18.1018 78.1578 18.3374 77.9222 18.8086C77.6866 19.2503 77.5688 19.8835 77.5688 20.7082C77.5688 22.4458 78.0694 23.3146 79.0708 23.3146C79.5714 23.3146 79.9543 23.1231 80.2193 22.7403C80.5138 22.3574 80.6611 21.8715 80.6611 21.2825V20.1339C80.6611 19.5449 80.5138 19.0589 80.2193 18.6761C79.9543 18.2932 79.5714 18.1018 79.0708 18.1018Z" fill="#FAFAF5"/>
<path d="M51.1659 23.6455C51.5193 23.0859 51.9169 22.8061 52.3586 22.8061H62.3425C63.2849 22.8061 63.6677 23.2479 63.491 24.1314C63.1965 25.6334 62.637 26.9292 61.8123 28.0189C61.0172 29.1086 60.0011 30.0068 58.7642 30.7137C57.5567 31.391 56.1872 31.9064 54.6558 32.2598C53.1243 32.5838 51.5045 32.7458 49.7964 32.7458C47.8821 32.7458 46.0709 32.5249 44.3627 32.0831C42.684 31.6119 41.2115 30.9051 39.9451 29.9627C38.7081 29.0202 37.7215 27.8275 36.9853 26.3844C36.249 24.9413 35.8809 23.2331 35.8809 21.2599C35.8809 19.2867 36.2343 17.5786 36.9411 16.1355C37.6479 14.6924 38.6051 13.4996 39.8125 12.5572C41.0495 11.6148 42.4779 10.9227 44.0976 10.4809C45.7469 10.0097 47.4992 9.77409 49.3546 9.77409C51.1217 9.77409 52.7857 9.98025 54.3465 10.3926C55.9074 10.7754 57.2769 11.3939 58.4549 12.248C59.6624 13.102 60.649 14.2064 61.4148 15.5612C62.1805 16.8865 62.637 18.4916 62.7842 20.3764C62.8726 21.2599 62.4455 21.7017 61.5031 21.7017H49.3546C48.8834 21.7017 48.5447 21.8195 48.3386 22.0551C48.1324 22.2907 48.103 22.6147 48.2502 23.027C48.5447 23.9105 49.0601 24.3523 49.7964 24.3523C50.4149 24.3523 50.8713 24.1167 51.1659 23.6455ZM49.8406 17.2841C49.3988 17.2841 49.0601 17.4166 48.8245 17.6817C48.5889 17.9173 48.4711 18.197 48.4711 18.521C48.4711 18.7861 48.5595 19.0217 48.7362 19.2278C48.9423 19.4045 49.2957 19.4929 49.7964 19.4929C50.2971 19.4929 50.6505 19.4045 50.8566 19.2278C51.0628 19.0217 51.1659 18.7861 51.1659 18.521C51.1659 18.1676 51.0628 17.8731 50.8566 17.6375C50.6799 17.4019 50.3412 17.2841 49.8406 17.2841Z" fill="#FAFAF5"/>
<path d="M19.8352 31.1112C19.4817 31.9063 18.8633 32.3039 17.9798 32.3039H16.787C15.9035 32.3039 15.285 31.9063 14.9316 31.1112L10.5913 16.3784C10.4735 16.1133 10.3262 15.8924 10.1495 15.7157C9.9728 15.5096 9.67829 15.4065 9.26598 15.4065C8.97147 15.4065 8.76531 15.5096 8.64751 15.7157C8.55916 15.9219 8.52971 16.1722 8.55916 16.4667L10.4698 30.9786C10.5581 31.8622 10.1605 32.3039 9.27702 32.3039H1.32529C0.441763 32.3039 0 31.8622 0 30.9786V1.32529C0 0.441763 0.441763 0 1.32529 0H9.85131C10.6759 0 11.3386 0.382862 11.8392 1.14858L16.0802 7.68668C16.2274 7.92228 16.3894 8.12844 16.5661 8.30515C16.7723 8.4524 17.0521 8.52603 17.4055 8.52603C17.7589 8.52603 18.0239 8.4524 18.2006 8.30515C18.4068 8.12844 18.5835 7.92228 18.7308 7.68668L22.9275 1.14858C23.4282 0.382862 24.0908 0 24.9154 0H33.4415C34.325 0 34.7667 0.441763 34.7667 1.32529V30.9786C34.7667 31.8622 34.325 32.3039 33.4415 32.3039H25.4897C24.6062 32.3039 24.2086 31.8622 24.297 30.9786L26.2076 16.4667C26.237 16.1722 26.2076 15.9219 26.1192 15.7157C26.0309 15.5096 25.8247 15.4065 25.5008 15.4065C25.1179 15.4065 24.8234 15.5096 24.6172 15.7157C24.4405 15.8924 24.2933 16.1133 24.1755 16.3784L19.8352 31.1112Z" fill="#FAFAF5"/>
</svg>
