<svg xmlns="http://www.w3.org/2000/svg" width="66.293" height="25.61" viewBox="0 0 66.293 25.61"><defs><style>.a{fill:#006a71;}.b{fill:#fff;}.c{fill:#2bb44c;fill-rule:evenodd;}</style></defs><g transform="translate(43.811 3.994)"><path class="a" d="M609.426,897.985v-7.343h3.223a5.628,5.628,0,0,1,1.6.209,3.179,3.179,0,0,1,1.208.643,2.8,2.8,0,0,1,.766,1.1,4.219,4.219,0,0,1,.264,1.571,4.977,4.977,0,0,1-.274,1.764,2.973,2.973,0,0,1-.786,1.183,3.1,3.1,0,0,1-1.228.667,5.706,5.706,0,0,1-1.607.209Zm2.409-1.713h.508a1.7,1.7,0,0,0,1.286-.469,2.13,2.13,0,0,0,.449-1.51,3.911,3.911,0,0,0-.1-.949,1.322,1.322,0,0,0-.311-.6,1.161,1.161,0,0,0-.556-.306,3.368,3.368,0,0,0-.82-.086h-.458Z" transform="translate(-608.839 -890.447)"/><path class="a" d="M621.893,892.756a.665.665,0,0,0-.123-.31.711.711,0,0,0-.224-.189,1.339,1.339,0,0,0-.623-.133,1.205,1.205,0,0,0-.581.108.339.339,0,0,0-.183.31.4.4,0,0,0,.183.337,1.856,1.856,0,0,0,.48.235,6.686,6.686,0,0,0,.673.189q.377.087.775.2a6.529,6.529,0,0,1,.774.27,2.591,2.591,0,0,1,.674.408,1.941,1.941,0,0,1,.479.6,1.826,1.826,0,0,1,.185.853,2.31,2.31,0,0,1-.257,1.116,2.2,2.2,0,0,1-.708.786,3.345,3.345,0,0,1-1.086.47,5.753,5.753,0,0,1-1.387.157,4.1,4.1,0,0,1-1.315-.2,3.312,3.312,0,0,1-1.014-.536,2.5,2.5,0,0,1-.663-.779,2.143,2.143,0,0,1-.262-.944h2.306a.813.813,0,0,0,.4.582,1.1,1.1,0,0,0,.326.138,1.506,1.506,0,0,0,.358.046,1.621,1.621,0,0,0,.729-.138.436.436,0,0,0,.271-.4.463.463,0,0,0-.312-.424,4.3,4.3,0,0,0-.781-.266l-1.02-.255a4.3,4.3,0,0,1-1.021-.393,2.314,2.314,0,0,1-.779-.682,1.888,1.888,0,0,1-.311-1.132,2.117,2.117,0,0,1,.24-1.025,2.087,2.087,0,0,1,.661-.734,3.128,3.128,0,0,1,1.006-.439,5.153,5.153,0,0,1,1.275-.148,4.283,4.283,0,0,1,1.326.184,2.843,2.843,0,0,1,.944.5,2.278,2.278,0,0,1,.6.739,2.787,2.787,0,0,1,.276.9Z" transform="translate(-609.494 -890.431)"/><path class="a" d="M629.89,892.756a.665.665,0,0,0-.122-.31.74.74,0,0,0-.223-.189,1.349,1.349,0,0,0-.624-.133,1.205,1.205,0,0,0-.581.108.339.339,0,0,0-.183.31.4.4,0,0,0,.183.337,1.858,1.858,0,0,0,.479.235,6.642,6.642,0,0,0,.674.189q.377.087.775.2a6.733,6.733,0,0,1,.775.27,2.6,2.6,0,0,1,.673.408,1.945,1.945,0,0,1,.478.6,1.814,1.814,0,0,1,.186.853,2.332,2.332,0,0,1-.255,1.116,2.214,2.214,0,0,1-.709.786,3.355,3.355,0,0,1-1.087.47,5.754,5.754,0,0,1-1.388.157,4.105,4.105,0,0,1-1.315-.2,3.321,3.321,0,0,1-1.015-.536,2.532,2.532,0,0,1-.663-.779,2.127,2.127,0,0,1-.26-.944h2.3a.817.817,0,0,0,.4.582,1.1,1.1,0,0,0,.326.138,1.513,1.513,0,0,0,.359.046,1.615,1.615,0,0,0,.728-.138.434.434,0,0,0,.27-.4.462.462,0,0,0-.311-.424,4.25,4.25,0,0,0-.781-.266l-1.02-.255a4.272,4.272,0,0,1-1.02-.393,2.3,2.3,0,0,1-.78-.682,1.884,1.884,0,0,1-.312-1.132,2.133,2.133,0,0,1,.239-1.025,2.083,2.083,0,0,1,.663-.734,3.111,3.111,0,0,1,1-.439,5.16,5.16,0,0,1,1.275-.148,4.278,4.278,0,0,1,1.326.184,2.844,2.844,0,0,1,.944.5,2.3,2.3,0,0,1,.6.739,2.743,2.743,0,0,1,.276.9Z" transform="translate(-610.128 -890.431)"/><path class="a" d="M610.477,901.319a.442.442,0,0,0-.132-.3.435.435,0,0,0-.3-.1.379.379,0,0,0-.333.177.978.978,0,0,0-.12.536,1.671,1.671,0,0,0,.019.25.626.626,0,0,0,.069.212.39.39,0,0,0,.147.148.484.484,0,0,0,.248.056.354.354,0,0,0,.291-.119.585.585,0,0,0,.121-.3h.771a1.223,1.223,0,0,1-.121.424,1.033,1.033,0,0,1-.247.318,1.046,1.046,0,0,1-.356.2,1.361,1.361,0,0,1-.444.07,1.535,1.535,0,0,1-.544-.09,1.1,1.1,0,0,1-.667-.664,1.545,1.545,0,0,1-.087-.537,1.419,1.419,0,0,1,.094-.535,1.177,1.177,0,0,1,.26-.405,1.143,1.143,0,0,1,.388-.255,1.239,1.239,0,0,1,.477-.09,1.31,1.31,0,0,1,.872.263,1.06,1.06,0,0,1,.359.736Z" transform="translate(-608.788 -891.215)"/><path class="a" d="M613,900.32a1.392,1.392,0,0,1,.57.108,1.151,1.151,0,0,1,.637.7,1.438,1.438,0,0,1,.078.471,1.463,1.463,0,0,1-.1.555,1.142,1.142,0,0,1-.272.408,1.16,1.16,0,0,1-.408.252,1.443,1.443,0,0,1-.506.086,1.5,1.5,0,0,1-.525-.086,1.116,1.116,0,0,1-.406-.255,1.155,1.155,0,0,1-.259-.412,1.547,1.547,0,0,1-.093-.555,1.39,1.39,0,0,1,.094-.522,1.2,1.2,0,0,1,.262-.4,1.167,1.167,0,0,1,.4-.255A1.443,1.443,0,0,1,613,900.32Zm-.007.6a.4.4,0,0,0-.228.062.469.469,0,0,0-.145.16.662.662,0,0,0-.077.218,1.237,1.237,0,0,0-.023.236,1.325,1.325,0,0,0,.021.243.739.739,0,0,0,.074.226.493.493,0,0,0,.147.169.4.4,0,0,0,.237.066.45.45,0,0,0,.221-.052.425.425,0,0,0,.149-.148.753.753,0,0,0,.085-.223,1.4,1.4,0,0,0,.027-.28,1.2,1.2,0,0,0-.027-.249.754.754,0,0,0-.085-.218.439.439,0,0,0-.152-.155A.4.4,0,0,0,613,900.918Z" transform="translate(-609.021 -891.215)"/><path class="a" d="M614.876,902.838V900.39h.969l.432,1.527.432-1.527h.969v2.448h-.721v-.747l.01-.382.041-.443H617l-.446,1.572H616l-.445-1.572h-.007l.034.362.018.381v.83Z" transform="translate(-609.271 -891.221)"/><path class="a" d="M618.35,902.838V900.39h1.18a1.177,1.177,0,0,1,.786.223.759.759,0,0,1,.259.6,1.024,1.024,0,0,1-.059.357.7.7,0,0,1-.186.272.848.848,0,0,1-.316.172,1.534,1.534,0,0,1-.455.059h-.406v.763Zm1.136-1.334a.4.4,0,0,0,.233-.063.251.251,0,0,0,.091-.222.2.2,0,0,0-.044-.137.28.28,0,0,0-.107-.078.491.491,0,0,0-.139-.035,1.228,1.228,0,0,0-.14-.01h-.228v.545Z" transform="translate(-609.545 -891.221)"/><path class="a" d="M621.087,902.838V900.39h.8v1.876h1.1v.572Z" transform="translate(-609.763 -891.221)"/><path class="a" d="M623.55,902.838V900.39h.8v2.448Z" transform="translate(-609.959 -891.221)"/><path class="a" d="M624.746,902.838l.877-2.448h.818l.876,2.448h-.8l-.1-.324h-.8l-.092.324Zm1.277-1.711-.247.877h.507Z" transform="translate(-610.053 -891.221)"/><path class="a" d="M629.457,901.726l-.03-.558v-.777h.768v2.448h-.752l-.873-1.334.031.558v.775h-.769V900.39h.751Z" transform="translate(-610.298 -891.221)"/><path class="a" d="M630.768,900.39h2.245v.643h-.722v1.806h-.8v-1.806h-.721Z" transform="translate(-610.531 -891.221)"/></g><path class="a" d="M600.022,902.256,569.972,911.7l-8.766-23.837,31.548-1.773,7.269,16.163" transform="translate(-561.206 -886.093)"/><path class="b" d="M577.82,898.153a3.08,3.08,0,0,1-.4,1.6,3.3,3.3,0,0,1-1.128,1.149,5.467,5.467,0,0,1-1.752.691,10.444,10.444,0,0,1-2.27.229h-.611v3.07H567.75V894.654h4.576a7.912,7.912,0,0,1,4.031.867,2.856,2.856,0,0,1,1.464,2.631m-3.75.045q0-1.332-1.974-1.334h-.478v2.743h.44a2.725,2.725,0,0,0,1.494-.34A1.192,1.192,0,0,0,574.07,898.2Z" transform="translate(-561.724 -886.772)"/><path class="b" d="M588.409,904.865a10.9,10.9,0,0,1-2.044.172,10.327,10.327,0,0,1-2.893-.372,6.366,6.366,0,0,1-2.15-1.053,4.513,4.513,0,0,1-1.342-1.659,5.092,5.092,0,0,1-.458-2.183,4.783,4.783,0,0,1,.489-2.165,4.914,4.914,0,0,1,1.382-1.676,6.533,6.533,0,0,1,2.123-1.077,9.267,9.267,0,0,1,2.711-.378,10.25,10.25,0,0,1,2.084.155,5.952,5.952,0,0,1,1.128.334l-.008,2.745a6.454,6.454,0,0,0-1.3-.542,5.422,5.422,0,0,0-1.54-.214,3.161,3.161,0,0,0-2.156.725,2.619,2.619,0,0,0-.829,2.077,2.734,2.734,0,0,0,.259,1.225,2.55,2.55,0,0,0,.7.875,3.025,3.025,0,0,0,1.032.525,4.326,4.326,0,0,0,1.272.179,6.34,6.34,0,0,0,1.371-.149,10.692,10.692,0,0,0,1.431-.43l0,2.565a9.142,9.142,0,0,1-1.266.32" transform="translate(-562.657 -886.758)"/><rect class="b" width="3.925" height="10.233" transform="translate(28.619 7.883)"/><path class="b" d="M596.6,890.98a2.032,2.032,0,0,1-.684,1.622,2.736,2.736,0,0,1-3.387,0,2.026,2.026,0,0,1-.686-1.622,2.053,2.053,0,0,1,.686-1.646,2.729,2.729,0,0,1,3.387,0,2.059,2.059,0,0,1,.684,1.646" transform="translate(-563.634 -886.303)"/><g transform="translate(24.273 5.968)"><path class="c" d="M593.691,910.292a4.385,4.385,0,0,1-1.192-.2,9.268,9.268,0,0,1-2.55-2.246c-1.9-2.1-1.841-2.5-1.816-2.689.174-1.3.9-2.069,1.925-2.069a2.212,2.212,0,0,1,.325.024,6.235,6.235,0,0,1,3.226,2.23c.477-.693,1.042-1.582,1.675-2.579,2.151-3.4,4.829-7.619,7.208-9.039a4.709,4.709,0,0,1,2.307-.592,1.655,1.655,0,0,1,1.361.434.661.661,0,0,1,.109.578l-.074.257-.225.077a5.206,5.206,0,0,0-1.1.936A88.16,88.16,0,0,0,596,909.156l-.08.176-.1.047-.034.051a1.327,1.327,0,0,1-.748.619A4.906,4.906,0,0,1,593.691,910.292Z" transform="translate(-587.612 -892.619)"/><path class="b" d="M604.755,893.595c.606,0,1.042.143.978.362a5.118,5.118,0,0,0-1.282,1.069,89.26,89.26,0,0,0-8.96,13.874c-.164.076-.265.511-.639.616a4.5,4.5,0,0,1-1.206.221,3.91,3.91,0,0,1-1.058-.185c-.76-.207-4.055-3.921-4-4.374s.328-1.627,1.421-1.628a1.773,1.773,0,0,1,.251.019c1.195.174,2.61,1.686,3.343,2.546,2-2.705,5.95-10.121,9.1-12a4.189,4.189,0,0,1,2.045-.521m0-1.02a5.226,5.226,0,0,0-2.567.666c-2.483,1.479-5.2,5.762-7.38,9.2-.479.756-.92,1.451-1.312,2.042a5.979,5.979,0,0,0-3.083-1.926,2.671,2.671,0,0,0-.4-.03,2.535,2.535,0,0,0-2.431,2.511c-.05.366-.112.822,1.941,3.1,1.953,2.166,2.565,2.333,2.795,2.4a4.933,4.933,0,0,0,1.327.221,5.372,5.372,0,0,0,1.481-.26,1.775,1.775,0,0,0,.988-.759l.146-.064.159-.352a89.429,89.429,0,0,1,8.788-13.616,4.981,4.981,0,0,1,.934-.813l.426-.145.146-.512a1.164,1.164,0,0,0-.192-1.026,2.1,2.1,0,0,0-1.767-.636Z" transform="translate(-587.569 -892.575)"/></g></svg>