<svg width="16" height="16" viewBox="0 0 16 16" fill="none" xmlns="http://www.w3.org/2000/svg">
<circle cx="8" cy="8" r="8" fill="#AEAEB2"/>
<path d="M11.7337 9.63866C12.4208 10.6507 11.6962 12 10.4968 12C6.91108 12 4 9.08887 4 5.51551C4 4.30355 5.36187 3.57891 6.3613 4.26608C6.3863 4.29108 6.4113 4.31608 6.4113 4.35355L6.72362 6.32763C6.72362 6.3651 6.72362 6.3901 6.69862 6.42757C6.51123 6.68995 6.23638 6.87735 5.93653 6.96481C6.39877 8.45164 7.58569 9.61357 9.04745 10.0758C9.13491 9.77594 9.3223 9.50108 9.58469 9.30115C9.60969 9.27615 9.64715 9.27615 9.68462 9.27615L11.6587 9.58847C11.6837 9.58854 11.7087 9.61366 11.7337 9.63866Z" fill="white"/>
</svg>
