<svg width="24" height="24" viewBox="0 0 24 24" fill="none" xmlns="http://www.w3.org/2000/svg">
<path d="M22.5 12.75V15.75C22.5 15.9489 22.421 16.1397 22.2803 16.2803C22.1397 16.421 21.9489 16.5 21.75 16.5C21.7006 16.5001 21.6512 16.4951 21.6028 16.485L14.625 15.0938V17.3184L16.2806 18.9731C16.4203 19.113 16.4992 19.3023 16.5 19.5V21.75C16.5002 21.8729 16.4702 21.994 16.4126 22.1026C16.3551 22.2112 16.2717 22.304 16.1698 22.3728C16.0679 22.4416 15.9507 22.4843 15.8285 22.4972C15.7062 22.51 15.5827 22.4927 15.4688 22.4466L12 21.0581L8.53125 22.4466C8.4173 22.4927 8.29377 22.51 8.17152 22.4972C8.04927 22.4843 7.93206 22.4416 7.8302 22.3728C7.72834 22.304 7.64495 22.2112 7.58737 22.1026C7.52979 21.994 7.49979 21.8729 7.5 21.75V19.5C7.49992 19.4015 7.51926 19.3039 7.5569 19.2129C7.59454 19.1218 7.64975 19.0391 7.71937 18.9694L9.375 17.3147V15.0938L2.39719 16.485C2.34878 16.4951 2.29945 16.5001 2.25 16.5C2.05109 16.5 1.86032 16.421 1.71967 16.2803C1.57902 16.1397 1.5 15.9489 1.5 15.75V12.75C1.4999 12.6107 1.53862 12.4741 1.61181 12.3555C1.685 12.2369 1.78977 12.1411 1.91438 12.0787L9.375 8.34937V4.125C9.375 3.42881 9.65156 2.76113 10.1438 2.26884C10.6361 1.77656 11.3038 1.5 12 1.5C12.6962 1.5 13.3639 1.77656 13.8562 2.26884C14.3484 2.76113 14.625 3.42881 14.625 4.125V8.34937L22.0856 12.0787C22.2102 12.1411 22.315 12.2369 22.3882 12.3555C22.4614 12.4741 22.5001 12.6107 22.5 12.75Z" fill="#277E89"/>
</svg>
