<svg width="25" height="25" viewBox="0 0 25 25" fill="none" xmlns="http://www.w3.org/2000/svg">
<path d="M12.501 0.5C13.666 0.500107 14.4276 2.09998 15.2305 2.31543C16.0596 2.53725 17.5242 1.53983 18.5039 2.10742C19.4918 2.67965 19.3637 4.45543 19.957 5.04688C20.5483 5.64054 22.3238 5.5128 22.8955 6.5C23.4606 7.47638 22.4641 8.94192 22.6865 9.77051H22.6846C22.8962 10.5621 24.5 11.3344 24.5 12.5C24.5 13.6656 22.9071 14.4009 22.6846 15.2295C22.4622 16.0581 23.4608 17.5215 22.8936 18.5C22.3218 19.4894 20.5498 19.3594 19.9541 19.9531C19.3546 20.5538 19.4935 22.3186 18.501 22.8926C17.5236 23.4578 16.0555 22.4621 15.2285 22.6836C14.4365 22.8945 13.664 24.4997 12.499 24.5C11.3338 24.5 10.5715 22.8989 9.76855 22.6836C8.92623 22.4602 7.48431 23.4644 6.49609 22.8926C5.51003 22.3206 5.6382 20.5448 5.04492 19.9531C4.45361 19.3594 2.67715 19.4873 2.10547 18.5C1.5406 17.5237 2.52677 16.0211 2.31543 15.2295C2.10378 14.4379 0.500034 13.6656 0.5 12.5C0.5 11.3344 2.09287 10.5991 2.31543 9.77051C2.53775 8.94197 1.53847 7.47853 2.10547 6.5C2.67715 5.51051 4.44924 5.64057 5.04492 5.04688C5.64474 4.44658 5.50564 2.68167 6.49805 2.10742C7.46903 1.54635 8.95543 2.5329 9.77148 2.31543C10.5634 2.10409 11.336 0.5 12.501 0.5ZM12.499 1.15234C11.7223 1.15234 10.9299 2.68077 9.93945 2.94629C8.91829 3.21813 7.4667 2.29805 6.8252 2.66992C6.17294 3.0462 6.2385 4.77506 5.50781 5.50586C4.77249 6.24308 3.04838 6.17181 2.6709 6.82422C2.29595 7.47456 3.22119 8.90997 2.94629 9.93848C2.67993 10.9322 1.15234 11.7174 1.15234 12.498C1.15268 13.2787 2.68012 14.0661 2.94629 15.0576C3.2188 16.0775 2.29781 17.5282 2.6709 18.1719C3.04857 18.8263 4.77255 18.7543 5.50781 19.4893C6.2583 20.2394 6.15782 21.9378 6.8252 22.3252C7.37721 22.6449 8.58411 21.9971 9.50488 21.9971C10.2468 21.9971 10.6919 22.4428 11.2549 23.0039C12.3785 24.1237 12.6229 24.1236 13.7441 23.0039C14.8351 21.9166 15.1783 21.8099 16.7275 22.2188C18.2153 22.6123 18.4075 22.5122 18.8154 20.999C19.2256 19.4811 19.4789 19.2245 21.002 18.8135C22.5139 18.4069 22.6165 18.2173 22.2217 16.7236C21.8609 15.3632 21.9041 14.9312 22.6455 14.1191L23.0049 13.7461C23.4173 13.3307 23.8447 12.9023 23.8447 12.5C23.8447 11.7193 22.3181 10.932 22.0518 9.94043C21.779 8.9205 22.6993 7.46988 22.3262 6.82617C21.9486 6.17166 20.2246 6.24381 19.4893 5.50879C18.7518 4.77381 18.8263 3.05147 18.1719 2.67285C17.5261 2.29885 16.0841 3.21998 15.0586 2.94629C14.0681 2.68102 13.2757 1.1528 12.499 1.15234ZM15.957 7.1377C16.2036 6.78105 16.7427 7.15334 16.4961 7.50781L9.04688 18.2676C8.80473 18.6176 8.25945 18.2572 8.50781 17.8984L15.957 7.1377ZM15.2998 13.2939C17.7785 13.2939 17.8114 17.7021 15.3174 17.7021C12.8237 17.7019 12.8149 13.2943 15.2998 13.2939ZM15.2998 13.9463C13.7052 13.9467 13.679 17.0496 15.3174 17.0498C16.9386 17.0498 16.8948 13.9463 15.2998 13.9463ZM9.68359 7.13086C12.1622 7.1309 12.1972 11.5389 9.70117 11.5391C7.21154 11.5391 7.20487 7.13086 9.68359 7.13086ZM9.68359 7.7832C8.05802 7.7832 8.07997 10.8867 9.70117 10.8867C11.3222 10.8865 11.2982 7.78325 9.68359 7.7832Z" fill="#277E89"/>
<path d="M12.501 0.5L12.501 0.0714286H12.501V0.5ZM15.2305 2.31543L15.1194 2.72936L15.1197 2.72944L15.2305 2.31543ZM18.5039 2.10742L18.2891 2.47825L18.2891 2.47827L18.5039 2.10742ZM19.957 5.04688L20.2607 4.74444L20.2596 4.74334L19.957 5.04688ZM22.8955 6.5L23.2664 6.28532L23.2664 6.28521L22.8955 6.5ZM22.6865 9.77051V10.1991H23.2453L23.1004 9.65941L22.6865 9.77051ZM22.6846 9.77051V9.34194H22.1264L22.2705 9.88121L22.6846 9.77051ZM24.5 12.5L24.9286 12.5V12.5H24.5ZM22.6846 15.2295L22.2707 15.1183L22.2706 15.1184L22.6846 15.2295ZM22.8936 18.5L22.5228 18.2851L22.5225 18.2856L22.8936 18.5ZM19.9541 19.9531L19.6516 19.6496L19.6508 19.6504L19.9541 19.9531ZM18.501 22.8926L18.7155 23.2636L18.7155 23.2636L18.501 22.8926ZM15.2285 22.6836L15.3388 23.0977L15.3394 23.0976L15.2285 22.6836ZM12.499 24.5V24.9286H12.4991L12.499 24.5ZM9.76855 22.6836L9.87955 22.2696L9.87842 22.2693L9.76855 22.6836ZM6.49609 22.8926L6.28106 23.2633L6.28145 23.2635L6.49609 22.8926ZM5.04492 19.9531L4.74127 20.2556L4.74229 20.2566L5.04492 19.9531ZM2.10547 18.5L1.73451 18.7146L1.73458 18.7148L2.10547 18.5ZM2.31543 15.2295L2.7295 15.1189L2.72946 15.1188L2.31543 15.2295ZM0.5 12.5H0.0714286V12.5L0.5 12.5ZM2.31543 9.77051L2.72933 9.88169L2.72936 9.88158L2.31543 9.77051ZM2.10547 6.5L2.47629 6.71487L2.47656 6.7144L2.10547 6.5ZM5.04492 5.04688L5.34746 5.35043L5.34809 5.3498L5.04492 5.04688ZM6.49805 2.10742L6.28362 1.73635L6.2834 1.73648L6.49805 2.10742ZM9.77148 2.31543L9.88184 2.72955L9.88199 2.72951L9.77148 2.31543ZM12.499 1.15234L12.4993 0.723772H12.499V1.15234ZM9.93945 2.94629L10.0497 3.36044L10.0504 3.36024L9.93945 2.94629ZM6.8252 2.66992L7.03935 3.04115L7.04013 3.0407L6.8252 2.66992ZM5.50781 5.50586L5.20474 5.20284L5.20438 5.2032L5.50781 5.50586ZM2.6709 6.82422L2.29994 6.60959L2.29962 6.61016L2.6709 6.82422ZM2.94629 9.93848L3.36025 10.0494L3.36033 10.0491L2.94629 9.93848ZM1.15234 12.498H0.723772L0.723772 12.4982L1.15234 12.498ZM2.94629 15.0576L3.36034 14.947L3.36021 14.9465L2.94629 15.0576ZM2.6709 18.1719L3.04209 17.9577L3.04168 17.957L2.6709 18.1719ZM5.50781 19.4893L5.20482 19.7924L5.20483 19.7924L5.50781 19.4893ZM6.8252 22.3252L6.61004 22.6958L6.61043 22.6961L6.8252 22.3252ZM9.50488 21.9971V21.5685H9.50486L9.50488 21.9971ZM11.2549 23.0039L10.9523 23.3075H10.9523L11.2549 23.0039ZM13.7441 23.0039L13.4416 22.7004L13.4413 22.7006L13.7441 23.0039ZM16.7275 22.2188L16.8371 21.8044L16.8369 21.8044L16.7275 22.2188ZM18.8154 20.999L18.4017 20.8872L18.4016 20.8875L18.8154 20.999ZM21.002 18.8135L20.8906 18.3996L20.8903 18.3997L21.002 18.8135ZM22.2217 16.7236L22.636 16.6141L22.6359 16.6138L22.2217 16.7236ZM22.6455 14.1191L22.3367 13.8217L22.329 13.8302L22.6455 14.1191ZM23.0049 13.7461L22.7007 13.4441L22.6962 13.4488L23.0049 13.7461ZM23.8447 12.5L24.2733 12.5V12.5H23.8447ZM22.0518 9.94043L21.6377 10.0511L21.6379 10.0516L22.0518 9.94043ZM22.3262 6.82617L21.9549 7.04032L21.9554 7.04109L22.3262 6.82617ZM19.4893 5.50879L19.7922 5.20569L19.7918 5.20524L19.4893 5.50879ZM18.1719 2.67285L17.9571 3.04372L17.9572 3.04381L18.1719 2.67285ZM15.0586 2.94629L14.9477 3.36027L14.9481 3.36037L15.0586 2.94629ZM15.957 7.1377L16.3094 7.38163L16.3096 7.38141L15.957 7.1377ZM16.4961 7.50781L16.1443 7.26309L16.1437 7.26386L16.4961 7.50781ZM9.04688 18.2676L8.69451 18.0236L8.69442 18.0238L9.04688 18.2676ZM8.50781 17.8984L8.86018 18.1424L8.86019 18.1424L8.50781 17.8984ZM15.2998 13.2939V12.8654H15.2997L15.2998 13.2939ZM15.3174 17.7021L15.3173 18.1307H15.3174V17.7021ZM15.2998 13.9463V13.5177H15.2997L15.2998 13.9463ZM15.3174 17.0498L15.3173 17.4784H15.3174V17.0498ZM9.68359 7.13086L9.6836 6.70229H9.68359V7.13086ZM9.70117 11.5391V11.9676H9.7012L9.70117 11.5391ZM9.68359 7.7832L9.68361 7.35463H9.68359V7.7832ZM9.70117 10.8867V11.3153H9.70123L9.70117 10.8867ZM12.501 0.5L12.5009 0.928571C12.8899 0.928607 13.2571 1.19828 13.7018 1.63331C13.9006 1.82778 14.1326 2.07271 14.3441 2.26099C14.557 2.45055 14.8175 2.64835 15.1194 2.72936L15.2305 2.31543L15.3415 1.9015C15.242 1.87479 15.1062 1.79181 14.9141 1.6208C14.7206 1.4485 14.5388 1.25306 14.3012 1.02061C13.8732 0.60182 13.2771 0.0714999 12.501 0.0714286L12.501 0.5ZM15.2305 2.31543L15.1197 2.72944C15.4254 2.81122 15.7527 2.77359 16.0374 2.71706C16.321 2.66077 16.6437 2.56649 16.9164 2.4971C17.5253 2.34218 17.9686 2.29261 18.2891 2.47825L18.5039 2.10742L18.7187 1.73659C18.0595 1.35464 17.2806 1.51999 16.7051 1.66642C16.3856 1.74771 16.1254 1.82572 15.8705 1.87632C15.6168 1.92669 15.4501 1.93055 15.3412 1.90142L15.2305 2.31543ZM18.5039 2.10742L18.2891 2.47827C18.6147 2.66686 18.796 3.08137 18.9658 3.68588C19.0418 3.9563 19.1212 4.28366 19.2123 4.55501C19.3037 4.8272 19.4325 5.12915 19.6545 5.35041L19.957 5.04688L20.2596 4.74334C20.1849 4.66888 20.1071 4.52706 20.0248 4.28207C19.9423 4.03623 19.8806 3.77299 19.791 3.454C19.6296 2.8797 19.381 2.12021 18.7187 1.73657L18.5039 2.10742ZM19.957 5.04688L19.6534 5.34931C19.8746 5.5714 20.1765 5.70026 20.4486 5.79178C20.72 5.88302 21.0472 5.96241 21.3176 6.03844C21.9221 6.20839 22.3363 6.38958 22.5246 6.71479L22.8955 6.5L23.2664 6.28521C22.883 5.62323 22.1236 5.37469 21.5496 5.21329C21.2308 5.12365 20.9675 5.06196 20.7218 4.97934C20.4769 4.89699 20.3351 4.81918 20.2607 4.74444L19.957 5.04688ZM22.8955 6.5L22.5246 6.71468C22.709 7.03327 22.6593 7.47567 22.5042 8.08496C22.4347 8.35784 22.3406 8.68025 22.2844 8.96396C22.228 9.24871 22.1906 9.57602 22.2726 9.88161L22.6865 9.77051L23.1004 9.65941C23.0713 9.5507 23.075 9.3841 23.1252 9.13051C23.1757 8.87588 23.2536 8.61552 23.3349 8.29639C23.4811 7.72167 23.6471 6.94311 23.2664 6.28532L22.8955 6.5ZM22.6865 9.77051V9.34194H22.6846V9.77051V10.1991H22.6865V9.77051ZM22.6846 9.77051L22.2705 9.88121C22.3508 10.1813 22.549 10.4408 22.7377 10.6523C22.9253 10.8626 23.1707 11.0954 23.365 11.2944C23.8005 11.7404 24.0714 12.1105 24.0714 12.5H24.5H24.9286C24.9286 11.7239 24.3976 11.1251 23.9783 10.6956C23.7452 10.4569 23.55 10.2753 23.3773 10.0817C23.2058 9.88941 23.1242 9.75555 23.0986 9.65981L22.6846 9.77051ZM24.5 12.5L24.0714 12.5C24.0714 12.8885 23.8045 13.2492 23.3702 13.6906C23.1754 13.8886 22.9313 14.119 22.7415 14.333C22.55 14.5489 22.353 14.8117 22.2707 15.1183L22.6846 15.2295L23.0985 15.3407C23.1274 15.233 23.213 15.0932 23.3828 14.9017C23.5542 14.7085 23.75 14.5268 23.9813 14.2917C24.3991 13.8669 24.9285 13.2771 24.9286 12.5L24.5 12.5ZM22.6846 15.2295L22.2706 15.1184C22.1886 15.4241 22.2262 15.7514 22.2828 16.036C22.3392 16.3195 22.4336 16.6419 22.5031 16.9144C22.6584 17.523 22.7081 17.9654 22.5228 18.2851L22.8936 18.5L23.2643 18.7149C23.6463 18.056 23.4803 17.2774 23.3337 16.7026C23.2522 16.3834 23.1741 16.1234 23.1235 15.8689C23.0731 15.6155 23.0694 15.4491 23.0985 15.3406L22.6846 15.2295ZM22.8936 18.5L22.5225 18.2856C22.334 18.6117 21.9206 18.7928 21.3169 18.9624C21.0469 19.0382 20.7195 19.1174 20.4481 19.2084C20.1755 19.2998 19.8736 19.4283 19.6516 19.6496L19.9541 19.9531L20.2566 20.2567C20.3324 20.1812 20.4754 20.1033 20.7205 20.0211C20.9668 19.9386 21.2297 19.8771 21.5487 19.7876C22.1229 19.6263 22.8814 19.3777 23.2646 18.7144L22.8936 18.5ZM19.9541 19.9531L19.6508 19.6504C19.4281 19.8734 19.299 20.1755 19.2074 20.4489C19.1162 20.7208 19.0375 21.0478 18.9622 21.3175C18.7939 21.9198 18.6141 22.3321 18.2864 22.5216L18.501 22.8926L18.7155 23.2636C19.3804 22.8791 19.6274 22.1219 19.7877 21.5482C19.8766 21.2298 19.9376 20.9671 20.02 20.7213C20.102 20.4769 20.1803 20.3331 20.2574 20.2559L19.9541 19.9531ZM18.501 22.8926L18.2864 22.5216C17.9672 22.7062 17.5236 22.6565 16.9139 22.5016C16.6409 22.4322 16.3182 22.3381 16.0346 22.2819C15.75 22.2255 15.4229 22.1879 15.1176 22.2696L15.2285 22.6836L15.3394 23.0976C15.4477 23.0686 15.6141 23.0724 15.8679 23.1227C16.1228 23.1732 16.3833 23.2511 16.7028 23.3323C17.2782 23.4786 18.0574 23.6441 18.7155 23.2636L18.501 22.8926ZM15.2285 22.6836L15.1182 22.2695C14.8179 22.3495 14.5581 22.5478 14.3465 22.7365C14.136 22.9242 13.9033 23.1697 13.7041 23.3642C13.258 23.8001 12.888 24.0713 12.4989 24.0714L12.499 24.5L12.4991 24.9286C13.275 24.9284 13.8738 24.3968 14.3032 23.9773C14.5418 23.7442 14.7235 23.5488 14.917 23.3762C15.1094 23.2046 15.2432 23.1232 15.3388 23.0977L15.2285 22.6836ZM12.499 24.5V24.0714C12.1101 24.0714 11.7427 23.8016 11.2977 23.3662C11.0988 23.1716 10.8667 22.9265 10.6551 22.7382C10.4421 22.5485 10.1815 22.3506 9.87954 22.2696L9.76855 22.6836L9.65757 23.0975C9.75706 23.1242 9.8929 23.2072 10.0851 23.3783C10.2787 23.5507 10.4605 23.7463 10.6982 23.9789C11.1265 24.3979 11.7228 24.9286 12.499 24.9286V24.5ZM9.76855 22.6836L9.87842 22.2693C9.5702 22.1876 9.24262 22.225 8.95683 22.2822C8.67299 22.3389 8.35141 22.4339 8.08023 22.5037C7.47584 22.6592 7.03545 22.7095 6.71074 22.5216L6.49609 22.8926L6.28145 23.2635C6.94496 23.6475 7.71964 23.4816 8.29384 23.3338C8.61196 23.2519 8.87056 23.1735 9.12486 23.1227C9.37721 23.0722 9.54575 23.0679 9.65869 23.0978L9.76855 22.6836ZM6.49609 22.8926L6.71112 22.5219C6.38644 22.3335 6.20553 21.9192 6.03585 21.3145C5.95995 21.0439 5.88071 20.7167 5.78958 20.4452C5.69818 20.173 5.56948 19.871 5.34756 19.6497L5.04492 19.9531L4.74229 20.2566C4.817 20.3311 4.89476 20.473 4.977 20.718C5.05952 20.9638 5.12111 21.2271 5.21058 21.546C5.37165 22.1201 5.61969 22.8797 6.28106 23.2633L6.49609 22.8926ZM5.04492 19.9531L5.34857 19.6507C5.12734 19.4286 4.82535 19.2997 4.5531 19.2082C4.28166 19.117 3.9543 19.0376 3.68378 18.9616C3.07902 18.7916 2.66464 18.6104 2.47635 18.2852L2.10547 18.5L1.73458 18.7148C2.11797 19.3769 2.87767 19.6254 3.45189 19.7868C3.77085 19.8764 4.03421 19.9381 4.28003 20.0207C4.52504 20.103 4.66685 20.1808 4.74127 20.2556L5.04492 19.9531ZM2.10547 18.5L2.47643 18.2854C2.29154 17.9658 2.33985 17.5132 2.49359 16.8997C2.56214 16.6261 2.65615 16.3012 2.71247 16.0219C2.76881 15.7424 2.80922 15.4176 2.7295 15.1189L2.31543 15.2295L1.90136 15.34C1.92731 15.4372 1.9237 15.5971 1.87223 15.8525C1.82072 16.108 1.74313 16.3682 1.66216 16.6913C1.51687 17.2711 1.35453 18.0579 1.73451 18.7146L2.10547 18.5ZM2.31543 15.2295L2.72946 15.1188C2.64923 14.8187 2.45099 14.5592 2.26231 14.3477C2.07474 14.1374 1.82933 13.9046 1.635 13.7056C1.19956 13.2596 0.928583 12.8895 0.928571 12.5L0.5 12.5L0.0714286 12.5C0.0714513 13.2761 0.602368 13.8749 1.02172 14.3044C1.25479 14.5431 1.45 14.7247 1.62265 14.9183C1.79421 15.1106 1.8758 15.2445 1.9014 15.3402L2.31543 15.2295ZM0.5 12.5H0.928571C0.928571 12.1115 1.19553 11.7508 1.62978 11.3094C1.82458 11.1114 2.06869 10.881 2.25851 10.667C2.45001 10.4511 2.64698 10.1883 2.72933 9.88169L2.31543 9.77051L1.90153 9.65933C1.8726 9.76702 1.787 9.90684 1.61724 10.0983C1.44581 10.2915 1.24997 10.4732 1.01873 10.7083C0.600904 11.1331 0.0714286 11.7229 0.0714286 12.5H0.5ZM2.31543 9.77051L2.72936 9.88158C2.81141 9.5758 2.77367 9.24848 2.717 8.96387C2.66056 8.6804 2.56606 8.358 2.49644 8.08543C2.34096 7.47678 2.29113 7.0344 2.47629 6.71487L2.10547 6.5L1.73465 6.28513C1.35281 6.94413 1.51912 7.72274 1.66596 8.29757C1.74749 8.61675 1.82568 8.87672 1.87636 9.13125C1.92681 9.38464 1.93061 9.55095 1.9015 9.65944L2.31543 9.77051ZM2.10547 6.5L2.47656 6.7144C2.66498 6.38827 3.07842 6.20714 3.68206 6.03763C3.95207 5.96181 4.27952 5.88256 4.55092 5.7916C4.82347 5.70024 5.12539 5.57175 5.34746 5.35043L5.04492 5.04688L4.74238 4.74332C4.66661 4.81884 4.52364 4.89673 4.27852 4.97889C4.03225 5.06143 3.76927 5.12284 3.45033 5.2124C2.87608 5.37366 2.11764 5.62225 1.73438 6.2856L2.10547 6.5ZM5.04492 5.04688L5.34809 5.3498C5.57093 5.12679 5.70011 4.82472 5.79179 4.55137C5.88301 4.27941 5.96169 3.95244 6.03704 3.68268C6.20528 3.08034 6.38505 2.66796 6.71269 2.47837L6.49805 2.10742L6.2834 1.73648C5.61864 2.12114 5.37176 2.87833 5.21149 3.45209C5.12259 3.77037 5.06156 4.03307 4.97914 4.27881C4.89719 4.52316 4.81883 4.66682 4.74176 4.74395L5.04492 5.04688ZM6.49805 2.10742L6.71247 2.4785C7.02892 2.29564 7.47547 2.3444 8.08854 2.49826C8.36268 2.56706 8.68637 2.6604 8.9693 2.71624C9.25273 2.77217 9.5792 2.8102 9.88184 2.72955L9.77148 2.31543L9.66113 1.90131C9.55574 1.9294 9.39038 1.92566 9.13525 1.87531C8.87963 1.82487 8.61802 1.74741 8.29718 1.66689C7.72029 1.52211 6.93815 1.35813 6.28362 1.73635L6.49805 2.10742ZM9.77148 2.31543L9.88199 2.72951C10.1822 2.6494 10.4418 2.45118 10.6534 2.26249C10.8639 2.07487 11.0966 1.82951 11.2957 1.6351C11.7418 1.19951 12.1118 0.928571 12.501 0.928571V0.5V0.0714286C11.7251 0.0714286 11.1263 0.602533 10.6969 1.02182C10.4583 1.25485 10.2766 1.45014 10.083 1.62272C9.89065 1.79424 9.75674 1.87579 9.66098 1.90135L9.77148 2.31543ZM12.499 1.15234V0.723772C12.1667 0.723772 11.8796 0.884951 11.6556 1.05096C11.4273 1.22006 11.2024 1.44244 10.9977 1.64536C10.7837 1.85745 10.5846 2.05579 10.3802 2.21935C10.1756 2.38312 9.99436 2.48787 9.82848 2.53233L9.93945 2.94629L10.0504 3.36024C10.3798 3.27195 10.669 3.08607 10.9158 2.88858C11.1628 2.69089 11.3961 2.45733 11.6011 2.25413C11.8154 2.04176 11.9961 1.86544 12.1658 1.73966C12.3398 1.61079 12.443 1.58092 12.499 1.58092V1.15234ZM9.93945 2.94629L9.82921 2.53214C9.65315 2.57901 9.43608 2.57959 9.17406 2.5414C8.91219 2.50324 8.63847 2.43198 8.34859 2.35602C8.0712 2.28333 7.76766 2.203 7.49101 2.16906C7.22147 2.136 6.89407 2.13462 6.61026 2.29914L6.8252 2.66992L7.04013 3.0407C7.07707 3.01929 7.17168 2.99346 7.38665 3.01983C7.59451 3.04533 7.83797 3.1083 8.13131 3.18517C8.41216 3.25876 8.7329 3.34331 9.05046 3.38959C9.36786 3.43584 9.71517 3.44949 10.0497 3.36044L9.93945 2.94629ZM6.8252 2.66992L6.61104 2.29869C6.32573 2.46328 6.16109 2.74791 6.05299 3.00025C5.94217 3.25894 5.85887 3.56349 5.7826 3.8416C5.70293 4.13214 5.62821 4.40497 5.53151 4.65008C5.43464 4.89567 5.32819 5.07937 5.20474 5.20284L5.50781 5.50586L5.81088 5.80888C6.05278 5.56695 6.21214 5.26049 6.32886 4.96462C6.44576 4.66827 6.53242 4.34834 6.60923 4.06829C6.68944 3.77579 6.75771 3.53191 6.84088 3.33777C6.92677 3.13728 6.99853 3.0647 7.03935 3.04115L6.8252 2.66992ZM5.50781 5.50586L5.20438 5.2032C5.07954 5.32837 4.89507 5.43556 4.64976 5.5326C4.40475 5.62953 4.13224 5.70412 3.84213 5.78345C3.5645 5.85936 3.26019 5.94216 3.00172 6.05251C2.74939 6.16025 2.46492 6.32445 2.29995 6.60959L2.6709 6.82422L3.04185 7.03885C3.06561 6.99778 3.13822 6.92624 3.3383 6.84081C3.53224 6.758 3.7757 6.69022 4.0682 6.61024C4.34822 6.53368 4.6682 6.44709 4.96507 6.32964C5.26163 6.21232 5.56843 6.05196 5.81125 5.80851L5.50781 5.50586ZM2.6709 6.82422L2.29962 6.61016C2.1353 6.89515 2.13578 7.22195 2.16902 7.49277C2.20302 7.76967 2.28377 8.07257 2.35669 8.34889C2.43292 8.63778 2.50432 8.91015 2.54242 9.17131C2.58051 9.43231 2.57984 9.64977 2.53225 9.82781L2.94629 9.93848L3.36033 10.0491C3.45019 9.71293 3.43695 9.36527 3.39058 9.04754C3.34424 8.72997 3.2593 8.41 3.18546 8.13018C3.1083 7.83779 3.04523 7.59562 3.01978 7.38833C2.99359 7.17496 3.01902 7.07846 3.04218 7.03828L2.6709 6.82422ZM2.94629 9.93848L2.53233 9.82752C2.48764 9.99426 2.38274 10.1757 2.21912 10.3799C2.05561 10.5841 1.85741 10.7826 1.64533 10.9962C1.44247 11.2005 1.22 11.4251 1.05083 11.6534C0.884505 11.8779 0.723772 12.1651 0.723772 12.498H1.15234H1.58092C1.58092 12.4406 1.61113 12.337 1.73955 12.1636C1.86513 11.9941 2.0412 11.814 2.25353 11.6002C2.45665 11.3956 2.69028 11.1628 2.88811 10.9158C3.08582 10.669 3.27176 10.3796 3.36025 10.0494L2.94629 9.93848ZM1.15234 12.498L0.723772 12.4982C0.723916 12.831 0.884628 13.1183 1.05092 13.3429C1.22009 13.5714 1.44252 13.7962 1.64542 14.0006C1.85752 14.2144 2.05575 14.413 2.21928 14.6171C2.38296 14.8214 2.48777 15.0026 2.53237 15.1687L2.94629 15.0576L3.36021 14.9465C3.27173 14.6169 3.08579 14.3278 2.8882 14.0812C2.69047 13.8344 2.45691 13.6015 2.25383 13.3969C2.04156 13.183 1.86543 13.0025 1.7398 12.8329C1.61128 12.6593 1.58094 12.5554 1.58092 12.4979L1.15234 12.498ZM2.94629 15.0576L2.53224 15.1682C2.57915 15.3438 2.57982 15.5604 2.54167 15.8222C2.50354 16.0838 2.43228 16.3573 2.35631 16.6472C2.28361 16.9246 2.20328 17.2282 2.16945 17.5052C2.13646 17.7752 2.13544 18.1027 2.30011 18.3868L2.6709 18.1719L3.04168 17.957C3.01982 17.9192 2.99401 17.824 3.02026 17.6091C3.04567 17.4012 3.1086 17.1577 3.18545 16.8645C3.25902 16.5838 3.3436 16.2631 3.38985 15.9458C3.43608 15.6286 3.44968 15.2814 3.36034 14.947L2.94629 15.0576ZM2.6709 18.1719L2.29971 18.3861C2.46457 18.6718 2.74892 18.8364 3.00156 18.9445C3.26021 19.0551 3.56461 19.1379 3.84237 19.2138C4.13261 19.293 4.40515 19.3674 4.65025 19.4641C4.89567 19.5608 5.08008 19.6677 5.20482 19.7924L5.50781 19.4893L5.8108 19.1862C5.56791 18.9434 5.2611 18.7836 4.96468 18.6667C4.66794 18.5497 4.34802 18.4633 4.06815 18.3869C3.77579 18.3071 3.53243 18.2393 3.33864 18.1564C3.13883 18.0709 3.06607 17.9992 3.04209 17.9577L2.6709 18.1719ZM5.50781 19.4893L5.20483 19.7924C5.33389 19.9214 5.44168 20.1075 5.53761 20.3513C5.63368 20.5954 5.70631 20.8658 5.78375 21.1544C5.85777 21.4302 5.93879 21.7336 6.04914 21.9923C6.15769 22.2468 6.32306 22.5293 6.61004 22.6958L6.8252 22.3252L7.04035 21.9545C6.99364 21.9274 6.9213 21.8523 6.83755 21.656C6.75558 21.4638 6.68968 21.2231 6.6116 20.9322C6.53692 20.6539 6.45224 20.3348 6.33522 20.0374C6.21806 19.7397 6.05699 19.4322 5.81079 19.1861L5.50781 19.4893ZM6.8252 22.3252L6.61043 22.6961C6.85869 22.8398 7.14106 22.8545 7.38015 22.8361C7.62443 22.8173 7.88623 22.7582 8.13112 22.6967C8.65644 22.5648 9.11335 22.4257 9.50491 22.4256L9.50488 21.9971L9.50486 21.5685C8.97564 21.5685 8.36871 21.7533 7.92239 21.8654C7.68146 21.9259 7.48048 21.9687 7.31444 21.9815C7.1432 21.9946 7.06771 21.9704 7.03996 21.9543L6.8252 22.3252ZM9.50488 21.9971V22.4256C10.0426 22.4256 10.3662 22.7233 10.9523 23.3075L11.2549 23.0039L11.5574 22.7004C11.0176 22.1624 10.4509 21.5685 9.50488 21.5685V21.9971ZM11.2549 23.0039L10.9523 23.3075C11.2333 23.5875 11.4819 23.8209 11.7131 23.984C11.9471 24.149 12.2048 24.2723 12.5004 24.2723C12.7961 24.2723 13.0537 24.1489 13.2874 23.9838C13.5184 23.8206 13.7666 23.5872 14.047 23.3072L13.7441 23.0039L13.4413 22.7006C13.1611 22.9805 12.9582 23.1669 12.7929 23.2837C12.6304 23.3985 12.5464 23.4151 12.5004 23.4151C12.4543 23.4151 12.3701 23.3985 12.2072 23.2836C12.0415 23.1667 11.8382 22.9802 11.5574 22.7004L11.2549 23.0039ZM13.7441 23.0039L14.0467 23.3075C14.5994 22.7566 14.884 22.5422 15.175 22.4642C15.4671 22.3859 15.8355 22.4266 16.6182 22.6331L16.7275 22.2188L16.8369 21.8044C16.0704 21.6021 15.4926 21.4917 14.953 21.6363C14.4124 21.7812 13.9799 22.1639 13.4416 22.7004L13.7441 23.0039ZM16.7275 22.2188L16.618 22.6331C16.9888 22.7311 17.3107 22.8076 17.5833 22.8336C17.8592 22.86 18.1389 22.8408 18.3911 22.6948C18.6431 22.549 18.8 22.3157 18.9162 22.0613C19.0311 21.8095 19.1274 21.4884 19.2292 21.1106L18.8154 20.999L18.4016 20.8875C18.2995 21.2662 18.2188 21.525 18.1365 21.7053C18.0553 21.883 17.9948 21.9339 17.9617 21.953C17.929 21.972 17.8561 21.9986 17.6648 21.9804C17.4702 21.9618 17.2102 21.9031 16.8371 21.8044L16.7275 22.2188ZM18.8154 20.999L19.2292 21.1108C19.4367 20.3427 19.5806 20.0082 19.7946 19.7941C20.0084 19.58 20.3434 19.4351 21.1136 19.2272L21.002 18.8135L20.8903 18.3997C20.1375 18.6029 19.5843 18.7918 19.1882 19.1883C18.7922 19.5846 18.6043 20.1374 18.4017 20.8872L18.8154 20.999ZM21.002 18.8135L21.1133 19.2273C21.4906 19.1259 21.8116 19.0301 22.0634 18.9155C22.3177 18.7998 22.5514 18.6432 22.6976 18.3912C22.8439 18.1389 22.8632 17.859 22.8369 17.5825C22.8109 17.3093 22.7344 16.9864 22.636 16.6141L22.2217 16.7236L21.8073 16.8332C21.9063 17.2076 21.9651 17.4686 21.9836 17.6637C22.0019 17.8556 21.9751 17.9285 21.9561 17.9611C21.937 17.9941 21.8862 18.0545 21.7084 18.1353C21.528 18.2174 21.2693 18.2978 20.8906 18.3996L21.002 18.8135ZM22.2217 16.7236L22.6359 16.6138C22.4545 15.9295 22.4007 15.5616 22.4438 15.2809C22.483 15.0266 22.6109 14.7927 22.962 14.4081L22.6455 14.1191L22.329 13.8302C21.9387 14.2576 21.6743 14.6457 21.5967 15.1506C21.5231 15.6289 21.6281 16.1573 21.8074 16.8335L22.2217 16.7236ZM22.6455 14.1191L22.9542 14.4165L23.3135 14.0434L23.0049 13.7461L22.6962 13.4488L22.3369 13.8218L22.6455 14.1191ZM23.0049 13.7461L23.309 14.048C23.5096 13.846 23.7419 13.6136 23.9212 13.3768C24.0945 13.1478 24.2733 12.8455 24.2733 12.5L23.8447 12.5L23.4162 12.5C23.4162 12.5568 23.3812 12.6699 23.2377 12.8595C23.1001 13.0413 22.9126 13.2308 22.7008 13.4441L23.0049 13.7461ZM23.8447 12.5H24.2733C24.2733 12.1672 24.1128 11.8799 23.9466 11.6553C23.7775 11.4268 23.5552 11.202 23.3524 10.9975C23.1404 10.7838 22.9423 10.5851 22.7788 10.381C22.6151 10.1767 22.5103 9.9955 22.4657 9.82926L22.0518 9.94043L21.6379 10.0516C21.7264 10.3811 21.9122 10.6702 22.1098 10.9168C22.3074 11.1636 22.5409 11.3965 22.7438 11.6011C22.956 11.815 23.132 11.9954 23.2575 12.1651C23.3859 12.3386 23.4162 12.4424 23.4162 12.5H23.8447ZM22.0518 9.94043L22.4658 9.82971C22.4188 9.65411 22.4181 9.43748 22.4562 9.17573C22.4942 8.91412 22.5653 8.64061 22.6412 8.35073C22.7138 8.07335 22.794 7.76971 22.8278 7.49275C22.8607 7.22272 22.8616 6.8953 22.697 6.61125L22.3262 6.82617L21.9554 7.04109C21.9773 7.0789 22.0031 7.17419 21.9769 7.38907C21.9516 7.59702 21.8887 7.84048 21.812 8.13371C21.7385 8.41443 21.6541 8.73505 21.6079 9.0524C21.5618 9.36962 21.5483 9.71678 21.6377 10.0511L22.0518 9.94043ZM22.3262 6.82617L22.6974 6.61203C22.5326 6.32629 22.2482 6.1616 21.9956 6.05353C21.7369 5.94289 21.4325 5.86006 21.1547 5.78423C20.8645 5.70499 20.592 5.63062 20.3468 5.53398C20.1014 5.43721 19.917 5.33038 19.7922 5.20569L19.4893 5.50879L19.1863 5.81189C19.4292 6.05471 19.736 6.2145 20.0324 6.33138C20.3292 6.44838 20.6491 6.5347 20.929 6.61111C21.2214 6.69093 21.4647 6.75872 21.6585 6.84161C21.8583 6.92706 21.931 6.99879 21.9549 7.04032L22.3262 6.82617ZM19.4893 5.50879L19.7918 5.20524C19.6667 5.08057 19.5597 4.89641 19.4629 4.6514C19.3663 4.40665 19.292 4.13443 19.2129 3.84444C19.1372 3.56696 19.0546 3.26267 18.9442 3.00407C18.8364 2.75141 18.672 2.46706 18.3865 2.3019L18.1719 2.67285L17.9572 3.04381C17.999 3.06795 18.0707 3.14088 18.1559 3.34061C18.2387 3.53441 18.3062 3.77763 18.3859 4.06993C18.4622 4.34973 18.5485 4.66957 18.6657 4.9663C18.7828 5.26277 18.9431 5.56952 19.1867 5.81234L19.4893 5.50879ZM18.1719 2.67285L18.3867 2.30199C18.1024 2.13737 17.7755 2.13794 17.5054 2.17086C17.2287 2.20456 16.9256 2.28484 16.6489 2.3574C16.3597 2.43325 16.0868 2.50435 15.8253 2.54231C15.5639 2.58026 15.3465 2.57954 15.1691 2.53221L15.0586 2.94629L14.9481 3.36037C15.2835 3.44988 15.6309 3.43666 15.9484 3.39056C16.2659 3.34447 16.5862 3.25998 16.8663 3.18651C17.159 3.10975 17.4016 3.04697 17.609 3.02171C17.8229 2.99565 17.9184 3.02133 17.9571 3.04372L18.1719 2.67285ZM15.0586 2.94629L15.1695 2.53231C15.0036 2.48789 14.8224 2.3832 14.6178 2.21949C14.4134 2.05598 14.2143 1.85768 14.0003 1.64561C13.7956 1.44271 13.5707 1.22034 13.3425 1.05122C13.1185 0.885193 12.8315 0.723966 12.4993 0.723772L12.499 1.15234L12.4988 1.58092C12.5549 1.58095 12.6582 1.61092 12.8321 1.73985C13.0019 1.86569 13.1827 2.04204 13.3969 2.25441C13.602 2.45761 13.8352 2.69113 14.0823 2.88878C14.3291 3.08624 14.6183 3.27205 14.9477 3.36027L15.0586 2.94629ZM15.957 7.1377L16.3096 7.38141C16.3096 7.38138 16.3078 7.38395 16.3036 7.38797C16.2994 7.39202 16.2934 7.39693 16.2855 7.40181C16.2688 7.41205 16.2496 7.41852 16.2308 7.42077C16.1956 7.42497 16.1755 7.4139 16.1684 7.40906C16.1614 7.40426 16.1435 7.38912 16.1347 7.35384C16.13 7.33497 16.1292 7.31414 16.133 7.29431C16.1368 7.27451 16.1436 7.26398 16.1443 7.26309L16.4961 7.50781L16.8479 7.75254C16.977 7.56704 17.0173 7.35108 16.9664 7.14672C16.9182 6.95309 16.7963 6.80071 16.6545 6.7031C16.5128 6.60546 16.3271 6.54604 16.1291 6.56967C15.9205 6.59458 15.7329 6.70824 15.6045 6.89398L15.957 7.1377ZM16.4961 7.50781L16.1437 7.26386L8.69451 18.0236L9.04688 18.2676L9.39924 18.5115L16.8485 7.75176L16.4961 7.50781ZM9.04688 18.2676L8.69442 18.0238C8.69589 18.0216 8.70385 18.0114 8.72076 18.0011C8.73756 17.9908 8.75633 17.9847 8.77412 17.9826C8.80703 17.9786 8.8257 17.9886 8.83265 17.9932C8.83959 17.9979 8.85912 18.0138 8.86863 18.0513C8.87368 18.0712 8.87442 18.0928 8.87056 18.1128C8.86673 18.1326 8.86003 18.1426 8.86018 18.1424L8.50781 17.8984L8.15544 17.6545C8.02713 17.8398 7.98556 18.0561 8.03779 18.262C8.08726 18.4571 8.21167 18.6085 8.35416 18.7044C8.49665 18.8003 8.68152 18.8571 8.87701 18.8335C9.08306 18.8086 9.27083 18.6972 9.39933 18.5114L9.04688 18.2676ZM8.50781 17.8984L8.86019 18.1424L16.3094 7.38163L15.957 7.1377L15.6047 6.89376L8.15544 17.6545L8.50781 17.8984ZM15.2998 13.2939V13.7225C15.7755 13.7225 16.1195 13.9271 16.3572 14.2413C16.6038 14.5673 16.7421 15.0234 16.7448 15.5005C16.7475 15.9777 16.6145 16.4325 16.3721 16.7568C16.139 17.0686 15.7975 17.2736 15.3174 17.2736V17.7021V18.1307C16.0843 18.1307 16.6739 17.7847 17.0586 17.27C17.4341 16.7677 17.6055 16.1205 17.6019 15.4956C17.5984 14.8706 17.4195 14.2247 17.0408 13.7241C16.6531 13.2118 16.0634 12.8654 15.2998 12.8654V13.2939ZM15.3174 17.7021L15.3174 17.2736C14.8371 17.2735 14.4921 17.0682 14.2549 16.7547C14.0087 16.4293 13.8716 15.9737 13.8702 15.4968C13.8688 15.0198 14.0032 14.5646 14.2465 14.2398C14.4807 13.9273 14.8224 13.7226 15.2999 13.7225L15.2998 13.2939L15.2997 12.8654C14.5347 12.8655 13.9457 13.2119 13.5606 13.7259C13.1847 14.2276 13.0112 14.8744 13.0131 15.4994C13.0149 16.1244 13.1923 16.7708 13.5714 17.2719C13.9596 17.785 14.5508 18.1306 15.3173 18.1307L15.3174 17.7021ZM15.2998 13.9463L15.2997 13.5177C14.7406 13.5179 14.3161 13.7982 14.0469 14.1877C13.7861 14.5649 13.6683 15.0427 13.6677 15.4975C13.667 15.9523 13.7836 16.4315 14.0478 16.8101C14.3212 17.202 14.7515 17.4783 15.3173 17.4784L15.3174 17.0498L15.3174 16.6212C15.0641 16.6212 14.8833 16.5096 14.7507 16.3196C14.6088 16.1163 14.5244 15.8197 14.5248 15.4987C14.5252 15.1777 14.6105 14.8797 14.752 14.675C14.885 14.4826 15.0617 14.3749 15.2999 14.3749L15.2998 13.9463ZM15.3174 17.0498V17.4784C15.8812 17.4784 16.3079 17.1998 16.5767 16.8068C16.836 16.4275 16.9477 15.9481 16.9432 15.4938C16.9387 15.0393 16.8175 14.5622 16.5549 14.1859C16.2839 13.7977 15.8587 13.5177 15.2998 13.5177V13.9463V14.3749C15.5384 14.3749 15.7168 14.4829 15.852 14.6765C15.9955 14.8821 16.083 15.1809 16.0861 15.5023C16.0893 15.8239 16.0077 16.1204 15.8691 16.323C15.74 16.5119 15.5642 16.6212 15.3174 16.6212V17.0498ZM9.68359 7.13086L9.68359 7.55943C10.1593 7.55944 10.5034 7.76407 10.7413 8.0783C10.9881 8.4043 11.1265 8.86046 11.1293 9.33746C11.1322 9.8146 10.9992 10.2693 10.7567 10.5936C10.5237 10.9053 10.1819 11.1105 9.70114 11.1105L9.70117 11.5391L9.7012 11.9676C10.4684 11.9676 11.0583 11.6216 11.4432 11.1068C11.8188 10.6045 11.9902 9.95724 11.9864 9.33235C11.9827 8.70733 11.8036 8.06148 11.4247 7.56096C11.0369 7.04868 10.4472 6.7023 9.6836 6.70229L9.68359 7.13086ZM9.70117 11.5391V11.1105C9.22217 11.1105 8.87817 10.9054 8.64158 10.5921C8.39591 10.2666 8.25913 9.81095 8.25782 9.33378C8.25651 8.85655 8.39081 8.40116 8.63374 8.0763C8.86751 7.7637 9.20816 7.55943 9.68359 7.55943V7.13086V6.70229C8.91967 6.70229 8.33163 7.04904 7.94731 7.56298C7.57215 8.06466 7.39896 8.71132 7.40068 9.33614C7.4024 9.96103 7.57917 10.6074 7.9575 11.1085C8.34492 11.6217 8.93536 11.9676 9.70117 11.9676V11.5391ZM9.68359 7.7832V7.35463C9.11961 7.35463 8.69121 7.63229 8.42008 8.02436C8.15811 8.40317 8.04338 8.88259 8.04628 9.33769C8.04918 9.79295 8.17006 10.2712 8.43533 10.6483C8.70933 11.0379 9.13842 11.3153 9.70117 11.3153V10.8867V10.4581C9.45332 10.4581 9.27172 10.3476 9.13643 10.1552C8.99242 9.95049 8.90545 9.65285 8.9034 9.33223C8.90136 9.01145 8.98461 8.71499 9.12506 8.51189C9.25634 8.32206 9.43479 8.21177 9.68359 8.21177V7.7832ZM9.70117 10.8867L9.70123 11.3153C10.2646 11.3152 10.6921 11.037 10.9623 10.6449C11.2233 10.2661 11.3373 9.78682 11.3343 9.33203C11.3312 8.87706 11.2107 8.39911 10.9464 8.02209C10.6734 7.63272 10.2454 7.35465 9.68361 7.35463L9.68359 7.7832L9.68358 8.21177C9.92905 8.21178 10.1096 8.32164 10.2445 8.51414C10.3882 8.71901 10.475 9.0169 10.4772 9.33778C10.4793 9.65883 10.3964 9.95544 10.2564 10.1586C10.1257 10.3484 9.94824 10.4581 9.70112 10.4581L9.70117 10.8867Z" fill="#277E89"/>
</svg>
