<svg width="20" height="20" viewBox="0 0 20 20" fill="none" xmlns="http://www.w3.org/2000/svg">
<path d="M8.33203 10H11.6654" stroke="#6E6E73" stroke-width="1.25" stroke-linecap="round" stroke-linejoin="round"/>
<path d="M8.33203 6.66663H11.6654" stroke="#6E6E73" stroke-width="1.25" stroke-linecap="round" stroke-linejoin="round"/>
<path d="M11.6654 17.5V15C11.6654 14.558 11.4898 14.1341 11.1772 13.8215C10.8646 13.509 10.4407 13.3334 9.9987 13.3334C9.55667 13.3334 9.13275 13.509 8.82019 13.8215C8.50763 14.1341 8.33203 14.558 8.33203 15V17.5" stroke="#6E6E73" stroke-width="1.25" stroke-linecap="round" stroke-linejoin="round"/>
<path d="M5.0013 8.33337H3.33464C2.89261 8.33337 2.46868 8.50897 2.15612 8.82153C1.84356 9.13409 1.66797 9.55801 1.66797 10V15.8334C1.66797 16.2754 1.84356 16.6993 2.15612 17.0119C2.46868 17.3244 2.89261 17.5 3.33464 17.5H16.668C17.11 17.5 17.5339 17.3244 17.8465 17.0119C18.159 16.6993 18.3346 16.2754 18.3346 15.8334V7.50004C18.3346 7.05801 18.159 6.63409 17.8465 6.32153C17.5339 6.00897 17.11 5.83337 16.668 5.83337H15.0013" stroke="#6E6E73" stroke-width="1.25" stroke-linecap="round" stroke-linejoin="round"/>
<path d="M5 17.5V4.16667C5 3.72464 5.17559 3.30072 5.48816 2.98816C5.80072 2.67559 6.22464 2.5 6.66667 2.5H13.3333C13.7754 2.5 14.1993 2.67559 14.5118 2.98816C14.8244 3.30072 15 3.72464 15 4.16667V17.5" stroke="#6E6E73" stroke-width="1.25" stroke-linecap="round" stroke-linejoin="round"/>
</svg>
