<svg width="20" height="20" viewBox="0 0 20 20" fill="none" xmlns="http://www.w3.org/2000/svg">
<path d="M1.66797 7.49996C2.33101 7.49996 2.96689 7.76335 3.43574 8.23219C3.90458 8.70103 4.16797 9.33692 4.16797 9.99996C4.16797 10.663 3.90458 11.2989 3.43574 11.7677C2.96689 12.2366 2.33101 12.5 1.66797 12.5V14.1666C1.66797 14.6087 1.84356 15.0326 2.15612 15.3451C2.46868 15.6577 2.89261 15.8333 3.33464 15.8333H16.668C17.11 15.8333 17.5339 15.6577 17.8465 15.3451C18.159 15.0326 18.3346 14.6087 18.3346 14.1666V12.5C17.6716 12.5 17.0357 12.2366 16.5669 11.7677C16.098 11.2989 15.8346 10.663 15.8346 9.99996C15.8346 9.33692 16.098 8.70103 16.5669 8.23219C17.0357 7.76335 17.6716 7.49996 18.3346 7.49996V5.83329C18.3346 5.39127 18.159 4.96734 17.8465 4.65478C17.5339 4.34222 17.11 4.16663 16.668 4.16663H3.33464C2.89261 4.16663 2.46868 4.34222 2.15612 4.65478C1.84356 4.96734 1.66797 5.39127 1.66797 5.83329V7.49996Z" stroke="#6E6E73" stroke-width="1.25" stroke-linecap="round" stroke-linejoin="round"/>
<path d="M10.832 4.16663V5.83329" stroke="#6E6E73" stroke-width="1.25" stroke-linecap="round" stroke-linejoin="round"/>
<path d="M10.832 14.1666V15.8333" stroke="#6E6E73" stroke-width="1.25" stroke-linecap="round" stroke-linejoin="round"/>
<path d="M10.832 9.16663V10.8333" stroke="#6E6E73" stroke-width="1.25" stroke-linecap="round" stroke-linejoin="round"/>
</svg>
