<svg width="112" height="17" viewBox="0 0 112 17" fill="none" xmlns="http://www.w3.org/2000/svg">
<path d="M103.151 6.8318C103.04 6.74276 102.923 6.69825 102.801 6.69825C102.668 6.69825 102.551 6.73163 102.451 6.79841C102.351 6.85406 102.301 6.94309 102.301 7.06551C102.301 7.25471 102.435 7.38269 102.701 7.44947C102.979 7.51624 103.317 7.56633 103.717 7.59971C104.128 7.62197 104.567 7.65536 105.033 7.69988C105.511 7.73326 105.95 7.81673 106.349 7.95028C106.76 8.08383 107.099 8.29529 107.366 8.58465C107.643 8.86288 107.782 9.25796 107.782 9.76991C107.782 10.638 107.377 11.289 106.566 11.7231C105.766 12.1571 104.595 12.3741 103.051 12.3741C102.24 12.3741 101.529 12.3129 100.919 12.1905C100.319 12.0681 99.808 11.8845 99.3859 11.6396C98.9639 11.3836 98.6252 11.0609 98.3697 10.6714C98.1254 10.2819 97.9588 9.81999 97.87 9.28579C97.8144 8.95191 97.9588 8.78497 98.3031 8.78497L101.385 8.78497C101.685 8.78497 101.896 8.82393 102.018 8.90183C102.151 8.97973 102.296 9.09103 102.451 9.23571C102.54 9.32474 102.668 9.36926 102.834 9.36926C102.979 9.36926 103.101 9.34143 103.201 9.28579C103.312 9.21901 103.367 9.12441 103.367 9.00199C103.367 8.80167 103.229 8.67368 102.951 8.61803C102.684 8.55126 102.346 8.50674 101.935 8.48449C101.535 8.4511 101.096 8.41771 100.619 8.38432C100.152 8.33981 99.7136 8.25077 99.3026 8.11722C98.9028 7.98367 98.5641 7.77778 98.2864 7.49955C98.0199 7.21019 97.8866 6.80954 97.8866 6.2976C97.8866 5.42952 98.2864 4.77846 99.0861 4.34442C99.8857 3.91038 101.052 3.69336 102.584 3.69336C104.195 3.69336 105.405 3.9382 106.216 4.42789C107.038 4.91757 107.538 5.70218 107.715 6.78172C107.771 7.11559 107.627 7.28253 107.282 7.28253L104.234 7.28253C103.967 7.28253 103.756 7.24914 103.601 7.18237C103.456 7.10446 103.306 6.98761 103.151 6.8318Z" fill="#0A1A14"/>
<path d="M108.451 10.751C108.451 10.2168 108.612 9.78831 108.934 9.46557C109.267 9.14282 109.701 8.98145 110.234 8.98145C110.767 8.98145 111.194 9.14282 111.516 9.46557C111.839 9.78831 112 10.2168 112 10.751C112 11.2852 111.839 11.7137 111.516 12.0364C111.194 12.3592 110.767 12.5205 110.234 12.5205C109.701 12.5205 109.267 12.3592 108.934 12.0364C108.612 11.7137 108.451 11.2852 108.451 10.751Z" fill="#FF4F61"/>
<path d="M95.0119 12.2073C94.2789 12.2073 93.6736 12.1183 93.196 11.9402C92.7185 11.7621 92.3353 11.4895 92.0465 11.1222C91.7689 10.7438 91.569 10.2597 91.4468 9.66986C91.3357 9.08001 91.2802 8.3733 91.2802 7.54974L91.2802 6.0306C91.2802 5.7635 91.1692 5.60213 90.947 5.54648C90.7582 5.50197 90.625 5.44632 90.5472 5.37955C90.4806 5.30164 90.4473 5.18479 90.4473 5.02898L90.4473 4.36122C90.4473 4.04961 90.6139 3.87154 90.947 3.82702C91.4246 3.74912 91.7855 3.53766 92.0299 3.19266C92.2853 2.83652 92.4353 2.28006 92.4797 1.52328C92.5019 1.1894 92.674 1.02246 92.9961 1.02246L95.445 1.02246C95.7782 1.02246 95.9448 1.1894 95.9448 1.52328L95.9448 3.35959C95.9448 3.69347 96.1114 3.86041 96.4445 3.86041L97.0609 3.86041C97.3941 3.86041 97.5607 4.02735 97.5607 4.36122L97.5607 5.02898C97.5607 5.36285 97.3941 5.52979 97.0609 5.52979L96.4445 5.52979C96.1114 5.52979 95.9448 5.69673 95.9448 6.0306L95.9448 7.86692C95.9448 8.07838 95.9503 8.25088 95.9614 8.38443C95.9836 8.51798 96.0225 8.62371 96.078 8.70161C96.1447 8.76839 96.2335 8.81291 96.3446 8.83516C96.4667 8.85742 96.6278 8.86855 96.8277 8.86855L97.0609 8.86855C97.3941 8.86855 97.5607 9.03549 97.5607 9.36937L97.5607 11.7065C97.5607 12.0404 97.3941 12.2073 97.0609 12.2073L95.0119 12.2073Z" fill="#0A1A14"/>
<path d="M84.3723 5.09564C84.3945 5.29597 84.4889 5.39613 84.6555 5.39613C84.7554 5.39613 84.8276 5.37387 84.872 5.32935C84.9276 5.27371 84.9775 5.20693 85.022 5.12903C85.2552 4.75063 85.5773 4.41676 85.9882 4.1274C86.3991 3.83804 86.9378 3.69336 87.6041 3.69336C88.1483 3.69336 88.5981 3.7657 88.9535 3.91038C89.32 4.04393 89.6088 4.23313 89.8198 4.47797C90.0308 4.71168 90.1807 4.99548 90.2696 5.32935C90.3584 5.6521 90.4028 6.00267 90.4028 6.38106L90.4028 11.7064C90.4028 12.0403 90.2363 12.2072 89.9031 12.2072L86.2381 12.2072C85.9049 12.2072 85.7383 12.0403 85.7383 11.7064L85.7383 7.71657C85.7383 7.2714 85.5828 7.04882 85.2718 7.04882C85.0942 7.04882 84.9609 7.12116 84.872 7.26584C84.7832 7.41052 84.7388 7.59415 84.7388 7.81673L84.7388 11.7064C84.7388 12.0403 84.5722 12.2072 84.239 12.2072L80.574 12.2072C80.2408 12.2072 80.0742 12.0403 80.0742 11.7064L80.0742 4.36111C80.0742 4.02724 80.2408 3.8603 80.574 3.8603L83.7392 3.8603C84.0724 3.8603 84.2556 4.02724 84.289 4.36111L84.3723 5.09564Z" fill="#0A1A14"/>
<path d="M75.0326 8.93522C75.1659 8.72376 75.3158 8.61803 75.4824 8.61803L79.2473 8.61803C79.6027 8.61803 79.7471 8.78497 79.6805 9.11885C79.5694 9.68644 79.3584 10.1761 79.0474 10.5879C78.7476 10.9997 78.3644 11.3391 77.898 11.6062C77.4426 11.8622 76.9262 12.057 76.3487 12.1905C75.7711 12.3129 75.1603 12.3741 74.5162 12.3741C73.7943 12.3741 73.1113 12.2907 72.4671 12.1237C71.8341 11.9457 71.2788 11.6786 70.8012 11.3224C70.3347 10.9663 69.9627 10.5156 69.685 9.97023C69.4074 9.4249 69.2686 8.77941 69.2686 8.03375C69.2686 7.2881 69.4018 6.6426 69.6684 6.09727C69.9349 5.55194 70.2959 5.10121 70.7512 4.74507C71.2177 4.38894 71.7563 4.1274 72.3671 3.96046C72.9891 3.78239 73.6499 3.69336 74.3496 3.69336C75.0159 3.69336 75.6434 3.77126 76.232 3.92707C76.8207 4.07175 77.3371 4.30547 77.7813 4.62821C78.2367 4.95096 78.6087 5.36831 78.8975 5.88025C79.1863 6.38106 79.3584 6.98761 79.4139 7.69988C79.4473 8.03375 79.2862 8.20069 78.9308 8.20069L74.3496 8.20069C74.1719 8.20069 74.0442 8.24521 73.9664 8.33424C73.8887 8.42327 73.8776 8.5457 73.9331 8.7015C74.0442 9.03538 74.2385 9.20232 74.5162 9.20232C74.7494 9.20232 74.9215 9.11329 75.0326 8.93522ZM74.5328 6.53131C74.3662 6.53131 74.2385 6.58139 74.1497 6.68155C74.0608 6.77059 74.0164 6.87631 74.0164 6.99874C74.0164 7.0989 74.0497 7.18793 74.1163 7.26584C74.1941 7.33261 74.3274 7.366 74.5162 7.366C74.705 7.366 74.8382 7.33261 74.916 7.26584C74.9937 7.18793 75.0326 7.0989 75.0326 6.99874C75.0326 6.86518 74.9937 6.75389 74.916 6.66486C74.8493 6.57583 74.7216 6.53131 74.5328 6.53131Z" fill="#0A1A14"/>
<path d="M63.9033 8.40959C63.9144 8.49863 63.9366 8.57653 63.9699 8.64331C64.0032 8.69895 64.0699 8.72678 64.1698 8.72678C64.2698 8.72678 64.3364 8.69895 64.3697 8.64331C64.4031 8.57653 64.4253 8.49863 64.4364 8.40959L64.7196 4.15267C64.7418 3.81879 64.9195 3.65186 65.2527 3.65186L69.1009 3.65186C69.4341 3.65186 69.5674 3.81323 69.5007 4.13598L67.9181 11.5146C67.8515 11.8374 67.6516 11.9988 67.3184 11.9988L61.0213 11.9988C60.6881 11.9988 60.4882 11.8374 60.4215 11.5146L58.8389 4.13598C58.7723 3.81323 58.9056 3.65186 59.2387 3.65186L63.087 3.65186C63.4313 3.65186 63.609 3.81879 63.6201 4.15267L63.9033 8.40959Z" fill="#0A1A14"/>
<path d="M58.0651 5.12089C58.3649 5.25444 58.5149 5.48815 58.5149 5.82203L58.5149 6.27276C58.5149 6.60664 58.3649 6.84035 58.0651 6.9739L53.0299 8.61407C52.9299 8.65858 52.8466 8.71423 52.78 8.781C52.7022 8.84778 52.6634 8.95907 52.6634 9.11488C52.6634 9.22617 52.7022 9.30408 52.78 9.34859C52.8577 9.38198 52.9521 9.39311 53.0632 9.38198L58.0151 8.65997C58.3483 8.62659 58.5149 8.77683 58.5149 9.11071L58.5149 11.5939C58.5149 11.9278 58.3483 12.0947 58.0151 12.0947L47.3533 12.0947C47.0201 12.0947 46.8535 11.9278 46.8535 11.5939L46.8535 8.89369C46.8535 8.58207 46.9979 8.33166 47.2867 8.14247L50.2728 6.53986C50.3616 6.48421 50.4394 6.423 50.506 6.35623C50.5615 6.27832 50.5893 6.1726 50.5893 6.03905C50.5893 5.9055 50.5615 5.80533 50.506 5.73856C50.4394 5.66065 50.3616 5.59388 50.2728 5.53823L47.2867 3.95232C46.9979 3.76312 46.8535 3.51271 46.8535 3.2011L46.8535 0.500873C46.8535 0.166996 47.0201 5.85535e-05 47.3533 5.85428e-05L58.0151 5.81989e-05C58.3483 5.81882e-05 58.5149 0.166996 58.5149 0.500873L58.5149 2.98408C58.5149 3.31795 58.3483 3.4682 58.0151 3.43481L53.0632 2.7128C52.9521 2.70167 52.8577 2.7128 52.78 2.74619C52.7022 2.77958 52.6634 2.85748 52.6634 2.9799C52.6634 3.12458 52.7022 3.23588 52.78 3.31378C52.8466 3.38056 52.9299 3.4362 53.0299 3.48072L58.0651 5.12089Z" fill="#0A1A14"/>
<path d="M41.8654 11.0138C41.8543 10.9247 41.8266 10.8524 41.7821 10.7968C41.7488 10.7411 41.6822 10.7133 41.5822 10.7133C41.4823 10.7133 41.4045 10.7411 41.349 10.7968C41.3046 10.8413 41.2602 10.9025 41.2157 10.9804C41.0047 11.3477 40.7493 11.637 40.4494 11.8485C40.1495 12.0599 39.7053 12.1656 39.1167 12.1656C38.0505 12.1656 37.1953 11.8039 36.5512 11.0805C35.907 10.346 35.585 9.25536 35.585 7.80856C35.585 7.0629 35.6683 6.41741 35.8348 5.87208C36.0014 5.32675 36.2347 4.88158 36.5345 4.53657C36.8455 4.18044 37.2176 3.9189 37.6507 3.75197C38.0838 3.5739 38.5614 3.48486 39.0834 3.48486C39.5165 3.48486 39.8941 3.56277 40.2162 3.71858C40.5383 3.87439 40.8215 4.08028 41.0658 4.33625C41.1213 4.40302 41.1769 4.44198 41.2324 4.45311C41.2879 4.46423 41.3323 4.46423 41.3657 4.45311C41.399 4.44198 41.4267 4.42528 41.449 4.40302C41.4823 4.36964 41.4989 4.30843 41.4989 4.21939L41.4989 4.15262C41.4989 3.81874 41.6655 3.6518 41.9987 3.6518L45.6637 3.6518C45.9969 3.6518 46.1635 3.81874 46.1635 4.15262L46.1635 11.4979C46.1635 11.8318 45.9969 11.9987 45.6637 11.9987L42.4985 11.9987C42.1764 11.9987 41.9876 11.8318 41.9321 11.4979L41.8654 11.0138ZM40.8992 8.81019C41.088 8.81019 41.2324 8.73785 41.3323 8.59317C41.4434 8.44849 41.4989 8.26486 41.4989 8.04228L41.4989 7.60824C41.4989 7.38565 41.4434 7.20202 41.3323 7.05734C41.2324 6.91266 41.088 6.84032 40.8992 6.84032C40.5216 6.84032 40.3328 7.16863 40.3328 7.82526C40.3328 8.13687 40.3772 8.38172 40.4661 8.55978C40.5549 8.72672 40.6993 8.81019 40.8992 8.81019Z" fill="#0A1A14"/>
<path d="M29.2018 12.8334C29.6238 12.8334 29.9292 12.7221 30.118 12.4995C30.3179 12.2881 30.4179 11.9319 30.4179 11.4311C30.4179 11.331 30.4012 11.2697 30.3679 11.2475C30.3457 11.2141 30.3179 11.1918 30.2846 11.1807C30.2513 11.1696 30.2069 11.1751 30.1513 11.1974C30.0958 11.2085 30.0403 11.2475 29.9847 11.3143C29.7404 11.5702 29.4572 11.7761 29.1351 11.9319C28.8131 12.0877 28.4354 12.1656 28.0023 12.1656C27.4803 12.1656 27.0028 12.0822 26.5696 11.9152C26.1365 11.7372 25.7644 11.4756 25.4535 11.1306C25.1536 10.7745 24.9204 10.3238 24.7538 9.77843C24.5872 9.2331 24.5039 8.58761 24.5039 7.84195C24.5039 6.38402 24.826 5.29336 25.4701 4.56996C26.1143 3.84656 26.9694 3.48486 28.0356 3.48486C28.6243 3.48486 29.0685 3.59059 29.3684 3.80205C29.6682 4.0135 29.9237 4.30286 30.1347 4.67012C30.1791 4.74803 30.2235 4.8148 30.2679 4.87045C30.3235 4.91497 30.4012 4.93723 30.5012 4.93723C30.6011 4.93723 30.6678 4.9094 30.7011 4.85376C30.7455 4.79811 30.7733 4.72577 30.7844 4.63674L30.851 4.15262C30.9065 3.81874 31.0953 3.6518 31.4174 3.6518L34.5826 3.6518C34.9158 3.6518 35.0824 3.81874 35.0824 4.15262L35.0824 11.6481C35.0824 12.4606 34.9936 13.1506 34.8159 13.7182C34.6382 14.2969 34.3605 14.7643 33.9829 15.1205C33.6053 15.4877 33.1166 15.7548 32.5169 15.9218C31.9283 16.0887 31.2175 16.1722 30.3846 16.1722L26.1365 16.1722C25.8033 16.1722 25.6367 16.0052 25.6367 15.6713L25.6367 13.3342C25.6367 13.0003 25.8033 12.8334 26.1365 12.8334L29.2018 12.8334ZM29.8182 6.84032C29.6182 6.84032 29.4739 6.92935 29.385 7.10742C29.2962 7.27436 29.2517 7.51364 29.2517 7.82526C29.2517 8.48188 29.4405 8.81019 29.8182 8.81019C30.007 8.81019 30.1513 8.73785 30.2513 8.59317C30.3623 8.44849 30.4179 8.26486 30.4179 8.04227L30.4179 7.60824C30.4179 7.38565 30.3623 7.20202 30.2513 7.05734C30.1513 6.91266 30.007 6.84032 29.8182 6.84032Z" fill="#0A1A14"/>
<path d="M19.2953 8.93522C19.4286 8.72376 19.5785 8.61803 19.7451 8.61803L23.51 8.61803C23.8654 8.61803 24.0098 8.78497 23.9432 9.11885C23.8321 9.68644 23.6211 10.1761 23.3101 10.5879C23.0103 10.9997 22.6271 11.3391 22.1607 11.6062C21.7053 11.8622 21.1889 12.057 20.6114 12.1905C20.0338 12.3129 19.423 12.3741 18.7789 12.3741C18.057 12.3741 17.3739 12.2907 16.7298 12.1237C16.0967 11.9457 15.5414 11.6786 15.0639 11.3224C14.5974 10.9663 14.2254 10.5156 13.9477 9.97023C13.6701 9.4249 13.5313 8.77941 13.5313 8.03375C13.5313 7.2881 13.6645 6.6426 13.9311 6.09727C14.1976 5.55194 14.5586 5.10121 15.0139 4.74507C15.4804 4.38894 16.019 4.1274 16.6298 3.96046C17.2518 3.78239 17.9126 3.69336 18.6123 3.69336C19.2786 3.69336 19.9061 3.77126 20.4947 3.92707C21.0834 4.07175 21.5998 4.30547 22.044 4.62821C22.4994 4.95096 22.8714 5.36831 23.1602 5.88025C23.449 6.38106 23.6211 6.98761 23.6766 7.69988C23.7099 8.03375 23.5489 8.20069 23.1935 8.20069L18.6123 8.20069C18.4346 8.20069 18.3069 8.24521 18.2291 8.33424C18.1514 8.42327 18.1403 8.5457 18.1958 8.7015C18.3069 9.03538 18.5012 9.20232 18.7789 9.20232C19.0121 9.20232 19.1842 9.11329 19.2953 8.93522ZM18.7955 6.53131C18.6289 6.53131 18.5012 6.58139 18.4124 6.68155C18.3235 6.77059 18.2791 6.87631 18.2791 6.99874C18.2791 7.0989 18.3124 7.18793 18.379 7.26584C18.4568 7.33261 18.5901 7.366 18.7789 7.366C18.9677 7.366 19.1009 7.33261 19.1787 7.26584C19.2564 7.18793 19.2953 7.0989 19.2953 6.99874C19.2953 6.86518 19.2564 6.75389 19.1787 6.66486C19.112 6.57583 18.9843 6.53131 18.7955 6.53131Z" fill="#0A1A14"/>
<path d="M7.47993 11.7566C7.34665 12.0571 7.11343 12.2074 6.78025 12.2074L6.33045 12.2074C5.99727 12.2074 5.76404 12.0571 5.63077 11.7566L3.99401 6.18923C3.94959 6.08907 3.89406 6.0056 3.82742 5.93882C3.76079 5.86092 3.64973 5.82197 3.49424 5.82197C3.38318 5.82197 3.30544 5.86092 3.26101 5.93882C3.2277 6.01673 3.21659 6.11133 3.2277 6.22262L3.9482 11.7065C3.98152 12.0404 3.83159 12.2074 3.49841 12.2074L0.499772 12.2074C0.166591 12.2074 4.13622e-08 12.0404 4.02152e-08 11.7065L1.72044e-09 0.500815C5.7348e-10 0.166939 0.166591 3.84179e-07 0.499772 3.83035e-07L3.71497 3.7199e-07C4.02594 3.70921e-07 4.27583 0.14468 4.46463 0.43404L6.0639 2.90472C6.11943 2.99376 6.18052 3.07166 6.24715 3.13844C6.3249 3.19408 6.4304 3.22191 6.56368 3.22191C6.69695 3.22191 6.7969 3.19408 6.86354 3.13844C6.94128 3.07166 7.00792 2.99376 7.06345 2.90472L8.64606 0.43404C8.83487 0.14468 9.08475 3.53543e-07 9.39572 3.52475e-07L12.6109 3.4143e-07C12.9441 3.40285e-07 13.1107 0.166939 13.1107 0.500815L13.1107 11.7065C13.1107 12.0404 12.9441 12.2074 12.6109 12.2074L9.61229 12.2074C9.27911 12.2074 9.12918 12.0404 9.16249 11.7065L9.883 6.22262C9.8941 6.11133 9.883 6.01673 9.84968 5.93882C9.81636 5.86092 9.73862 5.82197 9.61645 5.82197C9.47208 5.82197 9.36101 5.86092 9.28327 5.93882C9.21664 6.0056 9.16111 6.08907 9.11668 6.18923L7.47993 11.7566Z" fill="#0A1A14"/>
</svg>
