<svg width="38" height="38" viewBox="0 0 38 38" fill="none" xmlns="http://www.w3.org/2000/svg">
<path d="M28.3419 0C33.5594 4.53028e-05 37.789 4.24515 37.7891 9.48175C37.7891 14.3304 34.1628 18.3285 29.4838 18.8944C34.1628 19.4603 37.789 23.4583 37.7891 28.307C37.7891 33.5436 33.5594 37.789 28.3419 37.7891C23.147 37.7891 18.9317 33.5807 18.895 28.3755H18.8934C18.8568 33.5807 14.642 37.7891 9.44718 37.7891C4.22964 37.789 -1.54071e-07 33.5436 0 28.307C4.64325e-05 23.4584 3.62608 19.4604 8.30489 18.8944C3.62606 18.3283 -1.42653e-07 14.3303 0 9.48175C4.46353e-05 4.24514 4.22967 4.32417e-05 9.44718 0C14.642 3.37356e-07 18.8567 4.20816 18.8934 9.41327H18.895C18.9317 4.20816 23.1471 -3.37356e-07 28.3419 0Z" fill="#FF9D4D"/>
</svg>
