<svg width="37" height="37" viewBox="0 0 37 37" fill="none" xmlns="http://www.w3.org/2000/svg">
<path d="M37 18.8387C37 16.8845 34.3509 15.1387 30.1993 13.9923C32.4315 10.1446 33.1263 6.93967 31.7106 5.52394C30.3122 4.12559 27.1507 4.79437 23.3552 6.97441C22.2087 2.71854 20.4455 0 18.4653 0C16.5197 0 14.7739 2.63169 13.6275 6.75728C9.83192 4.58592 6.67911 3.91714 5.28944 5.31549C3.85634 6.74859 4.5946 10.0317 6.90493 13.9662C2.69249 15.104 0 16.8671 0 18.8387C0 20.793 2.64906 22.5387 6.8007 23.6852C4.78568 27.3244 4.19507 30.3383 5.55 31.6845C6.91361 33.0481 9.97089 32.4401 13.6622 30.373C14.8087 34.4204 16.5371 37 18.4566 37C20.4195 37 22.1653 34.3336 23.3204 30.1559C27.0204 32.2317 30.0777 32.8484 31.45 31.4761C32.7789 30.1472 32.2404 27.2202 30.3035 23.6592C34.3944 22.5127 37 20.7756 37 18.8387Z" fill="#FACC15"/>
</svg>
